<?xml version="1.0" standalone="no"?>
<!DOCTYPE svg PUBLIC "-//W3C//DTD SVG 1.1//EN" "http://www.w3.org/Graphics/SVG/1.1/DTD/svg11.dtd" >
<svg xmlns="http://www.w3.org/2000/svg" xmlns:xlink="http://www.w3.org/1999/xlink" version="1.1">
<metadata>
Created by FontForge 20190801 at Tue Apr 24 10:21:23 2012
 By Jimmy Wärting
Copyright (c) 2003 - 2012 Linotype GmbH, www.linotype.com. All rights reserved. This font software may not be reproduced, modified, disclosed or transferred without the express written approval of Linotype GmbH. Avenir is a trademark of Linotype GmbH registered in the U.S. Patent and Trademark Office and may be registered in certain other jurisdictions. This typeface is original artwork of Adrian Frutiger and Akira Kobayashi. The design may be protected in certain jurisdictions.
</metadata>
<defs>
<font id="AvenirNextCyr-Heavy" horiz-adv-x="360" >
  <font-face 
    font-family="Avenir Next Cyr Heavy"
    font-weight="800"
    font-stretch="normal"
    units-per-em="1000"
    panose-1="2 11 9 3 2 2 2 2 2 4"
    ascent="756"
    descent="-244"
    x-height="526"
    cap-height="708"
    bbox="-163 -250 1237 971"
    underline-thickness="50"
    underline-position="-200"
    unicode-range="U+000D-FB04"
  />
<missing-glyph horiz-adv-x="512" 
d="M278 117h-56v67h56v-67zM271 234h-46l-2 17q0 56 13 81q15 28 46 59q31 29 40.5 46t9.5 37q0 36 -22.5 60.5t-53.5 24.5q-71 0 -82 -95l-50 8q7 69 43 103t92 34q54 0 89 -36t35 -95q0 -34 -13 -60t-50 -60q-37 -33 -43 -52q-6 -20 -6 -72zM50 50h412v617h-412v-617z
M0 718h512v-718h-512v718z" />
    <glyph glyph-name="napostrophe" unicode="&#x22;n" horiz-adv-x="831" 
d="M218 0v526h225v-58h2q21 31 61.5 51.5t88.5 20.5q53 0 91.5 -19t58.5 -52.5t29 -70t9 -78.5v-320h-232v280q0 72 -50 72q-23 0 -37.5 -19t-14.5 -53v-280h-231zM59 708h189l-87 -177h-164z" />
    <glyph glyph-name="f_f" unicode="ff" horiz-adv-x="812" 
d="M814 598q-22 9 -45 9q-61 0 -61 -74v-7h111v-165h-111v-361h-230v361h-158v-361h-230v361h-90v165h90v12q0 248 246 248q67 0 105 -15l-15 -173q-22 9 -45 9q-61 0 -61 -74v-7h158v12q0 248 246 248q67 0 105 -15z" />
    <glyph glyph-name="fi" unicode="fi" horiz-adv-x="756" 
d="M471 0v526h231v-526h-231zM467 678q0 48 36 83t85 35q47 0 82.5 -35t35.5 -83q0 -49 -35 -83t-83 -34q-50 0 -85.5 34t-35.5 83zM426 598q-22 9 -45 9q-61 0 -61 -74v-7h111v-165h-111v-361h-230v361h-90v165h90v12q0 248 246 248q67 0 105 -15z" />
    <glyph glyph-name="fl" unicode="fl" horiz-adv-x="759" 
d="M470 0v756h236v-756h-236zM426 598q-22 9 -45 9q-61 0 -61 -74v-7h111v-165h-111v-361h-230v361h-90v165h90v12q0 248 246 248q67 0 105 -15z" />
    <glyph glyph-name="f_f_i" unicode="ffi" horiz-adv-x="1144" 
d="M814 598q-22 9 -45 9q-61 0 -61 -74v-7h111v-165h-111v-361h-230v361h-158v-361h-230v361h-90v165h90v12q0 248 246 248q67 0 105 -15l-15 -173q-22 9 -45 9q-61 0 -61 -74v-7h158v12q0 248 246 248q67 0 105 -15zM859 0v526h231v-526h-231zM855 678q0 48 36 83t85 35
q47 0 82.5 -35t35.5 -83q0 -49 -35 -83t-83 -34q-50 0 -85.5 34t-35.5 83z" />
    <glyph glyph-name="f_f_l" unicode="ffl" horiz-adv-x="1147" 
d="M814 598q-22 9 -45 9q-61 0 -61 -74v-7h111v-165h-111v-361h-230v361h-158v-361h-230v361h-90v165h90v12q0 248 246 248q67 0 105 -15l-15 -173q-22 9 -45 9q-61 0 -61 -74v-7h158v12q0 248 246 248q67 0 105 -15zM858 0v756h236v-756h-236z" />
    <glyph glyph-name=".notdef" horiz-adv-x="512" 
d="M278 117h-56v67h56v-67zM271 234h-46l-2 17q0 56 13 81q15 28 46 59q31 29 40.5 46t9.5 37q0 36 -22.5 60.5t-53.5 24.5q-71 0 -82 -95l-50 8q7 69 43 103t92 34q54 0 89 -36t35 -95q0 -34 -13 -60t-50 -60q-37 -33 -43 -52q-6 -20 -6 -72zM50 50h412v617h-412v-617z
M0 718h512v-718h-512v718z" />
    <glyph glyph-name=".null" horiz-adv-x="500" 
 />
    <glyph glyph-name=".null" horiz-adv-x="500" 
 />
    <glyph glyph-name="nonmarkingreturn" horiz-adv-x="333" 
 />
    <glyph glyph-name="CR" unicode="&#xd;" horiz-adv-x="0" 
 />
    <glyph glyph-name="space" unicode=" " horiz-adv-x="250" 
 />
    <glyph glyph-name="exclam" unicode="!" horiz-adv-x="448" 
d="M224 -16q-52 0 -88 35t-36 86q0 50 36 85.5t88 35.5t88 -35.5t36 -85.5q0 -51 -36 -86t-88 -35zM104 260v448h240v-448h-240z" />
    <glyph glyph-name="quotedbl" unicode="&#x22;" horiz-adv-x="556" 
d="M303 426v282h172v-282h-172zM81 426v282h173v-282h-173z" />
    <glyph glyph-name="numbersign" unicode="#" horiz-adv-x="620" 
d="M480 387l-9 -66h77v-134h-95l-27 -187h-145l26 187h-40l-27 -187h-145l26 187h-76v134h95l10 66h-77v134h95l26 187h146l-27 -187h41l27 187h145l-27 -187h76v-134h-95zM294 387l-9 -66h41l10 66h-42z" />
    <glyph glyph-name="dollar" unicode="$" horiz-adv-x="700" 
d="M401 714q67 -4 132.5 -30t115.5 -70l-148 -147q-23 28 -57.5 43.5t-64.5 15.5q-58 0 -58 -31q0 -14 13 -21t51 -20q4 -1 6 -2q41 -13 65 -21.5t62 -28t58.5 -40t37 -54t16.5 -74.5q0 -106 -69.5 -169.5t-170.5 -71.5v-76h-102v75q-69 5 -135 32t-113 67l145 154
q26 -28 68 -47.5t84 -19.5q53 0 53 32q0 19 -22.5 30t-102.5 37q-85 28 -134 73.5t-49 128.5q0 99 62 158.5t155 74.5v74h102v-72z" />
    <glyph glyph-name="percent" unicode="%" horiz-adv-x="935" 
d="M224 333q-81 0 -139 56.5t-58 136.5q0 81 58 137.5t139 56.5t138.5 -56.5t57.5 -137.5q0 -80 -57.5 -136.5t-138.5 -56.5zM224 586q-24 0 -42 -17.5t-18 -42.5q0 -24 18 -41t42 -17t41.5 17t17.5 41t-17.5 42t-41.5 18zM711 -12q-81 0 -139 56.5t-58 136.5q0 81 58 137.5
t139 56.5t138.5 -56.5t57.5 -137.5q0 -80 -57.5 -136.5t-138.5 -56.5zM711 241q-24 0 -42 -17.5t-18 -42.5q0 -24 18 -41t42 -17t41.5 17t17.5 41q0 25 -18 42.5t-41 17.5zM306 -37l-98 53l420 723l97 -55z" />
    <glyph glyph-name="ampersand" unicode="&#x26;" horiz-adv-x="840" 
d="M569 0l-49 51q-76 -65 -200 -65q-53 0 -101 12.5t-89 37.5t-65.5 68.5t-24.5 100.5q0 65 38.5 113.5t100.5 75.5q-69 60 -69 145q0 49 23 87t61 59.5t81 32t89 10.5q100 0 172.5 -48t72.5 -144q0 -60 -36 -101.5t-101 -77.5l49 -46l55 79h249l-170 -207l192 -183h-278z
M366 575q-21 0 -33.5 -13.5t-12.5 -32.5q0 -33 37 -60q53 21 53 60q0 20 -11.5 33t-32.5 13zM304 273q-39 -15 -39 -55q0 -27 20.5 -41t46.5 -14q41 0 60 21z" />
    <glyph glyph-name="quotesingle" unicode="'" horiz-adv-x="334" 
d="M81 426v282h172v-282h-172z" />
    <glyph glyph-name="parenleft" unicode="(" 
d="M18 288q0 124 38 247t111 223l153 -56q-133 -184 -133 -414t133 -414l-153 -56q-73 100 -111 223t-38 247z" />
    <glyph glyph-name="parenright" unicode=")" 
d="M342 288q0 -124 -38 -247t-111 -223l-153 56q133 184 133 414t-133 414l153 56q73 -100 111 -223t38 -247z" />
    <glyph glyph-name="asterisk" unicode="*" horiz-adv-x="527" 
d="M385 467l72 -93l-121 -83l-74 95l-71 -90l-120 83l74 89l-117 37l48 130l114 -38v111h149v-112l116 35l44 -130z" />
    <glyph glyph-name="plus" unicode="+" horiz-adv-x="666" 
d="M49 378h204v198h158v-198h206v-150h-204v-198h-158v198h-206v150z" />
    <glyph glyph-name="comma" unicode="," 
d="M200 -120h-186l82 313h218z" />
    <glyph glyph-name="hyphen" unicode="-" horiz-adv-x="336" 
d="M30 199v172h276v-172h-276z" />
    <glyph glyph-name="period" unicode="." 
d="M48 113q0 53 39.5 91.5t94.5 38.5q53 0 91.5 -38.5t38.5 -91.5q0 -54 -38.5 -91.5t-91.5 -37.5q-55 0 -94.5 37.5t-39.5 91.5z" />
    <glyph glyph-name="slash" unicode="/" horiz-adv-x="455" 
d="M154 -59l-157 48l303 778l158 -48z" />
    <glyph glyph-name="zero" unicode="0" horiz-adv-x="700" 
d="M350 -20q-75 0 -132.5 24.5t-92 62.5t-56 90t-29.5 100.5t-8 100.5t8 99.5t29.5 98.5t56 88t92 60.5t132.5 23.5t133 -23.5t92 -60.5t56 -88t29.5 -98.5t7.5 -99.5t-7.5 -100.5t-29.5 -100.5t-56 -90t-92 -62.5t-133 -24.5zM350 523q-72 0 -72 -165q0 -171 72 -171
t72 171q0 165 -72 165z" />
    <glyph glyph-name="one" unicode="1" horiz-adv-x="700" 
d="M288 0v456l-119 -82l-112 174l251 160h220v-708h-240z" />
    <glyph glyph-name="two" unicode="2" horiz-adv-x="700" 
d="M66 185l280 224q39 30 39 62q0 21 -13.5 35.5t-38.5 14.5q-29 0 -48 -23t-21 -62l-227 26q13 130 103 198t213 68q55 0 104 -13t90.5 -39.5t66 -72.5t24.5 -106q0 -55 -21.5 -99.5t-47.5 -69.5t-69 -55l-104 -74h244v-199h-574v185z" />
    <glyph glyph-name="three" unicode="3" horiz-adv-x="700" 
d="M533 375v-4q54 -17 87.5 -61.5t33.5 -95.5q0 -79 -45 -133.5t-110 -77.5t-141 -23q-117 0 -207.5 55t-117.5 163l222 52q6 -28 30.5 -49t59.5 -21q24 0 43 11.5t19 36.5q0 30 -26 41t-77 11h-68v164h76q84 0 84 51q0 21 -16.5 31t-39.5 10q-26 0 -46.5 -16t-25.5 -45
l-221 47q33 107 119.5 156.5t193.5 49.5q50 0 97.5 -12t89.5 -36t68 -66t26 -95q0 -57 -30 -93.5t-78 -50.5z" />
    <glyph glyph-name="four" unicode="4" horiz-adv-x="700" 
d="M588 125v-125h-216v125h-341v194l268 389h288v-397h96v-186h-95zM375 490h-4l-118 -179h122v179z" />
    <glyph glyph-name="five" unicode="5" horiz-adv-x="700" 
d="M650 238q0 -70 -26.5 -122.5t-70.5 -80.5t-93.5 -41.5t-104.5 -13.5q-113 0 -204 59t-110 159l220 56q6 -30 30 -51t56 -21q66 0 66 54q0 60 -126 60q-78 0 -185 -21l25 433h481v-198h-280l-4 -51q32 5 53 5q118 0 195.5 -57t77.5 -169z" />
    <glyph glyph-name="six" unicode="6" horiz-adv-x="700" 
d="M407 486h11q98 0 170 -64t72 -172q0 -128 -89.5 -199t-220.5 -71q-132 0 -221 69t-89 199q0 111 88 233l162 227h289l-163 -211zM350 320q-32 0 -52.5 -20.5t-20.5 -50.5q0 -31 20.5 -52t52.5 -21q33 0 54 21t21 52q0 30 -21 50.5t-54 20.5z" />
    <glyph glyph-name="seven" unicode="7" horiz-adv-x="700" 
d="M392 0h-276l269 510h-304v198h564v-169z" />
    <glyph glyph-name="eight" unicode="8" horiz-adv-x="700" 
d="M350 551q-26 0 -42 -16t-16 -36q0 -21 16 -37.5t42 -16.5t42 16.5t16 37.5q0 20 -16 36t-42 16zM350 277q-29 0 -45.5 -17t-16.5 -42t16.5 -41.5t45.5 -16.5t45.5 16.5t16.5 41.5t-16.5 42t-45.5 17zM526 371v-3q52 -19 85 -63t33 -101q0 -112 -86 -168t-208 -56
q-78 0 -142 21t-108 73t-44 129q0 56 32 99t86 65v3q-46 17 -76 57t-30 92q0 53 24 94.5t64.5 66t89.5 36.5t104 12q54 0 103 -12t90 -36.5t65 -66t24 -94.5q0 -54 -29 -93t-77 -55z" />
    <glyph glyph-name="nine" unicode="9" horiz-adv-x="700" 
d="M293 222h-11q-98 0 -170 64t-72 172q0 128 89.5 199t220.5 71q132 0 221 -69t89 -199q0 -111 -88 -233l-162 -227h-289l167 216zM350 390q32 0 52.5 20.5t20.5 50.5q0 31 -20.5 52t-52.5 21q-33 0 -54 -21t-21 -52q0 -30 21 -50.5t54 -20.5z" />
    <glyph glyph-name="colon" unicode=":" horiz-adv-x="380" 
d="M66 115q0 50 37 86t89 36q49 0 85.5 -36t36.5 -86t-36.5 -85.5t-85.5 -35.5q-52 0 -89 35t-37 86zM66 409q0 50 37 86t89 36q49 0 85.5 -36t36.5 -86t-36.5 -85.5t-85.5 -35.5q-52 0 -89 35t-37 86z" />
    <glyph glyph-name="semicolon" unicode=";" horiz-adv-x="380" 
d="M199 -120h-186l82 313h218zM66 409q0 50 37 86t89 36q49 0 85.5 -36t36.5 -86t-36.5 -85.5t-85.5 -35.5q-52 0 -89 35t-37 86z" />
    <glyph glyph-name="less" unicode="&#x3c;" horiz-adv-x="666" 
d="M588 32l-510 203v134l510 203v-162q-45 -19 -136.5 -55.5t-137.5 -55.5l274 -103v-164z" />
    <glyph glyph-name="equal" unicode="=" horiz-adv-x="666" 
d="M56 472h554v-144h-554v144zM56 282h554v-144h-554v144z" />
    <glyph glyph-name="greater" unicode="&#x3e;" horiz-adv-x="666" 
d="M78 572l510 -203v-134l-510 -203v164l274 103q-45 19 -137 55.5t-137 55.5v162z" />
    <glyph glyph-name="question" unicode="?" horiz-adv-x="587" 
d="M304 -16q-52 0 -88 35t-36 86q0 50 36 85.5t88 35.5t88 -35.5t36 -85.5q0 -51 -36 -86t-88 -35zM446 328q-36 -22 -36 -50v-26h-213v37q0 54 24 88t74 69l17 12q33 24 33 44q0 38 -42 38q-31 0 -46 -22t-15 -56l-215 28q12 121 90 179.5t190 58.5q50 0 95 -11t86 -34.5
t65 -65.5t24 -99q0 -65 -32 -107.5t-99 -82.5z" />
    <glyph glyph-name="at" unicode="@" horiz-adv-x="800" 
d="M481 534h136l-19 -108q-18 -88 -18 -113q0 -30 24 -30q22 0 40 26.5t18 86.5q0 109 -67 166.5t-180 57.5q-115 0 -188.5 -75t-73.5 -191q0 -119 77 -190.5t201 -71.5q123 0 205 68l75 -85q-112 -93 -294 -93q-169 0 -280.5 104.5t-111.5 266.5q0 158 114 265.5t275 107.5
q155 0 261.5 -88.5t106.5 -243.5q0 -107 -57 -170.5t-158 -63.5q-84 0 -106 59h-2q-12 -23 -42.5 -41t-70.5 -18q-67 0 -108 50.5t-41 128.5q0 90 52 156.5t134 66.5q36 0 60 -16t31 -36h2zM405 443q-24 0 -42 -30.5t-18 -69.5q0 -60 41 -60q27 0 43.5 30.5t16.5 66.5
q0 63 -41 63z" />
    <glyph glyph-name="A" unicode="A" horiz-adv-x="776" 
d="M-16 0l279 708h253l276 -708h-259l-37 104h-225l-35 -104h-252zM443 286l-57 175l-58 -175h115z" />
    <glyph glyph-name="B" unicode="B" horiz-adv-x="693" 
d="M347 523h-59v-87h64q57 0 57 47q0 40 -62 40zM349 283h-61v-96h71q29 0 46 13t17 36q0 25 -22.5 36t-50.5 11zM529 371v-3q55 -13 94 -56t39 -105q0 -56 -23 -97.5t-63 -64.5t-87 -34t-102 -11h-321v708h291q276 0 276 -188q0 -109 -104 -149z" />
    <glyph glyph-name="C" unicode="C" horiz-adv-x="696" 
d="M34 354q0 167 110.5 270.5t274.5 103.5q81 0 154.5 -26.5t122.5 -71.5l-146 -176q-39 53 -117 53q-61 0 -102 -42t-41 -111q0 -67 41.5 -109t101.5 -42q77 0 117 57l146 -175q-105 -105 -277 -105q-163 0 -274 104.5t-111 269.5z" />
    <glyph glyph-name="D" unicode="D" horiz-adv-x="788" 
d="M350 0h-284v708h264q70 0 130 -10t115.5 -35.5t94 -64t61.5 -100t23 -140.5q0 -90 -33 -160.5t-90.5 -112.5t-128.5 -63.5t-152 -21.5zM348 506h-53v-302h44q174 0 174 156q0 68 -44.5 107t-120.5 39z" />
    <glyph glyph-name="E" unicode="E" horiz-adv-x="603" 
d="M66 0v708h487v-198h-263v-61h247v-185h-247v-66h280v-198h-504z" />
    <glyph glyph-name="F" unicode="F" horiz-adv-x="581" 
d="M299 509v-75h216v-194h-215v-240h-234v708h478v-199h-245z" />
    <glyph glyph-name="G" unicode="G" horiz-adv-x="762" 
d="M426 -18q-170 0 -281 102t-111 270q0 167 110.5 270.5t273.5 103.5q82 0 157 -27t122 -74l-139 -167q-47 57 -126 57q-61 0 -106.5 -46t-45.5 -117q0 -78 40 -122.5t122 -44.5q36 0 56 10v54h-114v187h325v-387q-51 -30 -128.5 -49.5t-154.5 -19.5z" />
    <glyph glyph-name="H" unicode="H" horiz-adv-x="802" 
d="M498 0v269h-194v-269h-238v708h237v-240h194v240h239v-708h-238z" />
    <glyph glyph-name="I" unicode="I" horiz-adv-x="372" 
d="M66 0v708h240v-708h-240z" />
    <glyph glyph-name="J" unicode="J" horiz-adv-x="573" 
d="M248 -20q-94 0 -168 51.5t-95 128.5l204 78q10 -41 43 -41q39 0 39 55v456h239v-446q0 -42 -6.5 -78.5t-24 -75t-45.5 -66t-76 -45t-110 -17.5z" />
    <glyph glyph-name="K" unicode="K" horiz-adv-x="763" 
d="M489 0l-189 282h-2v-282h-232v708h231v-261h2l189 261h280l-266 -324l279 -384h-292z" />
    <glyph glyph-name="L" unicode="L" horiz-adv-x="549" 
d="M66 0v708h240v-504h235v-204h-475z" />
    <glyph glyph-name="M" unicode="M" horiz-adv-x="1008" 
d="M282 400h-5l11 -400h-222v708h311l128 -381h5l111 381h321v-708h-231l7 398l-6 1l-132 -399h-168z" />
    <glyph glyph-name="N" unicode="N" horiz-adv-x="791" 
d="M66 0v708h237l202 -359h4l-10 359h226v-708h-243l-196 338h-4l10 -338h-226z" />
    <glyph glyph-name="O" unicode="O" horiz-adv-x="855" 
d="M34 358q0 167 111 268.5t282 101.5t282.5 -101.5t111.5 -268.5q0 -168 -112 -273t-282 -105t-281.5 105t-111.5 273zM287 358q0 -69 39.5 -113.5t100.5 -44.5q60 0 100 44.5t40 113.5q0 68 -39.5 110t-100.5 42t-100.5 -42t-39.5 -110z" />
    <glyph glyph-name="P" unicode="P" horiz-adv-x="684" 
d="M370 228h-67v-228h-237v708h304q58 0 107 -12t91.5 -38t67 -74t24.5 -114q0 -63 -24.5 -111t-66 -76t-92 -41.5t-107.5 -13.5zM353 523h-50v-114h50q30 0 51 15t21 44q0 55 -72 55z" />
    <glyph glyph-name="Q" unicode="Q" horiz-adv-x="864" 
d="M740 184v-4l112 7v-187h-438q-172 0 -276 95t-104 267q0 161 111.5 263.5t281.5 102.5q168 0 277.5 -100.5t109.5 -256.5q0 -57 -22.5 -109.5t-51.5 -77.5zM287 358q0 -69 39.5 -113.5t100.5 -44.5q60 0 100 44.5t40 113.5q0 68 -39.5 110t-100.5 42t-100.5 -42
t-39.5 -110z" />
    <glyph glyph-name="R" unicode="R" horiz-adv-x="714" 
d="M66 0v708h305q56 0 104 -11t90.5 -36t67 -71.5t24.5 -111.5q0 -64 -32.5 -114t-91.5 -77l180 -287h-274l-136 253h-7v-253h-230zM294 523v-114h47q83 0 83 59q0 55 -73 55h-57z" />
    <glyph glyph-name="S" unicode="S" horiz-adv-x="617" 
d="M298 -20q-84 0 -163.5 29t-134.5 78l145 158q26 -29 68 -49t84 -20q53 0 53 33q0 19 -23 31t-102 38q-85 28 -134 75t-49 132q0 63 26.5 111.5t70.5 76.5t94.5 41.5t105.5 13.5q71 0 143.5 -28t126.5 -77l-148 -151q-23 28 -57.5 44.5t-64.5 16.5q-58 0 -58 -32
q0 -15 14 -22.5t56 -21.5q29 -10 46 -15.5t45.5 -17.5t46 -23t39 -29t33.5 -37t20.5 -45.5t8.5 -56.5q0 -120 -87 -186.5t-205 -66.5z" />
    <glyph glyph-name="T" unicode="T" horiz-adv-x="600" 
d="M419 507v-507h-238v507h-174v201h586v-201h-174z" />
    <glyph glyph-name="U" unicode="U" horiz-adv-x="775" 
d="M384 -20q-159 0 -243.5 83t-84.5 215v430h238v-404q0 -51 24.5 -79.5t69.5 -28.5t69.5 28.5t24.5 79.5v404h237v-430q0 -131 -87.5 -214.5t-247.5 -83.5z" />
    <glyph glyph-name="V" unicode="V" horiz-adv-x="739" 
d="M235 0l-251 708h269l117 -438h4l112 438h269l-256 -708h-264z" />
    <glyph glyph-name="W" unicode="W" horiz-adv-x="1077" 
d="M536 400l-103 -400h-240l-193 708h252l76 -398h4l82 398h249l89 -398h4l77 398h244l-197 -708h-240l-100 400h-4z" />
    <glyph glyph-name="X" unicode="X" horiz-adv-x="800" 
d="M521 0l-128 207l-123 -207h-282l253 369l-240 339h287l112 -186l107 186h280l-236 -336l261 -372h-291z" />
    <glyph glyph-name="Y" unicode="Y" horiz-adv-x="738" 
d="M481 290v-290h-238v290l-267 418h287l112 -208l107 208h280z" />
    <glyph glyph-name="Z" unicode="Z" horiz-adv-x="672" 
d="M44 0v199l265 312h-254v197h565v-172l-282 -333h290v-203h-584z" />
    <glyph glyph-name="bracketleft" unicode="[" 
d="M42 -156v888h252v-137h-87v-614h87v-137h-252z" />
    <glyph glyph-name="backslash" unicode="\" horiz-adv-x="455" 
d="M301 -59l-304 778l158 48l303 -778z" />
    <glyph glyph-name="bracketright" unicode="]" 
d="M318 732v-888h-252v137h87v614h-87v137h252z" />
    <glyph glyph-name="asciicircum" unicode="^" horiz-adv-x="714" 
d="M255 343h-178l203 365h154q34 -61 100.5 -182.5t100.5 -182.5h-178l-101 187z" />
    <glyph glyph-name="underscore" unicode="_" horiz-adv-x="500" 
d="M0 -185v110h500v-110h-500z" />
    <glyph glyph-name="grave" unicode="`" 
d="M118 584l-154 144h212l111 -144h-169z" />
    <glyph glyph-name="a" unicode="a" horiz-adv-x="591" 
d="M347 218h-13q-113 0 -113 -52q0 -20 17 -30.5t36 -10.5q33 0 53 21t20 54v18zM332 332v2q0 47 -60 47q-57 0 -111 -45l-115 114q47 45 113.5 70.5t136.5 25.5q72 0 123 -20.5t78.5 -59t39.5 -84.5t12 -105v-277h-209v42h-2q-18 -28 -54.5 -42t-74.5 -14
q-72 0 -127.5 41.5t-55.5 127.5q0 52 27 89t74.5 55t97 25.5t107.5 7.5z" />
    <glyph glyph-name="b" unicode="b" horiz-adv-x="694" 
d="M662 265q0 -112 -64 -195.5t-176 -83.5q-49 0 -93.5 19t-66.5 50h-2v-55h-207v756h230v-272h2q23 26 60.5 41t76.5 15q111 0 175.5 -82.5t64.5 -192.5zM448 265q0 36 -23 61.5t-63 25.5q-39 0 -64.5 -25.5t-25.5 -61.5q0 -38 25 -63.5t65 -25.5t63 25t23 64z" />
    <glyph glyph-name="c" unicode="c" horiz-adv-x="526" 
d="M339 -20q-135 0 -221 77.5t-86 205.5q0 126 88 204.5t222 78.5q53 0 106.5 -16.5t84.5 -40.5l-115 -166q-24 29 -69 29q-36 0 -63 -23.5t-27 -65.5t27 -64.5t63 -22.5q44 0 70 28l116 -162q-34 -27 -87 -44.5t-109 -17.5z" />
    <glyph glyph-name="d" unicode="d" horiz-adv-x="694" 
d="M32 265q0 110 64.5 192.5t175.5 82.5q39 0 76.5 -15t60.5 -41h2v272h230v-756h-207v55h-2q-22 -31 -66.5 -50t-93.5 -19q-112 0 -176 83.5t-64 195.5zM246 265q0 -39 23 -64t63 -25t65 25.5t25 63.5q0 36 -25.5 61.5t-64.5 25.5q-40 0 -63 -25.5t-23 -61.5z" />
    <glyph glyph-name="e" unicode="e" horiz-adv-x="630" 
d="M244 333h159q0 28 -21 46t-55 18q-35 0 -57.5 -19.5t-25.5 -44.5zM602 258q0 -25 -2 -49h-354q3 -27 30 -43.5t60 -16.5q57 0 86 37l164 -83q-35 -57 -102 -90t-154 -33q-79 0 -145.5 31t-109.5 97t-43 155q0 127 84 205t209 78q123 0 200 -81.5t77 -206.5z" />
    <glyph glyph-name="f" unicode="f" horiz-adv-x="424" 
d="M426 598q-22 9 -45 9q-61 0 -61 -74v-7h111v-165h-111v-361h-230v361h-90v165h90v12q0 248 246 248q67 0 105 -15z" />
    <glyph glyph-name="g" unicode="g" horiz-adv-x="697" 
d="M32 265q0 110 64.5 192.5t175.5 82.5q99 0 149 -67h3v53h217v-472q0 -83 -27.5 -142.5t-76 -91.5t-103.5 -46t-121 -14q-167 0 -281 77l101 153q72 -56 160 -56q53 0 88.5 26.5t35.5 72.5v23h-3q-20 -24 -58.5 -40t-83.5 -16q-116 0 -178 76t-62 189zM246 265
q0 -39 23 -64t63 -25t65 25.5t25 63.5q0 36 -25.5 61.5t-64.5 25.5q-40 0 -63 -25.5t-23 -61.5z" />
    <glyph glyph-name="h" unicode="h" horiz-adv-x="666" 
d="M430 540q53 0 91.5 -19t58.5 -52.5t29 -70t9 -78.5v-320h-232v280q0 72 -50 72q-22 0 -37 -18.5t-15 -54.5v-279h-231v756h231v-288h2q21 31 59 51.5t85 20.5z" />
    <glyph glyph-name="i" unicode="i" horiz-adv-x="339" 
d="M54 0v526h231v-526h-231zM50 678q0 48 36 83t85 35q47 0 82.5 -35t35.5 -83q0 -49 -35 -83t-83 -34q-50 0 -85.5 34t-35.5 83z" />
    <glyph glyph-name="j" unicode="j" horiz-adv-x="346" 
d="M292 12q0 -252 -237 -252q-55 0 -96 12l12 188q18 -5 37 -5q53 0 53 64v507h231v-514zM57 678q0 48 35.5 83t84.5 35q48 0 83.5 -35t35.5 -83q0 -49 -35 -83t-84 -34t-84.5 34t-35.5 83z" />
    <glyph glyph-name="k" unicode="k" horiz-adv-x="670" 
d="M287 229h-3v-229h-231v756h231v-431h3l125 201h268l-170 -237l169 -289h-269z" />
    <glyph glyph-name="l" unicode="l" horiz-adv-x="342" 
d="M53 0v756h236v-756h-236z" />
    <glyph glyph-name="m" unicode="m" horiz-adv-x="976" 
d="M606 0h-231v276q0 40 -10 58t-33 18q-19 0 -33.5 -17.5t-14.5 -55.5v-279h-231v526h225v-58h2q23 30 61.5 51t87.5 21q108 0 150 -76q60 76 160 76q53 0 92 -21.5t59 -56.5t29 -70.5t9 -71.5v-320h-231v280q0 41 -10 56.5t-33 15.5q-21 0 -34.5 -19t-13.5 -54v-279z" />
    <glyph glyph-name="n" unicode="n" horiz-adv-x="666" 
d="M53 0v526h225v-58h2q21 31 61.5 51.5t88.5 20.5q53 0 91.5 -19t58.5 -52.5t29 -70t9 -78.5v-320h-232v280q0 72 -50 72q-23 0 -37.5 -19t-14.5 -53v-280h-231z" />
    <glyph glyph-name="o" unicode="o" horiz-adv-x="664" 
d="M632 265q0 -131 -88 -208t-213 -77t-212 77t-87 208q0 130 87 205.5t212 75.5t213 -75.5t88 -205.5zM331 352q-37 0 -61 -26t-24 -61q0 -37 24.5 -63t61.5 -26t61.5 26t24.5 63q0 35 -25 61t-62 26z" />
    <glyph glyph-name="p" unicode="p" horiz-adv-x="694" 
d="M423 -14q-40 0 -77.5 14.5t-61.5 40.5h-2v-281h-229v766h217v-53h2q28 32 69 49.5t81 17.5q111 0 175.5 -82.5t64.5 -192.5q0 -112 -64 -195.5t-175 -83.5zM448 265q0 36 -23 61.5t-63 25.5q-39 0 -64.5 -25.5t-25.5 -61.5q0 -38 25 -63.5t65 -25.5t63 25t23 64z" />
    <glyph glyph-name="q" unicode="q" horiz-adv-x="694" 
d="M271 -14q-111 0 -175 83.5t-64 195.5q0 110 64.5 192.5t175.5 82.5q40 0 81 -17.5t69 -49.5h2v53h217v-766h-229v281h-2q-24 -26 -61.5 -40.5t-77.5 -14.5zM246 265q0 -39 23 -64t63 -25t65 25.5t25 63.5q0 36 -25.5 61.5t-64.5 25.5q-40 0 -63 -25.5t-23 -61.5z" />
    <glyph glyph-name="r" unicode="r" horiz-adv-x="445" 
d="M53 0v526h222v-60h2q18 33 52 53.5t77 20.5q27 0 44 -5l-18 -196q-21 6 -49 6q-44 0 -71.5 -26t-27.5 -64v-255h-231z" />
    <glyph glyph-name="s" unicode="s" horiz-adv-x="513" 
d="M484 167q0 -50 -22 -88t-58 -58.5t-74.5 -30.5t-78.5 -10q-68 0 -134 19.5t-113 55.5l113 131q54 -49 119 -49q33 0 33 21q0 12 -17.5 20t-65.5 19q-60 14 -104 52.5t-44 107.5q0 64 39 109t89 62.5t103 17.5q128 0 229 -68l-108 -129q-53 34 -102 34q-39 0 -39 -22
q0 -10 13 -15.5t57 -14.5q71 -15 118 -54.5t47 -109.5z" />
    <glyph glyph-name="t" unicode="t" horiz-adv-x="421" 
d="M282 -14q-105 0 -156.5 46t-51.5 141v188h-74v165h73v118h224v-118h114v-165h-114v-140q0 -36 15.5 -50.5t46.5 -14.5q24 0 42 6v-158q-43 -18 -119 -18z" />
    <glyph glyph-name="u" unicode="u" horiz-adv-x="663" 
d="M610 526v-526h-225v58h-2q-21 -31 -61.5 -51.5t-88.5 -20.5q-53 0 -91.5 19t-58.5 52.5t-29 70t-9 78.5v320h232v-278q0 -72 50 -72q23 0 37.5 19t14.5 53v278h231z" />
    <glyph glyph-name="v" unicode="v" horiz-adv-x="638" 
d="M192 0l-200 526h256l75 -284h4l72 284h247l-203 -526h-251z" />
    <glyph glyph-name="w" unicode="w" horiz-adv-x="973" 
d="M483 270l-79 -270h-229l-180 526h247l66 -272h4l68 272h222l73 -272h3l64 272h236l-182 -526h-230l-81 270h-2z" />
    <glyph glyph-name="x" unicode="x" horiz-adv-x="675" 
d="M419 0l-81 119l-86 -119h-260l203 270l-189 256h262l76 -110l75 110h254l-189 -256l199 -270h-264z" />
    <glyph glyph-name="y" unicode="y" horiz-adv-x="638" 
d="M201 9l4 11l-213 506h256l78 -277h4l69 277h247l-216 -558q-41 -105 -103.5 -156.5t-172.5 -51.5q-69 0 -131 16l29 190q34 -12 65 -12q63 0 84 55z" />
    <glyph glyph-name="z" unicode="z" horiz-adv-x="557" 
d="M33 0v161l197 194h-192v171h479v-150l-213 -205h219v-171h-490z" />
    <glyph glyph-name="braceleft" unicode="{" 
d="M0 217v142q33 0 49.5 15t16.5 55v132q0 74 36.5 122.5t111.5 48.5h96v-137h-34q-51 0 -51 -60v-135q0 -52 -27 -79.5t-58 -31.5v-2q31 -4 58 -31.5t27 -79.5v-135q0 -60 51 -60h34v-137h-96q-75 0 -111.5 48.5t-36.5 122.5v132q0 40 -16.5 55t-49.5 15z" />
    <glyph glyph-name="bar" unicode="|" horiz-adv-x="269" 
d="M49 -250v1000h172v-1000h-172z" />
    <glyph glyph-name="braceright" unicode="}" 
d="M360 359v-142q-33 0 -49 -15t-16 -55v-132q0 -74 -37 -122.5t-112 -48.5h-96v137h34q50 0 50 60v135q0 52 27 79.5t58 31.5v2q-31 4 -58 31.5t-27 79.5v135q0 60 -50 60h-34v137h96q75 0 112 -48.5t37 -122.5v-132q0 -40 16 -55t49 -15z" />
    <glyph glyph-name="asciitilde" unicode="~" horiz-adv-x="666" 
d="M355 384q39 -25 54.5 -30t39.5 -5q49 0 84 67l74 -135q-65 -106 -159 -106q-61 0 -121 38q-55 34 -93 34q-25 0 -54.5 -17t-46.5 -49l-74 135q34 56 82 81t94 25q62 0 120 -38z" />
    <glyph glyph-name="uni00A0" unicode="&#xa0;" horiz-adv-x="250" 
 />
    <glyph glyph-name="exclamdown" unicode="&#xa1;" horiz-adv-x="448" 
d="M224 546q52 0 88 -35t36 -86q0 -50 -36 -85.5t-88 -35.5t-88 35.5t-36 85.5q0 51 36 86t88 35zM104 270h240v-448h-240v448z" />
    <glyph glyph-name="cent" unicode="&#xa2;" horiz-adv-x="700" 
d="M341 -13q-110 16 -176.5 90t-66.5 186q0 109 67 183t176 92v64h109v-61q92 -8 149 -52l-115 -166q-24 29 -69 29q-36 0 -63 -23.5t-27 -65.5t27 -64.5t63 -22.5q44 0 70 28l116 -162q-60 -48 -151 -57v-57h-109v59z" />
    <glyph glyph-name="sterling" unicode="&#xa3;" horiz-adv-x="700" 
d="M553 495q-28 31 -72 31q-80 0 -80 -75v-9h145v-162h-145v-87h251v-193h-572v193h92v87h-92v162h92v28q0 102 74.5 180t208.5 78q147 0 232 -81z" />
    <glyph glyph-name="currency" unicode="&#xa4;" horiz-adv-x="1000" 
d="M756 454q37 -63 37 -145q0 -84 -39 -150l92 -92l-107 -108l-97 97q-62 -32 -140 -32q-71 0 -142 34l-99 -99l-107 108l95 95q-36 63 -36 147q0 79 34 142l-93 93l108 107l96 -95q66 34 144 34q77 0 143 -32l93 93l108 -107zM502 410q-41 0 -68.5 -30t-27.5 -71
q0 -43 27 -73t69 -30t69 30t27 73q0 41 -28 71t-68 30z" />
    <glyph glyph-name="yen" unicode="&#xa5;" horiz-adv-x="700" 
d="M544 458h100v-140h-184v-47h184v-140h-184v-131h-216v131h-181v140h181v47h-181v140h100l-158 250h253l98 -217l98 217h247z" />
    <glyph glyph-name="brokenbar" unicode="&#xa6;" horiz-adv-x="269" 
d="M49 718h172v-406h-172v406zM49 200h172v-406h-172v406z" />
    <glyph glyph-name="section" unicode="&#xa7;" horiz-adv-x="650" 
d="M539 158q45 -30 45 -102q0 -58 -26.5 -101t-70 -65.5t-90 -33t-96.5 -10.5q-86 0 -166.5 35.5t-124.5 97.5l157 130q27 -40 67.5 -59t77.5 -19q15 0 26.5 6t11.5 15q0 15 -18.5 25t-82.5 28q-112 33 -161 72t-49 115q0 82 71 128q-41 38 -41 110q0 52 25.5 91.5t66 61.5
t83.5 33t86 11q96 0 166 -34t105 -96l-166 -110q-15 25 -41 40.5t-50 15.5q-43 0 -43 -23q0 -12 18 -20.5t80 -27.5q105 -32 155 -74.5t50 -119.5q0 -80 -65 -120zM332 316l-82 29q-16 -9 -16 -28q0 -18 15 -27.5t52 -22.5q7 -3 11 -4l81 -28q13 8 13 26q0 17 -18.5 29.5
t-55.5 25.5z" />
    <glyph glyph-name="dieresis" unicode="&#xa8;" 
d="M205 678q0 40 30 69.5t71 29.5q40 0 69.5 -29.5t29.5 -69.5q0 -41 -29.5 -69.5t-69.5 -28.5q-42 0 -71.5 28.5t-29.5 69.5zM-44 678q0 40 30 69.5t71 29.5q40 0 69.5 -29.5t29.5 -69.5q0 -41 -29.5 -69.5t-69.5 -28.5q-42 0 -71.5 28.5t-29.5 69.5z" />
    <glyph glyph-name="copyright" unicode="&#xa9;" horiz-adv-x="800" 
d="M596 515l-98 -80q-26 36 -81 36q-45 0 -71.5 -35t-26.5 -82t27.5 -82.5t76.5 -35.5q53 0 80 33l92 -88q-67 -67 -174 -67q-106 0 -177 64.5t-71 174.5q0 107 72 172.5t176 65.5q52 0 99.5 -20t75.5 -56zM20 353q0 157 111.5 267t269.5 110q157 0 268 -110t111 -267
q0 -156 -111 -265.5t-268 -109.5q-158 0 -269.5 109.5t-111.5 265.5zM80 353q0 -132 92.5 -225.5t224.5 -93.5t227.5 93.5t95.5 225.5q0 133 -93.5 227t-225.5 94q-133 0 -227 -94t-94 -227z" />
    <glyph glyph-name="ordfeminine" unicode="&#xaa;" horiz-adv-x="390" 
d="M229 547h-8q-64 0 -64 -27q0 -10 9.5 -15t20.5 -5q19 0 30.5 10.5t11.5 27.5v9zM221 610v1q0 25 -35 25t-66 -24l-69 61q60 52 148 52q83 0 116.5 -39t33.5 -106v-149h-124v23h-1q-20 -30 -76 -30q-43 0 -76 22t-33 69q0 95 182 95z" />
    <glyph glyph-name="guillemotleft" unicode="&#xab;" horiz-adv-x="580" 
d="M422 26l-175 248l175 248l130 -83l-115 -165l115 -165zM193 26l-176 248l176 248l129 -83l-115 -165l115 -165z" />
    <glyph glyph-name="logicalnot" unicode="&#xac;" horiz-adv-x="666" 
d="M447 143v171h-410v144h568v-315h-158z" />
    <glyph glyph-name="uni00AD" unicode="&#xad;" horiz-adv-x="336" 
d="M30 199v172h276v-172h-276z" />
    <glyph glyph-name="registered" unicode="&#xae;" horiz-adv-x="600" 
d="M279 521h26q12 0 20 6.5t8 16.5q0 8 -8.5 13t-19.5 5h-26v-41zM439 365h-100l-44 94h-16v-94h-88v266h114q50 0 85.5 -20t35.5 -66q0 -55 -48 -74zM72 492q0 94 67 160.5t162 66.5q94 0 160.5 -66.5t66.5 -160.5t-66.5 -159.5t-160.5 -65.5q-95 0 -162 65.5t-67 159.5z
M108 492q0 -79 56.5 -135.5t136.5 -56.5q79 0 135 56.5t56 135.5q0 80 -56 136t-135 56q-80 0 -136.5 -56t-56.5 -136z" />
    <glyph glyph-name="macron" unicode="&#xaf;" 
d="M0 611v96h360v-96h-360z" />
    <glyph glyph-name="degree" unicode="&#xb0;" horiz-adv-x="440" 
d="M399 554q0 -77 -51 -128t-128 -51t-128 51t-51 128t51 128t128 51t128 -51t51 -128zM317 554q0 40 -28.5 68.5t-68.5 28.5t-68.5 -28.5t-28.5 -68.5t28.5 -68.5t68.5 -28.5t68.5 28.5t28.5 68.5z" />
    <glyph glyph-name="plusminus" unicode="&#xb1;" horiz-adv-x="666" 
d="M251 485v121h164v-121h220v-152h-220v-121h-164v121h-220v152h220zM31 30v152h604v-152h-604z" />
    <glyph glyph-name="twosuperior" unicode="&#xb2;" horiz-adv-x="450" 
d="M415 439h-362v117l182 147q19 17 19 33q0 30 -32 30q-18 0 -30.5 -14.5t-13.5 -38.5l-143 16q8 83 64.5 125.5t134.5 42.5q74 0 127 -36t53 -109q0 -49 -22.5 -80t-64.5 -61l-66 -46h154v-126z" />
    <glyph glyph-name="threesuperior" unicode="&#xb3;" horiz-adv-x="450" 
d="M349 674v-1q33 -11 50 -38t17 -61q0 -72 -53.5 -109t-126.5 -37q-72 0 -127.5 34t-71.5 103l136 33q4 -19 18 -32t35 -13q40 0 40 30q0 33 -63 33h-42v103h47q51 0 51 31q0 11 -9 19t-26 8q-15 0 -28 -11t-16 -29l-134 31q19 67 73 98t120 31t117.5 -31.5t51.5 -93.5
q0 -69 -59 -98z" />
    <glyph glyph-name="acute" unicode="&#xb4;" 
d="M242 584h-169l111 144h212z" />
    <glyph glyph-name="mu" unicode="&#xb5;" horiz-adv-x="746" 
d="M716 166v-162q-38 -18 -111 -18q-99 0 -135 72h-2q-13 -26 -40 -49t-67 -23q-38 0 -59 18h-2v-228h-236v750h236v-277q0 -73 48 -73q29 0 41.5 22.5t12.5 50.5v277h236v-313q0 -31 11 -42t36 -11q11 0 31 6z" />
    <glyph glyph-name="paragraph" unicode="&#xb6;" horiz-adv-x="646" 
d="M432 -133v699h-52v-699h-154v463q-100 5 -156.5 53t-56.5 132q0 58 21 97.5t60 59.5t81.5 28t97.5 8h314v-841h-155z" />
    <glyph glyph-name="periodcentered" unicode="&#xb7;" 
d="M48 289q0 53 39.5 91.5t94.5 38.5q53 0 91.5 -38.5t38.5 -91.5q0 -54 -38.5 -91.5t-91.5 -37.5q-55 0 -94.5 37.5t-39.5 91.5z" />
    <glyph glyph-name="cedilla" unicode="&#xb8;" 
d="M159 -240q-76 0 -133 23l34 78q37 -16 85 -16q40 0 40 21q0 18 -37 18q-23 0 -41 -6l-44 34l75 88h117l-50 -53q5 1 16 1q41 0 71.5 -19.5t30.5 -65.5q0 -38 -28.5 -62.5t-63 -32.5t-72.5 -8z" />
    <glyph glyph-name="onesuperior" unicode="&#xb9;" horiz-adv-x="450" 
d="M198 439v288l-75 -52l-71 110l158 100h139v-446h-151z" />
    <glyph glyph-name="ordmasculine" unicode="&#xba;" horiz-adv-x="390" 
d="M357 576q0 -71 -47 -112.5t-115 -41.5q-66 0 -113 41.5t-47 112.5q0 69 47 109.5t113 40.5q68 0 115 -40.5t47 -109.5zM195 622q-20 0 -32.5 -13.5t-12.5 -32.5q0 -20 13 -34t33 -14t33 14t13 34q0 18 -13.5 32t-33.5 14z" />
    <glyph glyph-name="guillemotright" unicode="&#xbb;" horiz-adv-x="580" 
d="M388 26l-130 83l115 165l-115 165l130 83l175 -248zM158 26l-130 83l115 165l-115 165l130 83l175 -248z" />
    <glyph glyph-name="onequarter" unicode="&#xbc;" horiz-adv-x="1000" 
d="M907 79v-79h-136v79h-215v122l169 245h182v-250h60v-117h-60zM773 309h-2l-75 -113h77v113zM198 262v288l-75 -52l-71 110l158 100h139v-446h-151zM386 -27l-99 40l346 726l99 -45z" />
    <glyph glyph-name="onehalf" unicode="&#xbd;" horiz-adv-x="1000" 
d="M198 262v288l-75 -52l-71 110l158 100h139v-446h-151zM614 117l182 147q19 17 19 33q0 30 -32 30q-18 0 -30.5 -14.5t-13.5 -38.5l-143 16q8 83 65 125.5t134 42.5q74 0 127 -36t53 -109q0 -49 -22.5 -80t-64.5 -61l-66 -46h154v-126h-362v117zM386 -27l-99 40l346 726
l99 -45z" />
    <glyph glyph-name="threequarters" unicode="&#xbe;" horiz-adv-x="1000" 
d="M907 79v-79h-136v79h-215v122l169 245h182v-250h60v-117h-60zM773 309h-2l-75 -113h77v113zM349 496q32 -10 49.5 -37.5t17.5 -61.5q0 -72 -53.5 -109t-126.5 -37q-72 0 -127.5 34t-71.5 103l136 33q4 -18 18 -31.5t33 -13.5q42 0 42 30q0 33 -63 33h-42v103h47
q51 0 51 31q0 11 -9 19t-26 8q-15 0 -28 -11t-16 -29l-134 31q19 67 73 98t120 31t117.5 -31.5t51.5 -93.5q0 -74 -59 -99zM386 -27l-99 40l346 726l99 -45z" />
    <glyph glyph-name="questiondown" unicode="&#xbf;" horiz-adv-x="587" 
d="M278 546q52 0 88 -35t36 -86q0 -50 -36 -85.5t-88 -35.5t-88 35.5t-36 85.5q0 51 36 86t88 35zM136 202q36 22 36 50v26h213v-37q0 -54 -24 -88t-74 -69l-17 -12q-33 -24 -33 -44q0 -38 42 -38q31 0 46 22t15 56l215 -28q-12 -121 -90 -179.5t-190 -58.5q-50 0 -95 11
t-86 34.5t-65 65.5t-24 99q0 65 32 107.5t99 82.5z" />
    <glyph glyph-name="Agrave" unicode="&#xc0;" horiz-adv-x="776" 
d="M-16 0l279 708h253l276 -708h-259l-37 104h-225l-35 -104h-252zM443 286l-57 175l-58 -175h115zM331 764l-154 144h212l111 -144h-169z" />
    <glyph glyph-name="Aacute" unicode="&#xc1;" horiz-adv-x="776" 
d="M-16 0l279 708h253l276 -708h-259l-37 104h-225l-35 -104h-252zM443 286l-57 175l-58 -175h115zM447 764h-169l111 144h212z" />
    <glyph glyph-name="Acircumflex" unicode="&#xc2;" horiz-adv-x="776" 
d="M-16 0l279 708h253l276 -708h-259l-37 104h-225l-35 -104h-252zM443 286l-57 175l-58 -175h115zM456 764l-67 68l-67 -68h-152l137 144h169l134 -144h-154z" />
    <glyph glyph-name="Atilde" unicode="&#xc3;" horiz-adv-x="776" 
d="M-16 0l279 708h253l276 -708h-259l-37 104h-225l-35 -104h-252zM443 286l-57 175l-58 -175h115zM578 900q-3 -61 -33.5 -100t-80.5 -39q-38 0 -81 23q-41 22 -63 22q-30 0 -37 -36h-80q3 59 33 97.5t80 38.5q37 0 83 -24q43 -22 65 -22q28 0 35 40h79z" />
    <glyph glyph-name="Adieresis" unicode="&#xc4;" horiz-adv-x="776" 
d="M-16 0l279 708h253l276 -708h-259l-37 104h-225l-35 -104h-252zM443 286l-57 175l-58 -175h115zM415 858q0 40 30 69.5t71 29.5q40 0 69.5 -29.5t29.5 -69.5q0 -41 -29.5 -69.5t-69.5 -28.5q-42 0 -71.5 28.5t-29.5 69.5zM166 858q0 40 30 69.5t71 29.5q40 0 69.5 -29.5
t29.5 -69.5q0 -41 -29.5 -69.5t-69.5 -28.5q-42 0 -71.5 28.5t-29.5 69.5z" />
    <glyph glyph-name="Aring" unicode="&#xc5;" horiz-adv-x="776" 
d="M-16 0l279 708h253l276 -708h-259l-37 104h-225l-35 -104h-252zM443 286l-57 175l-58 -175h115zM504 857q0 -48 -34 -81t-81 -33t-81 33t-34 81t34 81t81 33t81 -33t34 -81zM449 857q0 25 -17.5 42t-42.5 17t-42.5 -17t-17.5 -42t17.5 -42t42.5 -17t42.5 17t17.5 42z" />
    <glyph glyph-name="AE" unicode="&#xc6;" horiz-adv-x="1014" 
d="M492 0v104h-177l-49 -104h-266l354 708h610v-198h-253v-61h237v-185h-237v-66h270v-198h-489zM488 510l-102 -224h106v224h-4z" />
    <glyph glyph-name="Ccedilla" unicode="&#xc7;" horiz-adv-x="696" 
d="M389 -240q-75 0 -133 23l34 78q37 -16 85 -16q40 0 40 21q0 18 -37 18q-23 0 -41 -6l-44 34l62 73q-140 20 -230.5 120.5t-90.5 248.5q0 167 110.5 270.5t274.5 103.5q81 0 154.5 -26.5t122.5 -71.5l-146 -176q-39 53 -117 53q-61 0 -102 -42t-41 -111q0 -67 41.5 -109
t101.5 -42q77 0 117 57l146 -175q-87 -87 -228 -102l-33 -36q5 1 16 1q41 0 71.5 -19.5t30.5 -65.5q0 -38 -28.5 -62.5t-63 -32.5t-72.5 -8z" />
    <glyph glyph-name="Egrave" unicode="&#xc8;" horiz-adv-x="603" 
d="M66 0v708h487v-198h-263v-61h247v-185h-247v-66h280v-198h-504zM262 764l-154 144h212l111 -144h-169z" />
    <glyph glyph-name="Eacute" unicode="&#xc9;" horiz-adv-x="603" 
d="M66 0v708h487v-198h-263v-61h247v-185h-247v-66h280v-198h-504zM361 764h-169l111 144h212z" />
    <glyph glyph-name="Ecircumflex" unicode="&#xca;" horiz-adv-x="603" 
d="M66 0v708h487v-198h-263v-61h247v-185h-247v-66h280v-198h-504zM378 764l-67 68l-67 -68h-152l137 144h169l134 -144h-154z" />
    <glyph glyph-name="Edieresis" unicode="&#xcb;" horiz-adv-x="603" 
d="M66 0v708h487v-198h-263v-61h247v-185h-247v-66h280v-198h-504zM336 858q0 40 30 69.5t71 29.5q40 0 69.5 -29.5t29.5 -69.5q0 -41 -29.5 -69.5t-69.5 -28.5q-42 0 -71.5 28.5t-29.5 69.5zM87 858q0 40 30 69.5t71 29.5q40 0 69.5 -29.5t29.5 -69.5q0 -41 -29.5 -69.5
t-69.5 -28.5q-42 0 -71.5 28.5t-29.5 69.5z" />
    <glyph glyph-name="Igrave" unicode="&#xcc;" horiz-adv-x="372" 
d="M66 0v708h240v-708h-240zM136 764l-154 144h212l111 -144h-169z" />
    <glyph glyph-name="Iacute" unicode="&#xcd;" horiz-adv-x="372" 
d="M66 0v708h240v-708h-240zM235 764h-169l111 144h212z" />
    <glyph glyph-name="Icircumflex" unicode="&#xce;" horiz-adv-x="372" 
d="M66 0v708h240v-708h-240zM254 764l-67 68l-67 -68h-152l137 144h169l134 -144h-154z" />
    <glyph glyph-name="Idieresis" unicode="&#xcf;" horiz-adv-x="372" 
d="M66 0v708h240v-708h-240zM213 858q0 40 30 69.5t71 29.5q40 0 69.5 -29.5t29.5 -69.5q0 -41 -29.5 -69.5t-69.5 -28.5q-42 0 -71.5 28.5t-29.5 69.5zM-36 858q0 40 30 69.5t71 29.5q40 0 69.5 -29.5t29.5 -69.5q0 -41 -29.5 -69.5t-69.5 -28.5q-42 0 -71.5 28.5
t-29.5 69.5z" />
    <glyph glyph-name="Eth" unicode="&#xd0;" horiz-adv-x="788" 
d="M66 286h-54v142h54v280h264q70 0 130 -10t115.5 -35.5t94 -64t61.5 -100t23 -140.5q0 -90 -33 -160.5t-90.5 -112.5t-128.5 -63.5t-152 -21.5h-284v286zM295 428h128v-142h-128v-82h44q174 0 174 156q0 68 -44.5 107t-120.5 39h-53v-78z" />
    <glyph glyph-name="Ntilde" unicode="&#xd1;" horiz-adv-x="791" 
d="M66 0v708h237l202 -359h4l-10 359h226v-708h-243l-196 338h-4l10 -338h-226zM587 900q-3 -61 -33.5 -100t-80.5 -39q-38 0 -81 23q-41 22 -63 22q-30 0 -37 -36h-80q3 59 33 97.5t80 38.5q37 0 83 -24q43 -22 65 -22q28 0 35 40h79z" />
    <glyph glyph-name="Ograve" unicode="&#xd2;" horiz-adv-x="855" 
d="M34 358q0 167 111 268.5t282 101.5t282.5 -101.5t111.5 -268.5q0 -168 -112 -273t-282 -105t-281.5 105t-111.5 273zM287 358q0 -69 39.5 -113.5t100.5 -44.5q60 0 100 44.5t40 113.5q0 68 -39.5 110t-100.5 42t-100.5 -42t-39.5 -110zM369 764l-154 144h212l111 -144
h-169z" />
    <glyph glyph-name="Oacute" unicode="&#xd3;" horiz-adv-x="855" 
d="M34 358q0 167 111 268.5t282 101.5t282.5 -101.5t111.5 -268.5q0 -168 -112 -273t-282 -105t-281.5 105t-111.5 273zM287 358q0 -69 39.5 -113.5t100.5 -44.5q60 0 100 44.5t40 113.5q0 68 -39.5 110t-100.5 42t-100.5 -42t-39.5 -110zM488 764h-169l111 144h212z" />
    <glyph glyph-name="Ocircumflex" unicode="&#xd4;" horiz-adv-x="855" 
d="M34 358q0 167 111 268.5t282 101.5t282.5 -101.5t111.5 -268.5q0 -168 -112 -273t-282 -105t-281.5 105t-111.5 273zM287 358q0 -69 39.5 -113.5t100.5 -44.5q60 0 100 44.5t40 113.5q0 68 -39.5 110t-100.5 42t-100.5 -42t-39.5 -110zM493 764l-67 68l-67 -68h-152
l137 144h169l134 -144h-154z" />
    <glyph glyph-name="Otilde" unicode="&#xd5;" horiz-adv-x="855" 
d="M34 358q0 167 111 268.5t282 101.5t282.5 -101.5t111.5 -268.5q0 -168 -112 -273t-282 -105t-281.5 105t-111.5 273zM287 358q0 -69 39.5 -113.5t100.5 -44.5q60 0 100 44.5t40 113.5q0 68 -39.5 110t-100.5 42t-100.5 -42t-39.5 -110zM615 900q-3 -61 -33.5 -100
t-80.5 -39q-38 0 -81 23q-41 22 -63 22q-30 0 -37 -36h-80q3 59 33 97.5t80 38.5q37 0 83 -24q43 -22 65 -22q28 0 35 40h79z" />
    <glyph glyph-name="Odieresis" unicode="&#xd6;" horiz-adv-x="855" 
d="M34 358q0 167 111 268.5t282 101.5t282.5 -101.5t111.5 -268.5q0 -168 -112 -273t-282 -105t-281.5 105t-111.5 273zM287 358q0 -69 39.5 -113.5t100.5 -44.5q60 0 100 44.5t40 113.5q0 68 -39.5 110t-100.5 42t-100.5 -42t-39.5 -110zM452 858q0 40 30 69.5t71 29.5
q40 0 69.5 -29.5t29.5 -69.5q0 -41 -29.5 -69.5t-69.5 -28.5q-42 0 -71.5 28.5t-29.5 69.5zM203 858q0 40 30 69.5t71 29.5q40 0 69.5 -29.5t29.5 -69.5q0 -41 -29.5 -69.5t-69.5 -28.5q-42 0 -71.5 28.5t-29.5 69.5z" />
    <glyph glyph-name="multiply" unicode="&#xd7;" horiz-adv-x="666" 
d="M164 575l171 -163l166 162l112 -104l-167 -165q29 -27 86.5 -82t86.5 -82l-114 -112q-28 28 -85 82.5t-86 82.5l-171 -165q-18 18 -56 52.5t-56 52.5l169 168l-172 162z" />
    <glyph glyph-name="Oslash" unicode="&#xd8;" horiz-adv-x="855" 
d="M427 -20q-136 0 -214 60l-93 -101l-94 80l92 100q-84 96 -84 239q0 168 111 269t283 101q116 0 210 -53l90 102l94 -81l-89 -96q88 -97 88 -242q0 -168 -112 -273t-282 -105zM427 522q-73 0 -113 -48.5t-40 -118.5q0 -39 9 -62l201 220q-22 9 -57 9zM425 191q73 0 113 48
t40 118q0 38 -10 63l-201 -220q23 -9 58 -9z" />
    <glyph glyph-name="Ugrave" unicode="&#xd9;" horiz-adv-x="775" 
d="M384 -20q-159 0 -243.5 83t-84.5 215v430h238v-404q0 -51 24.5 -79.5t69.5 -28.5t69.5 28.5t24.5 79.5v404h237v-430q0 -131 -87.5 -214.5t-247.5 -83.5zM329 764l-154 144h212l111 -144h-169z" />
    <glyph glyph-name="Uacute" unicode="&#xda;" horiz-adv-x="775" 
d="M384 -20q-159 0 -243.5 83t-84.5 215v430h238v-404q0 -51 24.5 -79.5t69.5 -28.5t69.5 28.5t24.5 79.5v404h237v-430q0 -131 -87.5 -214.5t-247.5 -83.5zM449 764h-169l111 144h212z" />
    <glyph glyph-name="Ucircumflex" unicode="&#xdb;" horiz-adv-x="775" 
d="M384 -20q-159 0 -243.5 83t-84.5 215v430h238v-404q0 -51 24.5 -79.5t69.5 -28.5t69.5 28.5t24.5 79.5v404h237v-430q0 -131 -87.5 -214.5t-247.5 -83.5zM455 764l-67 68l-67 -68h-152l137 144h169l134 -144h-154z" />
    <glyph glyph-name="Udieresis" unicode="&#xdc;" horiz-adv-x="775" 
d="M384 -20q-159 0 -243.5 83t-84.5 215v430h238v-404q0 -51 24.5 -79.5t69.5 -28.5t69.5 28.5t24.5 79.5v404h237v-430q0 -131 -87.5 -214.5t-247.5 -83.5zM414 858q0 40 30 69.5t71 29.5q40 0 69.5 -29.5t29.5 -69.5q0 -41 -29.5 -69.5t-69.5 -28.5q-42 0 -71.5 28.5
t-29.5 69.5zM165 858q0 40 30 69.5t71 29.5q40 0 69.5 -29.5t29.5 -69.5q0 -41 -29.5 -69.5t-69.5 -28.5q-42 0 -71.5 28.5t-29.5 69.5z" />
    <glyph glyph-name="Yacute" unicode="&#xdd;" horiz-adv-x="738" 
d="M481 290v-290h-238v290l-267 418h287l112 -208l107 208h280zM455 764h-169l111 144h212z" />
    <glyph glyph-name="Thorn" unicode="&#xde;" horiz-adv-x="684" 
d="M370 127h-67v-127h-237v708h237v-101h67q58 0 107 -12t91.5 -38t67 -74t24.5 -114q0 -63 -24.5 -111t-66 -76t-92 -41.5t-107.5 -13.5zM353 422h-50v-114h50q30 0 51 15t21 44q0 55 -72 55z" />
    <glyph glyph-name="germandbls" unicode="&#xdf;" horiz-adv-x="727" 
d="M557 410q62 -16 99.5 -63.5t37.5 -123.5q0 -117 -74 -178t-197 -61q-49 0 -108 14v169q30 -10 57 -10q41 0 65.5 19t24.5 58q0 81 -105 81h-34v169h33q29 0 48 15t19 43q0 24 -17 37.5t-44 13.5q-39 0 -58.5 -26t-19.5 -67v-500h-231v493q0 131 81.5 203t237.5 72
q76 0 138 -20.5t104 -68.5t42 -117q0 -58 -27.5 -96.5t-71.5 -55.5z" />
    <glyph glyph-name="agrave" unicode="&#xe0;" horiz-adv-x="591" 
d="M347 218h-13q-113 0 -113 -52q0 -20 17 -30.5t36 -10.5q33 0 53 21t20 54v18zM332 332v2q0 47 -60 47q-57 0 -111 -45l-115 114q47 45 113.5 70.5t136.5 25.5q72 0 123 -20.5t78.5 -59t39.5 -84.5t12 -105v-277h-209v42h-2q-18 -28 -54.5 -42t-74.5 -14
q-72 0 -127.5 41.5t-55.5 127.5q0 52 27 89t74.5 55t97 25.5t107.5 7.5zM240 584l-154 144h212l111 -144h-169z" />
    <glyph glyph-name="aacute" unicode="&#xe1;" horiz-adv-x="591" 
d="M347 218h-13q-113 0 -113 -52q0 -20 17 -30.5t36 -10.5q33 0 53 21t20 54v18zM332 332v2q0 47 -60 47q-57 0 -111 -45l-115 114q47 45 113.5 70.5t136.5 25.5q72 0 123 -20.5t78.5 -59t39.5 -84.5t12 -105v-277h-209v42h-2q-18 -28 -54.5 -42t-74.5 -14
q-72 0 -127.5 41.5t-55.5 127.5q0 52 27 89t74.5 55t97 25.5t107.5 7.5zM360 584h-169l111 144h212z" />
    <glyph glyph-name="acircumflex" unicode="&#xe2;" horiz-adv-x="591" 
d="M347 218h-13q-113 0 -113 -52q0 -20 17 -30.5t36 -10.5q33 0 53 21t20 54v18zM332 332v2q0 47 -60 47q-57 0 -111 -45l-115 114q47 45 113.5 70.5t136.5 25.5q72 0 123 -20.5t78.5 -59t39.5 -84.5t12 -105v-277h-209v42h-2q-18 -28 -54.5 -42t-74.5 -14
q-72 0 -127.5 41.5t-55.5 127.5q0 52 27 89t74.5 55t97 25.5t107.5 7.5zM367 584l-67 68l-67 -68h-152l137 144h169l134 -144h-154z" />
    <glyph glyph-name="atilde" unicode="&#xe3;" horiz-adv-x="591" 
d="M347 218h-13q-113 0 -113 -52q0 -20 17 -30.5t36 -10.5q33 0 53 21t20 54v18zM332 332v2q0 47 -60 47q-57 0 -111 -45l-115 114q47 45 113.5 70.5t136.5 25.5q72 0 123 -20.5t78.5 -59t39.5 -84.5t12 -105v-277h-209v42h-2q-18 -28 -54.5 -42t-74.5 -14
q-72 0 -127.5 41.5t-55.5 127.5q0 52 27 89t74.5 55t97 25.5t107.5 7.5zM489 720q-3 -61 -33.5 -100t-80.5 -39q-38 0 -81 23q-41 22 -63 22q-30 0 -37 -36h-80q3 59 33 97.5t80 38.5q37 0 83 -24q43 -22 65 -22q28 0 35 40h79z" />
    <glyph glyph-name="adieresis" unicode="&#xe4;" horiz-adv-x="591" 
d="M347 218h-13q-113 0 -113 -52q0 -20 17 -30.5t36 -10.5q33 0 53 21t20 54v18zM332 332v2q0 47 -60 47q-57 0 -111 -45l-115 114q47 45 113.5 70.5t136.5 25.5q72 0 123 -20.5t78.5 -59t39.5 -84.5t12 -105v-277h-209v42h-2q-18 -28 -54.5 -42t-74.5 -14
q-72 0 -127.5 41.5t-55.5 127.5q0 52 27 89t74.5 55t97 25.5t107.5 7.5zM326 678q0 40 30 69.5t71 29.5q40 0 69.5 -29.5t29.5 -69.5q0 -41 -29.5 -69.5t-69.5 -28.5q-42 0 -71.5 28.5t-29.5 69.5zM77 678q0 40 30 69.5t71 29.5q40 0 69.5 -29.5t29.5 -69.5
q0 -41 -29.5 -69.5t-69.5 -28.5q-42 0 -71.5 28.5t-29.5 69.5z" />
    <glyph glyph-name="aring" unicode="&#xe5;" horiz-adv-x="591" 
d="M347 218h-13q-113 0 -113 -52q0 -20 17 -30.5t36 -10.5q33 0 53 21t20 54v18zM332 332v2q0 47 -60 47q-57 0 -111 -45l-115 114q47 45 113.5 70.5t136.5 25.5q72 0 123 -20.5t78.5 -59t39.5 -84.5t12 -105v-277h-209v42h-2q-18 -28 -54.5 -42t-74.5 -14
q-72 0 -127.5 41.5t-55.5 127.5q0 52 27 89t74.5 55t97 25.5t107.5 7.5zM416 677q0 -48 -34 -81t-81 -33t-81 33t-34 81t34 81t81 33t81 -33t34 -81zM361 677q0 25 -17.5 42t-42.5 17t-42.5 -17t-17.5 -42t17.5 -42t42.5 -17t42.5 17t17.5 42z" />
    <glyph glyph-name="ae" unicode="&#xe6;" horiz-adv-x="916" 
d="M616 -20q-52 0 -103 22.5t-80 59.5q-59 -76 -204 -76q-81 0 -142 41.5t-61 127.5q0 52 27 89t74.5 55t97 25.5t107.5 7.5v2q0 47 -60 47q-58 0 -111 -45l-115 114q47 45 113.5 70.5t136.5 25.5q110 0 158 -61q66 61 157 61q123 0 200 -81.5t77 -206.5q0 -25 -2 -49h-354
q3 -27 30 -43.5t60 -16.5q57 0 86 37l164 -83q-35 -57 -102 -90t-154 -33zM345 216h-12q-109 0 -109 -50q0 -19 16.5 -29t34.5 -10q31 0 50.5 20t19.5 52v17zM530 333h159q0 28 -21 46t-55 18q-35 0 -57.5 -19.5t-25.5 -44.5z" />
    <glyph glyph-name="ccedilla" unicode="&#xe7;" horiz-adv-x="526" 
d="M283 -240q-75 0 -133 23l34 78q37 -16 85 -16q40 0 40 21q0 18 -37 18q-23 0 -41 -6l-44 34l66 78q-101 22 -161 94.5t-60 178.5q0 126 88 204.5t222 78.5q53 0 106.5 -16.5t84.5 -40.5l-115 -166q-24 29 -69 29q-36 0 -63 -23.5t-27 -65.5t27 -64.5t63 -22.5q44 0 70 28
l116 -162q-69 -55 -174 -61l-32 -34q5 1 16 1q41 0 71.5 -19.5t30.5 -65.5q0 -38 -28.5 -62.5t-63 -32.5t-72.5 -8z" />
    <glyph glyph-name="egrave" unicode="&#xe8;" horiz-adv-x="630" 
d="M244 333h159q0 28 -21 46t-55 18q-35 0 -57.5 -19.5t-25.5 -44.5zM602 258q0 -25 -2 -49h-354q3 -27 30 -43.5t60 -16.5q57 0 86 37l164 -83q-35 -57 -102 -90t-154 -33q-79 0 -145.5 31t-109.5 97t-43 155q0 127 84 205t209 78q123 0 200 -81.5t77 -206.5zM268 584
l-154 144h212l111 -144h-169z" />
    <glyph glyph-name="eacute" unicode="&#xe9;" horiz-adv-x="630" 
d="M244 333h159q0 28 -21 46t-55 18q-35 0 -57.5 -19.5t-25.5 -44.5zM602 258q0 -25 -2 -49h-354q3 -27 30 -43.5t60 -16.5q57 0 86 37l164 -83q-35 -57 -102 -90t-154 -33q-79 0 -145.5 31t-109.5 97t-43 155q0 127 84 205t209 78q123 0 200 -81.5t77 -206.5zM388 584h-169
l111 144h212z" />
    <glyph glyph-name="ecircumflex" unicode="&#xea;" horiz-adv-x="630" 
d="M244 333h159q0 28 -21 46t-55 18q-35 0 -57.5 -19.5t-25.5 -44.5zM602 258q0 -25 -2 -49h-354q3 -27 30 -43.5t60 -16.5q57 0 86 37l164 -83q-35 -57 -102 -90t-154 -33q-79 0 -145.5 31t-109.5 97t-43 155q0 127 84 205t209 78q123 0 200 -81.5t77 -206.5zM399 584
l-67 68l-67 -68h-152l137 144h169l134 -144h-154z" />
    <glyph glyph-name="edieresis" unicode="&#xeb;" horiz-adv-x="630" 
d="M244 333h159q0 28 -21 46t-55 18q-35 0 -57.5 -19.5t-25.5 -44.5zM602 258q0 -25 -2 -49h-354q3 -27 30 -43.5t60 -16.5q57 0 86 37l164 -83q-35 -57 -102 -90t-154 -33q-79 0 -145.5 31t-109.5 97t-43 155q0 127 84 205t209 78q123 0 200 -81.5t77 -206.5zM355 678
q0 40 30 69.5t71 29.5q40 0 69.5 -29.5t29.5 -69.5q0 -41 -29.5 -69.5t-69.5 -28.5q-42 0 -71.5 28.5t-29.5 69.5zM106 678q0 40 30 69.5t71 29.5q40 0 69.5 -29.5t29.5 -69.5q0 -41 -29.5 -69.5t-69.5 -28.5q-42 0 -71.5 28.5t-29.5 69.5z" />
    <glyph glyph-name="igrave" unicode="&#xec;" horiz-adv-x="339" 
d="M54 0v526h231v-526h-231zM114 584l-154 144h212l111 -144h-169z" />
    <glyph glyph-name="iacute" unicode="&#xed;" horiz-adv-x="339" 
d="M54 0v526h231v-526h-231zM231 584h-169l111 144h212z" />
    <glyph glyph-name="icircumflex" unicode="&#xee;" horiz-adv-x="339" 
d="M54 0v526h231v-526h-231zM239 584l-67 68l-67 -68h-152l137 144h169l134 -144h-154z" />
    <glyph glyph-name="idieresis" unicode="&#xef;" horiz-adv-x="339" 
d="M54 0v526h231v-526h-231zM197 678q0 40 30 69.5t71 29.5q40 0 69.5 -29.5t29.5 -69.5q0 -41 -29.5 -69.5t-69.5 -28.5q-42 0 -71.5 28.5t-29.5 69.5zM-52 678q0 40 30 69.5t71 29.5q40 0 69.5 -29.5t29.5 -69.5q0 -41 -29.5 -69.5t-69.5 -28.5q-42 0 -71.5 28.5
t-29.5 69.5z" />
    <glyph glyph-name="eth" unicode="&#xf0;" horiz-adv-x="664" 
d="M331 352q-37 0 -61 -26t-24 -61q0 -37 24.5 -63t61.5 -26t61.5 26t24.5 63q0 35 -25 61t-62 26zM349 531l2 1q-23 23 -55 49l-107 -43l-110 89l107 43q-26 21 -70 49l176 94q47 -33 85 -68l112 45l121 -94l-127 -49q74 -78 111.5 -161.5t37.5 -188.5q0 -154 -86.5 -235.5
t-214.5 -81.5q-125 0 -212 77t-87 208q0 125 79.5 197.5t201.5 72.5q15 0 36 -4z" />
    <glyph glyph-name="ntilde" unicode="&#xf1;" horiz-adv-x="666" 
d="M53 0v526h225v-58h2q21 31 61.5 51.5t88.5 20.5q53 0 91.5 -19t58.5 -52.5t29 -70t9 -78.5v-320h-232v280q0 72 -50 72q-23 0 -37.5 -19t-14.5 -53v-280h-231zM519 720q-3 -61 -33.5 -100t-80.5 -39q-38 0 -81 23q-41 22 -63 22q-30 0 -37 -36h-80q3 59 33 97.5t80 38.5
q37 0 83 -24q43 -22 65 -22q28 0 35 40h79z" />
    <glyph glyph-name="ograve" unicode="&#xf2;" horiz-adv-x="664" 
d="M632 265q0 -131 -88 -208t-213 -77t-212 77t-87 208q0 130 87 205.5t212 75.5t213 -75.5t88 -205.5zM331 352q-37 0 -61 -26t-24 -61q0 -37 24.5 -63t61.5 -26t61.5 26t24.5 63q0 35 -25 61t-62 26zM272 584l-154 144h212l111 -144h-169z" />
    <glyph glyph-name="oacute" unicode="&#xf3;" horiz-adv-x="664" 
d="M632 265q0 -131 -88 -208t-213 -77t-212 77t-87 208q0 130 87 205.5t212 75.5t213 -75.5t88 -205.5zM331 352q-37 0 -61 -26t-24 -61q0 -37 24.5 -63t61.5 -26t61.5 26t24.5 63q0 35 -25 61t-62 26zM393 584h-169l111 144h212z" />
    <glyph glyph-name="ocircumflex" unicode="&#xf4;" horiz-adv-x="664" 
d="M632 265q0 -131 -88 -208t-213 -77t-212 77t-87 208q0 130 87 205.5t212 75.5t213 -75.5t88 -205.5zM331 352q-37 0 -61 -26t-24 -61q0 -37 24.5 -63t61.5 -26t61.5 26t24.5 63q0 35 -25 61t-62 26zM399 584l-67 68l-67 -68h-152l137 144h169l134 -144h-154z" />
    <glyph glyph-name="otilde" unicode="&#xf5;" horiz-adv-x="664" 
d="M632 265q0 -131 -88 -208t-213 -77t-212 77t-87 208q0 130 87 205.5t212 75.5t213 -75.5t88 -205.5zM331 352q-37 0 -61 -26t-24 -61q0 -37 24.5 -63t61.5 -26t61.5 26t24.5 63q0 35 -25 61t-62 26zM521 720q-3 -61 -33.5 -100t-80.5 -39q-38 0 -81 23q-41 22 -63 22
q-30 0 -37 -36h-80q3 59 33 97.5t80 38.5q37 0 83 -24q43 -22 65 -22q28 0 35 40h79z" />
    <glyph glyph-name="odieresis" unicode="&#xf6;" horiz-adv-x="664" 
d="M632 265q0 -131 -88 -208t-213 -77t-212 77t-87 208q0 130 87 205.5t212 75.5t213 -75.5t88 -205.5zM331 352q-37 0 -61 -26t-24 -61q0 -37 24.5 -63t61.5 -26t61.5 26t24.5 63q0 35 -25 61t-62 26zM357 678q0 40 30 69.5t71 29.5q40 0 69.5 -29.5t29.5 -69.5
q0 -41 -29.5 -69.5t-69.5 -28.5q-42 0 -71.5 28.5t-29.5 69.5zM108 678q0 40 30 69.5t71 29.5q40 0 69.5 -29.5t29.5 -69.5q0 -41 -29.5 -69.5t-69.5 -28.5q-42 0 -71.5 28.5t-29.5 69.5z" />
    <glyph glyph-name="divide" unicode="&#xf7;" horiz-adv-x="666" 
d="M235 495q0 38 29.5 65.5t69.5 27.5t68.5 -27.5t28.5 -65.5q0 -40 -28.5 -67.5t-68.5 -27.5t-69.5 28t-29.5 67zM235 111q0 38 29.5 65.5t69.5 27.5t68.5 -27.5t28.5 -65.5t-28.5 -66.5t-68.5 -28.5t-69.5 28.5t-29.5 66.5zM587 230h-508v147h508v-147z" />
    <glyph glyph-name="oslash" unicode="&#xf8;" horiz-adv-x="664" 
d="M649 490l-69 -68q52 -58 52 -157q0 -127 -87.5 -206t-213.5 -79q-91 0 -155 43l-80 -80l-86 84l76 75q-54 62 -54 162q0 127 86 204.5t213 77.5q95 0 158 -43l73 71zM334 170q40 0 64 25t24 64q0 13 -3 21l-107 -107q6 -3 22 -3zM324 366q-40 0 -64 -25t-24 -65
q0 -12 2 -20l107 108q-6 2 -21 2z" />
    <glyph glyph-name="ugrave" unicode="&#xf9;" horiz-adv-x="663" 
d="M610 526v-526h-225v58h-2q-21 -31 -61.5 -51.5t-88.5 -20.5q-53 0 -91.5 19t-58.5 52.5t-29 70t-9 78.5v320h232v-278q0 -72 50 -72q23 0 37.5 19t14.5 53v278h231zM263 584l-154 144h212l111 -144h-169z" />
    <glyph glyph-name="uacute" unicode="&#xfa;" horiz-adv-x="663" 
d="M610 526v-526h-225v58h-2q-21 -31 -61.5 -51.5t-88.5 -20.5q-53 0 -91.5 19t-58.5 52.5t-29 70t-9 78.5v320h232v-278q0 -72 50 -72q23 0 37.5 19t14.5 53v278h231zM401 584h-169l111 144h212z" />
    <glyph glyph-name="ucircumflex" unicode="&#xfb;" horiz-adv-x="663" 
d="M610 526v-526h-225v58h-2q-21 -31 -61.5 -51.5t-88.5 -20.5q-53 0 -91.5 19t-58.5 52.5t-29 70t-9 78.5v320h232v-278q0 -72 50 -72q23 0 37.5 19t14.5 53v278h231zM394 584l-67 68l-67 -68h-152l137 144h169l134 -144h-154z" />
    <glyph glyph-name="udieresis" unicode="&#xfc;" horiz-adv-x="663" 
d="M610 526v-526h-225v58h-2q-21 -31 -61.5 -51.5t-88.5 -20.5q-53 0 -91.5 19t-58.5 52.5t-29 70t-9 78.5v320h232v-278q0 -72 50 -72q23 0 37.5 19t14.5 53v278h231zM353 678q0 40 30 69.5t71 29.5q40 0 69.5 -29.5t29.5 -69.5q0 -41 -29.5 -69.5t-69.5 -28.5
q-42 0 -71.5 28.5t-29.5 69.5zM104 678q0 40 30 69.5t71 29.5q40 0 69.5 -29.5t29.5 -69.5q0 -41 -29.5 -69.5t-69.5 -28.5q-42 0 -71.5 28.5t-29.5 69.5z" />
    <glyph glyph-name="yacute" unicode="&#xfd;" horiz-adv-x="638" 
d="M201 9l4 11l-213 506h256l78 -277h4l69 277h247l-216 -558q-41 -105 -103.5 -156.5t-172.5 -51.5q-69 0 -131 16l29 190q34 -12 65 -12q63 0 84 55zM407 584h-169l111 144h212z" />
    <glyph glyph-name="thorn" unicode="&#xfe;" horiz-adv-x="694" 
d="M422 540q111 0 175.5 -82.5t64.5 -192.5q0 -112 -64 -195.5t-175 -83.5q-40 0 -77.5 14.5t-61.5 40.5h-2v-281h-229v996h229v-271h2q24 26 61.5 40.5t76.5 14.5zM448 265q0 36 -23 61.5t-63 25.5q-39 0 -64.5 -25.5t-25.5 -61.5q0 -38 25 -63.5t65 -25.5t63 25t23 64z
" />
    <glyph glyph-name="ydieresis" unicode="&#xff;" horiz-adv-x="638" 
d="M201 9l4 11l-213 506h256l78 -277h4l69 277h247l-216 -558q-41 -105 -103.5 -156.5t-172.5 -51.5q-69 0 -131 16l29 190q34 -12 65 -12q63 0 84 55zM352 678q0 40 30 69.5t71 29.5q40 0 69.5 -29.5t29.5 -69.5q0 -41 -29.5 -69.5t-69.5 -28.5q-42 0 -71.5 28.5
t-29.5 69.5zM103 678q0 40 30 69.5t71 29.5q40 0 69.5 -29.5t29.5 -69.5q0 -41 -29.5 -69.5t-69.5 -28.5q-42 0 -71.5 28.5t-29.5 69.5z" />
    <glyph glyph-name="Amacron" unicode="&#x100;" horiz-adv-x="776" 
d="M-16 0l279 708h253l276 -708h-259l-37 104h-225l-35 -104h-252zM443 286l-57 175l-58 -175h115zM206 791v96h360v-96h-360z" />
    <glyph glyph-name="amacron" unicode="&#x101;" horiz-adv-x="591" 
d="M347 218h-13q-113 0 -113 -52q0 -20 17 -30.5t36 -10.5q33 0 53 21t20 54v18zM332 332v2q0 47 -60 47q-57 0 -111 -45l-115 114q47 45 113.5 70.5t136.5 25.5q72 0 123 -20.5t78.5 -59t39.5 -84.5t12 -105v-277h-209v42h-2q-18 -28 -54.5 -42t-74.5 -14
q-72 0 -127.5 41.5t-55.5 127.5q0 52 27 89t74.5 55t97 25.5t107.5 7.5zM123 611v96h360v-96h-360z" />
    <glyph glyph-name="Abreve" unicode="&#x102;" horiz-adv-x="776" 
d="M-16 0l279 708h253l276 -708h-259l-37 104h-225l-35 -104h-252zM443 286l-57 175l-58 -175h115zM385 764q-170 0 -180 144h110q4 -39 70 -39t70 39h110q-10 -144 -180 -144z" />
    <glyph glyph-name="abreve" unicode="&#x103;" horiz-adv-x="591" 
d="M347 218h-13q-113 0 -113 -52q0 -20 17 -30.5t36 -10.5q33 0 53 21t20 54v18zM332 332v2q0 47 -60 47q-57 0 -111 -45l-115 114q47 45 113.5 70.5t136.5 25.5q72 0 123 -20.5t78.5 -59t39.5 -84.5t12 -105v-277h-209v42h-2q-18 -28 -54.5 -42t-74.5 -14
q-72 0 -127.5 41.5t-55.5 127.5q0 52 27 89t74.5 55t97 25.5t107.5 7.5zM305 584q-170 0 -180 144h110q4 -39 70 -39t70 39h110q-10 -144 -180 -144z" />
    <glyph glyph-name="Aogonek" unicode="&#x104;" horiz-adv-x="776" 
d="M541 -240q-50 0 -88.5 21.5t-38.5 72.5q0 43 32.5 77t86.5 69l-37 104h-225l-35 -104h-252l279 708h253l276 -708h-122q-64 -45 -88.5 -69.5t-24.5 -42.5q0 -20 23 -20q26 0 56 18l44 -83q-66 -43 -139 -43zM443 286l-57 175l-58 -175h115z" />
    <glyph glyph-name="aogonek" unicode="&#x105;" horiz-adv-x="591" 
d="M347 -240q-50 0 -88.5 21.5t-38.5 72.5q0 43 32.5 77t86.5 69h1v42h-2q-18 -28 -54.5 -42t-74.5 -14q-72 0 -127.5 41.5t-55.5 127.5q0 52 27 89t74.5 55t97 25.5t107.5 7.5v2q0 47 -60 47q-57 0 -111 -45l-115 114q47 45 113.5 70.5t136.5 25.5q72 0 123 -20.5t78.5 -59
t39.5 -84.5t12 -105v-277h-73q-64 -45 -88.5 -69.5t-24.5 -42.5q0 -20 23 -20q26 0 56 18l44 -83q-66 -43 -139 -43zM347 218h-13q-113 0 -113 -52q0 -20 17 -30.5t36 -10.5q33 0 53 21t20 54v18z" />
    <glyph glyph-name="Cacute" unicode="&#x106;" horiz-adv-x="696" 
d="M34 354q0 167 110.5 270.5t274.5 103.5q81 0 154.5 -26.5t122.5 -71.5l-146 -176q-39 53 -117 53q-61 0 -102 -42t-41 -111q0 -67 41.5 -109t101.5 -42q77 0 117 57l146 -175q-105 -105 -277 -105q-163 0 -274 104.5t-111 269.5zM484 764h-169l111 144h212z" />
    <glyph glyph-name="cacute" unicode="&#x107;" horiz-adv-x="526" 
d="M339 -20q-135 0 -221 77.5t-86 205.5q0 126 88 204.5t222 78.5q53 0 106.5 -16.5t84.5 -40.5l-115 -166q-24 29 -69 29q-36 0 -63 -23.5t-27 -65.5t27 -64.5t63 -22.5q44 0 70 28l116 -162q-34 -27 -87 -44.5t-109 -17.5zM401 584h-169l111 144h212z" />
    <glyph glyph-name="Ccircumflex" unicode="&#x108;" horiz-adv-x="696" 
d="M34 354q0 167 110.5 270.5t274.5 103.5q81 0 154.5 -26.5t122.5 -71.5l-146 -176q-39 53 -117 53q-61 0 -102 -42t-41 -111q0 -67 41.5 -109t101.5 -42q77 0 117 57l146 -175q-105 -105 -277 -105q-163 0 -274 104.5t-111 269.5zM499 764l-67 68l-67 -68h-152l137 144
h169l134 -144h-154z" />
    <glyph glyph-name="ccircumflex" unicode="&#x109;" horiz-adv-x="526" 
d="M339 -20q-135 0 -221 77.5t-86 205.5q0 126 88 204.5t222 78.5q53 0 106.5 -16.5t84.5 -40.5l-115 -166q-24 29 -69 29q-36 0 -63 -23.5t-27 -65.5t27 -64.5t63 -22.5q44 0 70 28l116 -162q-34 -27 -87 -44.5t-109 -17.5zM406 584l-67 68l-67 -68h-152l137 144h169
l134 -144h-154z" />
    <glyph glyph-name="Cdotaccent" unicode="&#x10a;" horiz-adv-x="696" 
d="M34 354q0 167 110.5 270.5t274.5 103.5q81 0 154.5 -26.5t122.5 -71.5l-146 -176q-39 53 -117 53q-61 0 -102 -42t-41 -111q0 -67 41.5 -109t101.5 -42q77 0 117 57l146 -175q-105 -105 -277 -105q-163 0 -274 104.5t-111 269.5zM318 858q0 44 32 75t77 31
q43 0 74.5 -31.5t31.5 -74.5q0 -44 -31.5 -74.5t-74.5 -30.5q-45 0 -77 30.5t-32 74.5z" />
    <glyph glyph-name="cdotaccent" unicode="&#x10b;" horiz-adv-x="526" 
d="M339 -20q-135 0 -221 77.5t-86 205.5q0 126 88 204.5t222 78.5q53 0 106.5 -16.5t84.5 -40.5l-115 -166q-24 29 -69 29q-36 0 -63 -23.5t-27 -65.5t27 -64.5t63 -22.5q44 0 70 28l116 -162q-34 -27 -87 -44.5t-109 -17.5zM232 678q0 44 32 75t77 31q43 0 74.5 -31.5
t31.5 -74.5q0 -44 -31.5 -74.5t-74.5 -30.5q-45 0 -77 30.5t-32 74.5z" />
    <glyph glyph-name="Ccaron" unicode="&#x10c;" horiz-adv-x="696" 
d="M34 354q0 167 110.5 270.5t274.5 103.5q81 0 154.5 -26.5t122.5 -71.5l-146 -176q-39 53 -117 53q-61 0 -102 -42t-41 -111q0 -67 41.5 -109t101.5 -42q77 0 117 57l146 -175q-105 -105 -277 -105q-163 0 -274 104.5t-111 269.5zM500 908h154l-134 -144h-169l-137 144
h152l67 -68z" />
    <glyph glyph-name="ccaron" unicode="&#x10d;" horiz-adv-x="526" 
d="M339 -20q-135 0 -221 77.5t-86 205.5q0 126 88 204.5t222 78.5q53 0 106.5 -16.5t84.5 -40.5l-115 -166q-24 29 -69 29q-36 0 -63 -23.5t-27 -65.5t27 -64.5t63 -22.5q44 0 70 28l116 -162q-34 -27 -87 -44.5t-109 -17.5zM406 728h154l-134 -144h-169l-137 144h152
l67 -68z" />
    <glyph glyph-name="Dcaron" unicode="&#x10e;" horiz-adv-x="788" 
d="M350 0h-284v708h264q70 0 130 -10t115.5 -35.5t94 -64t61.5 -100t23 -140.5q0 -90 -33 -160.5t-90.5 -112.5t-128.5 -63.5t-152 -21.5zM348 506h-53v-302h44q174 0 174 156q0 68 -44.5 107t-120.5 39zM427 908h154l-134 -144h-169l-137 144h152l67 -68z" />
    <glyph glyph-name="dcaron" unicode="&#x10f;" horiz-adv-x="882" 
d="M32 265q0 110 64.5 192.5t175.5 82.5q39 0 76.5 -15t60.5 -41h2v272h230v-756h-207v55h-2q-22 -31 -66.5 -50t-93.5 -19q-112 0 -176 83.5t-64 195.5zM246 265q0 -39 23 -64t63 -25t65 25.5t25 63.5q0 36 -25.5 61.5t-64.5 25.5q-40 0 -63 -25.5t-23 -61.5zM720 708h189
l-87 -177h-164z" />
    <glyph glyph-name="Dcroat" unicode="&#x110;" horiz-adv-x="788" 
d="M66 286h-54v142h54v280h264q70 0 130 -10t115.5 -35.5t94 -64t61.5 -100t23 -140.5q0 -90 -33 -160.5t-90.5 -112.5t-128.5 -63.5t-152 -21.5h-284v286zM295 428h128v-142h-128v-82h44q174 0 174 156q0 68 -44.5 107t-120.5 39h-53v-78z" />
    <glyph glyph-name="dcroat" unicode="&#x111;" horiz-adv-x="694" 
d="M293 570v110h118v76h230v-76h33v-110h-33v-570h-207v55h-2q-22 -31 -66.5 -50t-93.5 -19q-112 0 -176 83.5t-64 195.5q0 110 64.5 192.5t175.5 82.5q39 0 76.5 -15t60.5 -41h2v86h-118zM246 265q0 -39 23 -64t63 -25t65 25.5t25 63.5q0 36 -25.5 61.5t-64.5 25.5
q-40 0 -63 -25.5t-23 -61.5z" />
    <glyph glyph-name="Emacron" unicode="&#x112;" horiz-adv-x="603" 
d="M66 0v708h487v-198h-263v-61h247v-185h-247v-66h280v-198h-504zM126 791v96h360v-96h-360z" />
    <glyph glyph-name="emacron" unicode="&#x113;" horiz-adv-x="630" 
d="M244 333h159q0 28 -21 46t-55 18q-35 0 -57.5 -19.5t-25.5 -44.5zM602 258q0 -25 -2 -49h-354q3 -27 30 -43.5t60 -16.5q57 0 86 37l164 -83q-35 -57 -102 -90t-154 -33q-79 0 -145.5 31t-109.5 97t-43 155q0 127 84 205t209 78q123 0 200 -81.5t77 -206.5zM152 611v96
h360v-96h-360z" />
    <glyph glyph-name="Ebreve" unicode="&#x114;" horiz-adv-x="603" 
d="M66 0v708h487v-198h-263v-61h247v-185h-247v-66h280v-198h-504zM313 764q-170 0 -180 144h110q4 -39 70 -39t70 39h110q-10 -144 -180 -144z" />
    <glyph glyph-name="ebreve" unicode="&#x115;" horiz-adv-x="630" 
d="M244 333h159q0 28 -21 46t-55 18q-35 0 -57.5 -19.5t-25.5 -44.5zM602 258q0 -25 -2 -49h-354q3 -27 30 -43.5t60 -16.5q57 0 86 37l164 -83q-35 -57 -102 -90t-154 -33q-79 0 -145.5 31t-109.5 97t-43 155q0 127 84 205t209 78q123 0 200 -81.5t77 -206.5zM330 584
q-170 0 -180 144h110q4 -39 70 -39t70 39h110q-10 -144 -180 -144z" />
    <glyph glyph-name="Edotaccent" unicode="&#x116;" horiz-adv-x="603" 
d="M66 0v708h487v-198h-263v-61h247v-185h-247v-66h280v-198h-504zM207 858q0 44 32 75t77 31q43 0 74.5 -31.5t31.5 -74.5q0 -44 -31.5 -74.5t-74.5 -30.5q-45 0 -77 30.5t-32 74.5z" />
    <glyph glyph-name="edotaccent" unicode="&#x117;" horiz-adv-x="630" 
d="M244 333h159q0 28 -21 46t-55 18q-35 0 -57.5 -19.5t-25.5 -44.5zM602 258q0 -25 -2 -49h-354q3 -27 30 -43.5t60 -16.5q57 0 86 37l164 -83q-35 -57 -102 -90t-154 -33q-79 0 -145.5 31t-109.5 97t-43 155q0 127 84 205t209 78q123 0 200 -81.5t77 -206.5zM222 678
q0 44 32 75t77 31q43 0 74.5 -31.5t31.5 -74.5q0 -44 -31.5 -74.5t-74.5 -30.5q-45 0 -77 30.5t-32 74.5z" />
    <glyph glyph-name="Eogonek" unicode="&#x118;" horiz-adv-x="603" 
d="M66 0v708h487v-198h-263v-61h247v-185h-247v-66h280v-198h-22q-64 -45 -88.5 -69.5t-24.5 -42.5q0 -20 23 -20q26 0 56 18l44 -83q-66 -43 -139 -43q-50 0 -88.5 21.5t-38.5 72.5q0 43 32.5 77t86.5 69h-345z" />
    <glyph glyph-name="eogonek" unicode="&#x119;" horiz-adv-x="630" 
d="M305 -240q-50 0 -88.5 21.5t-38.5 72.5q0 64 95 131q-104 16 -172.5 88.5t-68.5 189.5q0 127 84 205t209 78q123 0 200 -81.5t77 -206.5q0 -25 -2 -49h-354q3 -27 30 -43.5t60 -16.5q57 0 86 37l164 -83q-53 -86 -166 -112q-56 -41 -77.5 -63.5t-21.5 -39.5q0 -20 23 -20
q26 0 56 18l44 -83q-66 -43 -139 -43zM244 333h159q0 28 -21 46t-55 18q-35 0 -57.5 -19.5t-25.5 -44.5z" />
    <glyph glyph-name="Ecaron" unicode="&#x11a;" horiz-adv-x="603" 
d="M66 0v708h487v-198h-263v-61h247v-185h-247v-66h280v-198h-504zM379 908h154l-134 -144h-169l-137 144h152l67 -68z" />
    <glyph glyph-name="ecaron" unicode="&#x11b;" horiz-adv-x="630" 
d="M244 333h159q0 28 -21 46t-55 18q-35 0 -57.5 -19.5t-25.5 -44.5zM602 258q0 -25 -2 -49h-354q3 -27 30 -43.5t60 -16.5q57 0 86 37l164 -83q-35 -57 -102 -90t-154 -33q-79 0 -145.5 31t-109.5 97t-43 155q0 127 84 205t209 78q123 0 200 -81.5t77 -206.5zM397 728h154
l-134 -144h-169l-137 144h152l67 -68z" />
    <glyph glyph-name="Gcircumflex" unicode="&#x11c;" horiz-adv-x="762" 
d="M426 -18q-170 0 -281 102t-111 270q0 167 110.5 270.5t273.5 103.5q82 0 157 -27t122 -74l-139 -167q-47 57 -126 57q-61 0 -106.5 -46t-45.5 -117q0 -78 40 -122.5t122 -44.5q36 0 56 10v54h-114v187h325v-387q-51 -30 -128.5 -49.5t-154.5 -19.5zM497 764l-67 68
l-67 -68h-152l137 144h169l134 -144h-154z" />
    <glyph glyph-name="gcircumflex" unicode="&#x11d;" horiz-adv-x="697" 
d="M32 265q0 110 64.5 192.5t175.5 82.5q99 0 149 -67h3v53h217v-472q0 -83 -27.5 -142.5t-76 -91.5t-103.5 -46t-121 -14q-167 0 -281 77l101 153q72 -56 160 -56q53 0 88.5 26.5t35.5 72.5v23h-3q-20 -24 -58.5 -40t-83.5 -16q-116 0 -178 76t-62 189zM246 265
q0 -39 23 -64t63 -25t65 25.5t25 63.5q0 36 -25.5 61.5t-64.5 25.5q-40 0 -63 -25.5t-23 -61.5zM427 584l-67 68l-67 -68h-152l137 144h169l134 -144h-154z" />
    <glyph glyph-name="Gbreve" unicode="&#x11e;" horiz-adv-x="762" 
d="M426 -18q-170 0 -281 102t-111 270q0 167 110.5 270.5t273.5 103.5q82 0 157 -27t122 -74l-139 -167q-47 57 -126 57q-61 0 -106.5 -46t-45.5 -117q0 -78 40 -122.5t122 -44.5q36 0 56 10v54h-114v187h325v-387q-51 -30 -128.5 -49.5t-154.5 -19.5zM421 764
q-170 0 -180 144h110q4 -39 70 -39t70 39h110q-10 -144 -180 -144z" />
    <glyph glyph-name="gbreve" unicode="&#x11f;" horiz-adv-x="697" 
d="M32 265q0 110 64.5 192.5t175.5 82.5q99 0 149 -67h3v53h217v-472q0 -83 -27.5 -142.5t-76 -91.5t-103.5 -46t-121 -14q-167 0 -281 77l101 153q72 -56 160 -56q53 0 88.5 26.5t35.5 72.5v23h-3q-20 -24 -58.5 -40t-83.5 -16q-116 0 -178 76t-62 189zM246 265
q0 -39 23 -64t63 -25t65 25.5t25 63.5q0 36 -25.5 61.5t-64.5 25.5q-40 0 -63 -25.5t-23 -61.5zM353 584q-170 0 -180 144h110q4 -39 70 -39t70 39h110q-10 -144 -180 -144z" />
    <glyph glyph-name="Gdotaccent" unicode="&#x120;" horiz-adv-x="762" 
d="M426 -18q-170 0 -281 102t-111 270q0 167 110.5 270.5t273.5 103.5q82 0 157 -27t122 -74l-139 -167q-47 57 -126 57q-61 0 -106.5 -46t-45.5 -117q0 -78 40 -122.5t122 -44.5q36 0 56 10v54h-114v187h325v-387q-51 -30 -128.5 -49.5t-154.5 -19.5zM309 858q0 44 32 75
t77 31q43 0 74.5 -31.5t31.5 -74.5q0 -44 -31.5 -74.5t-74.5 -30.5q-45 0 -77 30.5t-32 74.5z" />
    <glyph glyph-name="gdotaccent" unicode="&#x121;" horiz-adv-x="697" 
d="M32 265q0 110 64.5 192.5t175.5 82.5q99 0 149 -67h3v53h217v-472q0 -83 -27.5 -142.5t-76 -91.5t-103.5 -46t-121 -14q-167 0 -281 77l101 153q72 -56 160 -56q53 0 88.5 26.5t35.5 72.5v23h-3q-20 -24 -58.5 -40t-83.5 -16q-116 0 -178 76t-62 189zM246 265
q0 -39 23 -64t63 -25t65 25.5t25 63.5q0 36 -25.5 61.5t-64.5 25.5q-40 0 -63 -25.5t-23 -61.5zM251 678q0 44 32 75t77 31q43 0 74.5 -31.5t31.5 -74.5q0 -44 -31.5 -74.5t-74.5 -30.5q-45 0 -77 30.5t-32 74.5z" />
    <glyph glyph-name="Gcommaaccent" unicode="&#x122;" horiz-adv-x="762" 
d="M426 -18q-170 0 -281 102t-111 270q0 167 110.5 270.5t273.5 103.5q82 0 157 -27t122 -74l-139 -167q-47 57 -126 57q-61 0 -106.5 -46t-45.5 -117q0 -78 40 -122.5t122 -44.5q36 0 56 10v54h-114v187h325v-387q-51 -30 -128.5 -49.5t-154.5 -19.5zM337 -45h189l-93 -195
h-164z" />
    <glyph glyph-name="gcommaaccent" unicode="&#x123;" horiz-adv-x="697" 
d="M32 265q0 110 64.5 192.5t175.5 82.5q99 0 149 -67h3v53h217v-472q0 -83 -27.5 -142.5t-76 -91.5t-103.5 -46t-121 -14q-167 0 -281 77l101 153q72 -56 160 -56q53 0 88.5 26.5t35.5 72.5v23h-3q-20 -24 -58.5 -40t-83.5 -16q-116 0 -178 76t-62 189zM246 265
q0 -39 23 -64t63 -25t65 25.5t25 63.5q0 36 -25.5 61.5t-64.5 25.5q-40 0 -63 -25.5t-23 -61.5zM425 584h-189l93 195h164z" />
    <glyph glyph-name="Hcircumflex" unicode="&#x124;" horiz-adv-x="802" 
d="M498 0v269h-194v-269h-238v708h237v-240h194v240h239v-708h-238zM468 764l-67 68l-67 -68h-152l137 144h169l134 -144h-154z" />
    <glyph glyph-name="hcircumflex" unicode="&#x125;" horiz-adv-x="666" 
d="M430 540q53 0 91.5 -19t58.5 -52.5t29 -70t9 -78.5v-320h-232v280q0 72 -50 72q-22 0 -37 -18.5t-15 -54.5v-279h-231v756h231v-288h2q21 31 59 51.5t85 20.5zM402 796l-67 68l-67 -68h-152l137 144h169l134 -144h-154z" />
    <glyph glyph-name="Hbar" unicode="&#x126;" horiz-adv-x="802" 
d="M498 0v269h-194v-269h-238v708h237v-78h194v78h239v-708h-238zM303 468h194v52h-194v-52z" />
    <glyph glyph-name="hbar" unicode="&#x127;" horiz-adv-x="666" 
d="M20 570v110h33v76h231v-76h117v-110h-117v-102h2q21 31 59 51.5t85 20.5q53 0 91.5 -19t58.5 -52.5t29 -70t9 -78.5v-320h-232v280q0 72 -50 72q-22 0 -37 -18.5t-15 -54.5v-279h-231v570h-33z" />
    <glyph glyph-name="Itilde" unicode="&#x128;" horiz-adv-x="372" 
d="M66 0v708h240v-708h-240zM374 900q-3 -61 -33.5 -100t-80.5 -39q-38 0 -81 23q-41 22 -63 22q-30 0 -37 -36h-80q3 59 33 97.5t80 38.5q37 0 83 -24q43 -22 65 -22q28 0 35 40h79z" />
    <glyph glyph-name="itilde" unicode="&#x129;" horiz-adv-x="339" 
d="M54 0v526h231v-526h-231zM358 720q-3 -61 -33.5 -100t-80.5 -39q-38 0 -81 23q-41 22 -63 22q-30 0 -37 -36h-80q3 59 33 97.5t80 38.5q37 0 83 -24q43 -22 65 -22q28 0 35 40h79z" />
    <glyph glyph-name="Imacron" unicode="&#x12a;" horiz-adv-x="372" 
d="M66 0v708h240v-708h-240zM6 791v96h360v-96h-360z" />
    <glyph glyph-name="imacron" unicode="&#x12b;" horiz-adv-x="339" 
d="M54 0v526h231v-526h-231zM-9 611v96h360v-96h-360z" />
    <glyph glyph-name="Ibreve" unicode="&#x12c;" horiz-adv-x="372" 
d="M66 0v708h240v-708h-240zM186 764q-170 0 -180 144h110q4 -39 70 -39t70 39h110q-10 -144 -180 -144z" />
    <glyph glyph-name="ibreve" unicode="&#x12d;" horiz-adv-x="339" 
d="M54 0v526h231v-526h-231zM170 584q-170 0 -180 144h110q4 -39 70 -39t70 39h110q-10 -144 -180 -144z" />
    <glyph glyph-name="Iogonek" unicode="&#x12e;" horiz-adv-x="372" 
d="M66 0v708h240v-708h-18q-64 -45 -88.5 -69.5t-24.5 -42.5q0 -20 23 -20q26 0 56 18l44 -83q-66 -43 -139 -43q-50 0 -88.5 21.5t-38.5 72.5q0 43 32.5 77t86.5 69h-85z" />
    <glyph glyph-name="iogonek" unicode="&#x12f;" horiz-adv-x="339" 
d="M54 0v526h231v-526h-9q-64 -45 -88.5 -69.5t-24.5 -42.5q0 -20 23 -20q26 0 56 18l44 -83q-66 -43 -139 -43q-50 0 -88.5 21.5t-38.5 72.5q0 43 32.5 77t86.5 69h-85zM50 678q0 48 36 83t85 35q47 0 82.5 -35t35.5 -83q0 -49 -35 -83t-83 -34q-50 0 -85.5 34t-35.5 83z
" />
    <glyph glyph-name="Idotaccent" unicode="&#x130;" horiz-adv-x="372" 
d="M66 0v708h240v-708h-240zM78 858q0 44 32 75t77 31q43 0 74.5 -31.5t31.5 -74.5q0 -44 -31.5 -74.5t-74.5 -30.5q-45 0 -77 30.5t-32 74.5z" />
    <glyph glyph-name="dotlessi" unicode="&#x131;" horiz-adv-x="339" 
d="M54 0v526h231v-526h-231z" />
    <glyph glyph-name="IJ" unicode="&#x132;" horiz-adv-x="938" 
d="M66 0v708h240v-708h-240zM613 -20q-94 0 -168 51.5t-95 128.5l204 78q10 -41 43 -41q39 0 39 55v456h239v-446q0 -42 -6.5 -78.5t-24 -75t-45.5 -66t-76 -45t-110 -17.5z" />
    <glyph glyph-name="ij" unicode="&#x133;" horiz-adv-x="675" 
d="M54 0v526h231v-526h-231zM50 678q0 48 36 83t85 35q47 0 82.5 -35t35.5 -83q0 -49 -35 -83t-83 -34q-50 0 -85.5 34t-35.5 83zM621 12q0 -252 -237 -252q-56 0 -96 12l12 188q18 -5 37 -5q53 0 53 64v507h231v-514zM386 678q0 48 35.5 83t84.5 35q48 0 83.5 -35t35.5 -83
q0 -49 -35 -83t-84 -34t-84.5 34t-35.5 83z" />
    <glyph glyph-name="Jcircumflex" unicode="&#x134;" horiz-adv-x="573" 
d="M248 -20q-94 0 -168 51.5t-95 128.5l204 78q10 -41 43 -41q39 0 39 55v456h239v-446q0 -42 -6.5 -78.5t-24 -75t-45.5 -66t-76 -45t-110 -17.5zM457 764l-67 68l-67 -68h-152l137 144h169l134 -144h-154z" />
    <glyph glyph-name="jcircumflex" unicode="&#x135;" horiz-adv-x="346" 
d="M292 12q0 -252 -237 -252q-55 0 -96 12l12 188q18 -5 37 -5q53 0 53 64v507h231v-514zM246 584l-67 68l-67 -68h-152l137 144h169l134 -144h-154z" />
    <glyph glyph-name="Kcommaaccent" unicode="&#x136;" horiz-adv-x="763" 
d="M489 0l-189 282h-2v-282h-232v708h231v-261h2l189 261h280l-266 -324l279 -384h-292zM317 -45h189l-93 -195h-164z" />
    <glyph glyph-name="kcommaaccent" unicode="&#x137;" horiz-adv-x="674" 
d="M287 229h-3v-229h-231v756h231v-431h3l125 201h268l-170 -237l169 -289h-269zM264 -45h189l-93 -195h-164z" />
    <glyph glyph-name="kgreenlandic" unicode="&#x138;" horiz-adv-x="670" 
d="M287 229h-3v-229h-231v526h231v-201h3l125 201h268l-170 -237l169 -289h-269z" />
    <glyph glyph-name="Lacute" unicode="&#x139;" horiz-adv-x="549" 
d="M66 0v708h240v-504h235v-204h-475zM267 764h-169l111 144h212z" />
    <glyph glyph-name="lacute" unicode="&#x13a;" horiz-adv-x="342" 
d="M53 0v756h236v-756h-236zM222 792h-169l111 144h212z" />
    <glyph glyph-name="Lcommaaccent" unicode="&#x13b;" horiz-adv-x="549" 
d="M66 0v708h240v-504h235v-204h-475zM220 -45h189l-93 -195h-164z" />
    <glyph glyph-name="lcommaaccent" unicode="&#x13c;" horiz-adv-x="342" 
d="M53 0v756h236v-756h-236zM88 -46h189l-93 -195h-164z" />
    <glyph glyph-name="Lcaron" unicode="&#x13d;" horiz-adv-x="549" 
d="M66 0v708h240v-504h235v-204h-475zM396 708h189l-87 -177h-164z" />
    <glyph glyph-name="lcaron" unicode="&#x13e;" horiz-adv-x="530" 
d="M53 0v756h236v-756h-236zM368 708h189l-87 -177h-164z" />
    <glyph glyph-name="Ldot" unicode="&#x13f;" horiz-adv-x="549" 
d="M66 0v708h240v-504h235v-204h-475zM347 458q0 44 32 75t77 31q43 0 74.5 -31.5t31.5 -74.5q0 -44 -31.5 -74.5t-74.5 -30.5q-45 0 -77 30.5t-32 74.5z" />
    <glyph glyph-name="ldot" unicode="&#x140;" horiz-adv-x="534" 
d="M53 0v756h236v-756h-236zM319 488q0 44 32 75t77 31q43 0 74.5 -31.5t31.5 -74.5q0 -44 -31.5 -74.5t-74.5 -30.5q-45 0 -77 30.5t-32 74.5z" />
    <glyph glyph-name="Lslash" unicode="&#x141;" horiz-adv-x="549" 
d="M66 142l-55 -48v190l55 48v376h240v-204l170 146v-189l-170 -145v-112h235v-204h-475v142z" />
    <glyph glyph-name="lslash" unicode="&#x142;" horiz-adv-x="342" 
d="M289 402v-402h-236v221l-41 -38v194l41 39v340h236v-159l41 38v-194z" />
    <glyph glyph-name="Nacute" unicode="&#x143;" horiz-adv-x="791" 
d="M66 0v708h237l202 -359h4l-10 359h226v-708h-243l-196 338h-4l10 -338h-226zM457 764h-169l111 144h212z" />
    <glyph glyph-name="nacute" unicode="&#x144;" horiz-adv-x="666" 
d="M53 0v526h225v-58h2q21 31 61.5 51.5t88.5 20.5q53 0 91.5 -19t58.5 -52.5t29 -70t9 -78.5v-320h-232v280q0 72 -50 72q-23 0 -37.5 -19t-14.5 -53v-280h-231zM392 584h-169l111 144h212z" />
    <glyph glyph-name="Ncommaaccent" unicode="&#x145;" horiz-adv-x="791" 
d="M66 0v708h237l202 -359h4l-10 359h226v-708h-243l-196 338h-4l10 -338h-226zM315 -45h189l-93 -195h-164z" />
    <glyph glyph-name="ncommaaccent" unicode="&#x146;" horiz-adv-x="666" 
d="M53 0v526h225v-58h2q21 31 61.5 51.5t88.5 20.5q53 0 91.5 -19t58.5 -52.5t29 -70t9 -78.5v-320h-232v280q0 72 -50 72q-23 0 -37.5 -19t-14.5 -53v-280h-231zM248 -45h189l-93 -195h-164z" />
    <glyph glyph-name="Ncaron" unicode="&#x147;" horiz-adv-x="791" 
d="M66 0v708h237l202 -359h4l-10 359h226v-708h-243l-196 338h-4l10 -338h-226zM464 908h154l-134 -144h-169l-137 144h152l67 -68z" />
    <glyph glyph-name="ncaron" unicode="&#x148;" horiz-adv-x="666" 
d="M53 0v526h225v-58h2q21 31 61.5 51.5t88.5 20.5q53 0 91.5 -19t58.5 -52.5t29 -70t9 -78.5v-320h-232v280q0 72 -50 72q-23 0 -37.5 -19t-14.5 -53v-280h-231zM400 728h154l-134 -144h-169l-137 144h152l67 -68z" />
    <glyph glyph-name="Eng" unicode="&#x14a;" horiz-adv-x="791" 
d="M66 0v708h237l202 -351h4l-10 351h226v-708q0 -108 -55 -174t-182 -66q-55 0 -96 12l12 188q18 -5 37 -5q43 0 52 42l-207 341h-4l10 -338h-226z" />
    <glyph glyph-name="eng" unicode="&#x14b;" horiz-adv-x="666" 
d="M618 0q-6 -240 -237 -240q-55 0 -96 12l12 188q17 -5 37 -5q52 0 52 57v268q0 72 -50 72q-23 0 -37.5 -19t-14.5 -53v-280h-231v526h225v-58h2q21 31 61.5 51.5t88.5 20.5q53 0 91.5 -19t58.5 -52.5t29 -70t9 -78.5v-320z" />
    <glyph glyph-name="Omacron" unicode="&#x14c;" horiz-adv-x="855" 
d="M34 358q0 167 111 268.5t282 101.5t282.5 -101.5t111.5 -268.5q0 -168 -112 -273t-282 -105t-281.5 105t-111.5 273zM287 358q0 -69 39.5 -113.5t100.5 -44.5q60 0 100 44.5t40 113.5q0 68 -39.5 110t-100.5 42t-100.5 -42t-39.5 -110zM248 791v96h360v-96h-360z" />
    <glyph glyph-name="omacron" unicode="&#x14d;" horiz-adv-x="664" 
d="M632 265q0 -131 -88 -208t-213 -77t-212 77t-87 208q0 130 87 205.5t212 75.5t213 -75.5t88 -205.5zM331 352q-37 0 -61 -26t-24 -61q0 -37 24.5 -63t61.5 -26t61.5 26t24.5 63q0 35 -25 61t-62 26zM153 611v96h360v-96h-360z" />
    <glyph glyph-name="Obreve" unicode="&#x14e;" horiz-adv-x="855" 
d="M34 358q0 167 111 268.5t282 101.5t282.5 -101.5t111.5 -268.5q0 -168 -112 -273t-282 -105t-281.5 105t-111.5 273zM287 358q0 -69 39.5 -113.5t100.5 -44.5q60 0 100 44.5t40 113.5q0 68 -39.5 110t-100.5 42t-100.5 -42t-39.5 -110zM427 764q-170 0 -180 144h110
q4 -39 70 -39t70 39h110q-10 -144 -180 -144z" />
    <glyph glyph-name="obreve" unicode="&#x14f;" horiz-adv-x="664" 
d="M632 265q0 -131 -88 -208t-213 -77t-212 77t-87 208q0 130 87 205.5t212 75.5t213 -75.5t88 -205.5zM331 352q-37 0 -61 -26t-24 -61q0 -37 24.5 -63t61.5 -26t61.5 26t24.5 63q0 35 -25 61t-62 26zM333 584q-170 0 -180 144h110q4 -39 70 -39t70 39h110
q-10 -144 -180 -144z" />
    <glyph glyph-name="Ohungarumlaut" unicode="&#x150;" horiz-adv-x="855" 
d="M34 358q0 167 111 268.5t282 101.5t282.5 -101.5t111.5 -268.5q0 -168 -112 -273t-282 -105t-281.5 105t-111.5 273zM287 358q0 -69 39.5 -113.5t100.5 -44.5q60 0 100 44.5t40 113.5q0 68 -39.5 110t-100.5 42t-100.5 -42t-39.5 -110zM395 764h-169l111 144h212z
M638 764h-169l111 144h212z" />
    <glyph glyph-name="ohungarumlaut" unicode="&#x151;" horiz-adv-x="664" 
d="M632 265q0 -131 -88 -208t-213 -77t-212 77t-87 208q0 130 87 205.5t212 75.5t213 -75.5t88 -205.5zM331 352q-37 0 -61 -26t-24 -61q0 -37 24.5 -63t61.5 -26t61.5 26t24.5 63q0 35 -25 61t-62 26zM291 584h-169l111 144h212zM534 584h-169l111 144h212z" />
    <glyph glyph-name="OE" unicode="&#x152;" horiz-adv-x="1007" 
d="M452 708h505v-198h-253v-61h238v-185h-238v-66h270v-198h-522q-70 0 -129.5 11t-113.5 36.5t-92 65.5t-60.5 102t-22.5 141q0 90 33.5 159.5t92.5 110.5t132.5 61.5t159.5 20.5zM444 198h43v312h-34q-79 0 -123.5 -40.5t-44.5 -121.5q0 -68 44.5 -109t114.5 -41z" />
    <glyph glyph-name="oe" unicode="&#x153;" horiz-adv-x="995" 
d="M693 546q121 0 197.5 -81.5t76.5 -206.5q0 -25 -2 -49h-354q3 -27 30 -43.5t60 -16.5q57 0 86 37l164 -83q-35 -57 -102 -90t-151 -33q-59 0 -109.5 20.5t-77.5 51.5q-62 -72 -180 -72q-125 0 -212 77t-87 208q0 130 87 205.5t212 75.5q59 0 106 -22t74 -56q71 78 182 78
zM331 352q-37 0 -61 -26t-24 -61q0 -37 24.5 -63t61.5 -26t61.5 26t24.5 63q0 35 -25 61t-62 26zM609 333h159q0 28 -21 46t-55 18q-35 0 -57.5 -19.5t-25.5 -44.5z" />
    <glyph glyph-name="Racute" unicode="&#x154;" horiz-adv-x="714" 
d="M66 0v708h305q56 0 104 -11t90.5 -36t67 -71.5t24.5 -111.5q0 -64 -32.5 -114t-91.5 -77l180 -287h-274l-136 253h-7v-253h-230zM294 523v-114h47q83 0 83 59q0 55 -73 55h-57zM400 764h-169l111 144h212z" />
    <glyph glyph-name="racute" unicode="&#x155;" horiz-adv-x="445" 
d="M53 0v526h222v-60h2q18 33 52 53.5t77 20.5q27 0 44 -5l-18 -196q-21 6 -49 6q-44 0 -71.5 -26t-27.5 -64v-255h-231zM277 584h-169l111 144h212z" />
    <glyph glyph-name="Rcommaaccent" unicode="&#x156;" horiz-adv-x="714" 
d="M66 0v708h305q56 0 104 -11t90.5 -36t67 -71.5t24.5 -111.5q0 -64 -32.5 -114t-91.5 -77l180 -287h-274l-136 253h-7v-253h-230zM294 523v-114h47q83 0 83 59q0 55 -73 55h-57zM282 -45h189l-93 -195h-164z" />
    <glyph glyph-name="rcommaaccent" unicode="&#x157;" horiz-adv-x="445" 
d="M53 0v526h222v-60h2q18 33 52 53.5t77 20.5q27 0 44 -5l-18 -196q-21 6 -49 6q-44 0 -71.5 -26t-27.5 -64v-255h-231zM86 -46h189l-93 -195h-164z" />
    <glyph glyph-name="Rcaron" unicode="&#x158;" horiz-adv-x="714" 
d="M66 0v708h305q56 0 104 -11t90.5 -36t67 -71.5t24.5 -111.5q0 -64 -32.5 -114t-91.5 -77l180 -287h-274l-136 253h-7v-253h-230zM294 523v-114h47q83 0 83 59q0 55 -73 55h-57zM406 908h154l-134 -144h-169l-137 144h152l67 -68z" />
    <glyph glyph-name="rcaron" unicode="&#x159;" horiz-adv-x="445" 
d="M53 0v526h222v-60h2q18 33 52 53.5t77 20.5q27 0 44 -5l-18 -196q-21 6 -49 6q-44 0 -71.5 -26t-27.5 -64v-255h-231zM316 728h154l-134 -144h-169l-137 144h152l67 -68z" />
    <glyph glyph-name="Sacute" unicode="&#x15a;" horiz-adv-x="617" 
d="M298 -20q-84 0 -163.5 29t-134.5 78l145 158q26 -29 68 -49t84 -20q53 0 53 33q0 19 -23 31t-102 38q-85 28 -134 75t-49 132q0 63 26.5 111.5t70.5 76.5t94.5 41.5t105.5 13.5q71 0 143.5 -28t126.5 -77l-148 -151q-23 28 -57.5 44.5t-64.5 16.5q-58 0 -58 -32
q0 -15 14 -22.5t56 -21.5q29 -10 46 -15.5t45.5 -17.5t46 -23t39 -29t33.5 -37t20.5 -45.5t8.5 -56.5q0 -120 -87 -186.5t-205 -66.5zM396 764h-169l111 144h212z" />
    <glyph glyph-name="sacute" unicode="&#x15b;" horiz-adv-x="513" 
d="M484 167q0 -50 -22 -88t-58 -58.5t-74.5 -30.5t-78.5 -10q-68 0 -134 19.5t-113 55.5l113 131q54 -49 119 -49q33 0 33 21q0 12 -17.5 20t-65.5 19q-60 14 -104 52.5t-44 107.5q0 64 39 109t89 62.5t103 17.5q128 0 229 -68l-108 -129q-53 34 -102 34q-39 0 -39 -22
q0 -10 13 -15.5t57 -14.5q71 -15 118 -54.5t47 -109.5zM333 584h-169l111 144h212z" />
    <glyph glyph-name="Scircumflex" unicode="&#x15c;" horiz-adv-x="617" 
d="M298 -20q-84 0 -163.5 29t-134.5 78l145 158q26 -29 68 -49t84 -20q53 0 53 33q0 19 -23 31t-102 38q-85 28 -134 75t-49 132q0 63 26.5 111.5t70.5 76.5t94.5 41.5t105.5 13.5q71 0 143.5 -28t126.5 -77l-148 -151q-23 28 -57.5 44.5t-64.5 16.5q-58 0 -58 -32
q0 -15 14 -22.5t56 -21.5q29 -10 46 -15.5t45.5 -17.5t46 -23t39 -29t33.5 -37t20.5 -45.5t8.5 -56.5q0 -120 -87 -186.5t-205 -66.5zM404 764l-67 68l-67 -68h-152l137 144h169l134 -144h-154z" />
    <glyph glyph-name="scircumflex" unicode="&#x15d;" horiz-adv-x="513" 
d="M484 167q0 -50 -22 -88t-58 -58.5t-74.5 -30.5t-78.5 -10q-68 0 -134 19.5t-113 55.5l113 131q54 -49 119 -49q33 0 33 21q0 12 -17.5 20t-65.5 19q-60 14 -104 52.5t-44 107.5q0 64 39 109t89 62.5t103 17.5q128 0 229 -68l-108 -129q-53 34 -102 34q-39 0 -39 -22
q0 -10 13 -15.5t57 -14.5q71 -15 118 -54.5t47 -109.5zM350 584l-67 68l-67 -68h-152l137 144h169l134 -144h-154z" />
    <glyph glyph-name="Scedilla" unicode="&#x15e;" horiz-adv-x="617" 
d="M273 -240q-75 0 -133 23l34 78q37 -16 85 -16q40 0 40 21q0 18 -37 18q-23 0 -41 -6l-44 34l61 72q-144 19 -238 103l145 158q26 -29 68 -49t84 -20q53 0 53 33q0 19 -23 31t-102 38q-85 28 -134 75t-49 132q0 63 26.5 111.5t70.5 76.5t94.5 41.5t105.5 13.5
q71 0 143.5 -28t126.5 -77l-148 -151q-23 28 -57.5 44.5t-64.5 16.5q-58 0 -58 -32q0 -15 14 -22.5t56 -21.5q29 -10 46 -15.5t45.5 -17.5t46 -23t39 -29t33.5 -37t20.5 -45.5t8.5 -56.5q0 -105 -68 -169t-168 -79l-35 -38q5 1 16 1q41 0 71.5 -19.5t30.5 -65.5
q0 -38 -28.5 -62.5t-63 -32.5t-72.5 -8z" />
    <glyph glyph-name="scedilla" unicode="&#x15f;" horiz-adv-x="513" 
d="M227 -240q-75 0 -133 23l34 78q37 -16 85 -16q40 0 40 21q0 18 -37 18q-23 0 -41 -6l-44 34l61 72q-115 15 -188 71l113 131q54 -49 119 -49q33 0 33 21q0 12 -17.5 20t-65.5 19q-60 14 -104 52.5t-44 107.5q0 64 39 109t89 62.5t103 17.5q128 0 229 -68l-108 -129
q-53 34 -102 34q-39 0 -39 -22q0 -10 13 -15.5t57 -14.5q71 -15 118 -54.5t47 -109.5q0 -79 -50.5 -123.5t-124.5 -57.5l-36 -39q5 1 16 1q41 0 71.5 -19.5t30.5 -65.5q0 -38 -28.5 -62.5t-63 -32.5t-72.5 -8z" />
    <glyph glyph-name="Scaron" unicode="&#x160;" horiz-adv-x="617" 
d="M298 -20q-84 0 -163.5 29t-134.5 78l145 158q26 -29 68 -49t84 -20q53 0 53 33q0 19 -23 31t-102 38q-85 28 -134 75t-49 132q0 63 26.5 111.5t70.5 76.5t94.5 41.5t105.5 13.5q71 0 143.5 -28t126.5 -77l-148 -151q-23 28 -57.5 44.5t-64.5 16.5q-58 0 -58 -32
q0 -15 14 -22.5t56 -21.5q29 -10 46 -15.5t45.5 -17.5t46 -23t39 -29t33.5 -37t20.5 -45.5t8.5 -56.5q0 -120 -87 -186.5t-205 -66.5zM404 908h154l-134 -144h-169l-137 144h152l67 -68z" />
    <glyph glyph-name="scaron" unicode="&#x161;" horiz-adv-x="513" 
d="M484 167q0 -50 -22 -88t-58 -58.5t-74.5 -30.5t-78.5 -10q-68 0 -134 19.5t-113 55.5l113 131q54 -49 119 -49q33 0 33 21q0 12 -17.5 20t-65.5 19q-60 14 -104 52.5t-44 107.5q0 64 39 109t89 62.5t103 17.5q128 0 229 -68l-108 -129q-53 34 -102 34q-39 0 -39 -22
q0 -10 13 -15.5t57 -14.5q71 -15 118 -54.5t47 -109.5zM342 728h154l-134 -144h-169l-137 144h152l67 -68z" />
    <glyph glyph-name="uni0162" unicode="&#x162;" horiz-adv-x="600" 
d="M419 507v-507h-238v507h-174v201h586v-201h-174zM218 -45h189l-93 -195h-164z" />
    <glyph glyph-name="uni0163" unicode="&#x163;" horiz-adv-x="421" 
d="M282 -14q-105 0 -156.5 46t-51.5 141v188h-74v165h73v118h224v-118h114v-165h-114v-140q0 -36 15.5 -50.5t46.5 -14.5q24 0 42 6v-158q-43 -18 -119 -18zM163 -45h189l-93 -195h-164z" />
    <glyph glyph-name="Tcaron" unicode="&#x164;" horiz-adv-x="600" 
d="M419 507v-507h-238v507h-174v201h586v-201h-174zM367 908h154l-134 -144h-169l-137 144h152l67 -68z" />
    <glyph glyph-name="tcaron" unicode="&#x165;" horiz-adv-x="540" 
d="M282 -14q-105 0 -156.5 46t-51.5 141v188h-74v165h73v118h224v-118h114v-165h-114v-140q0 -36 15.5 -50.5t46.5 -14.5q24 0 42 6v-158q-43 -18 -119 -18zM378 731h189l-87 -177h-164z" />
    <glyph glyph-name="Tbar" unicode="&#x166;" horiz-adv-x="600" 
d="M76 321v110h105v76h-174v201h586v-201h-174v-76h103v-110h-103v-321h-238v321h-105z" />
    <glyph glyph-name="tbar" unicode="&#x167;" horiz-adv-x="421" 
d="M10 209v110h64v42h-74v165h73v118h224v-118h114v-165h-114v-42h82v-110h-82q5 -53 62 -53q24 0 42 6v-158q-43 -18 -119 -18q-105 0 -156.5 46t-51.5 141v36h-64z" />
    <glyph glyph-name="Utilde" unicode="&#x168;" horiz-adv-x="775" 
d="M384 -20q-159 0 -243.5 83t-84.5 215v430h238v-404q0 -51 24.5 -79.5t69.5 -28.5t69.5 28.5t24.5 79.5v404h237v-430q0 -131 -87.5 -214.5t-247.5 -83.5zM577 900q-3 -61 -33.5 -100t-80.5 -39q-38 0 -81 23q-41 22 -63 22q-30 0 -37 -36h-80q3 59 33 97.5t80 38.5
q37 0 83 -24q43 -22 65 -22q28 0 35 40h79z" />
    <glyph glyph-name="utilde" unicode="&#x169;" horiz-adv-x="663" 
d="M610 526v-526h-225v58h-2q-21 -31 -61.5 -51.5t-88.5 -20.5q-53 0 -91.5 19t-58.5 52.5t-29 70t-9 78.5v320h232v-278q0 -72 50 -72q23 0 37.5 19t14.5 53v278h231zM516 720q-3 -61 -33.5 -100t-80.5 -39q-38 0 -81 23q-41 22 -63 22q-30 0 -37 -36h-80q3 59 33 97.5
t80 38.5q37 0 83 -24q43 -22 65 -22q28 0 35 40h79z" />
    <glyph glyph-name="Umacron" unicode="&#x16a;" horiz-adv-x="775" 
d="M384 -20q-159 0 -243.5 83t-84.5 215v430h238v-404q0 -51 24.5 -79.5t69.5 -28.5t69.5 28.5t24.5 79.5v404h237v-430q0 -131 -87.5 -214.5t-247.5 -83.5zM208 791v96h360v-96h-360z" />
    <glyph glyph-name="umacron" unicode="&#x16b;" horiz-adv-x="663" 
d="M610 526v-526h-225v58h-2q-21 -31 -61.5 -51.5t-88.5 -20.5q-53 0 -91.5 19t-58.5 52.5t-29 70t-9 78.5v320h232v-278q0 -72 50 -72q23 0 37.5 19t14.5 53v278h231zM147 611v96h360v-96h-360z" />
    <glyph glyph-name="Ubreve" unicode="&#x16c;" horiz-adv-x="775" 
d="M384 -20q-159 0 -243.5 83t-84.5 215v430h238v-404q0 -51 24.5 -79.5t69.5 -28.5t69.5 28.5t24.5 79.5v404h237v-430q0 -131 -87.5 -214.5t-247.5 -83.5zM388 764q-170 0 -180 144h110q4 -39 70 -39t70 39h110q-10 -144 -180 -144z" />
    <glyph glyph-name="ubreve" unicode="&#x16d;" horiz-adv-x="663" 
d="M610 526v-526h-225v58h-2q-21 -31 -61.5 -51.5t-88.5 -20.5q-53 0 -91.5 19t-58.5 52.5t-29 70t-9 78.5v320h232v-278q0 -72 50 -72q23 0 37.5 19t14.5 53v278h231zM327 584q-170 0 -180 144h110q4 -39 70 -39t70 39h110q-10 -144 -180 -144z" />
    <glyph glyph-name="Uring" unicode="&#x16e;" horiz-adv-x="775" 
d="M384 -20q-159 0 -243.5 83t-84.5 215v430h238v-404q0 -51 24.5 -79.5t69.5 -28.5t69.5 28.5t24.5 79.5v404h237v-430q0 -131 -87.5 -214.5t-247.5 -83.5zM504 857q0 -48 -34 -81t-81 -33t-81 33t-34 81t34 81t81 33t81 -33t34 -81zM449 857q0 25 -17.5 42t-42.5 17
t-42.5 -17t-17.5 -42t17.5 -42t42.5 -17t42.5 17t17.5 42z" />
    <glyph glyph-name="uring" unicode="&#x16f;" horiz-adv-x="663" 
d="M610 526v-526h-225v58h-2q-21 -31 -61.5 -51.5t-88.5 -20.5q-53 0 -91.5 19t-58.5 52.5t-29 70t-9 78.5v320h232v-278q0 -72 50 -72q23 0 37.5 19t14.5 53v278h231zM440 677q0 -48 -34 -81t-81 -33t-81 33t-34 81t34 81t81 33t81 -33t34 -81zM385 677q0 25 -17.5 42
t-42.5 17t-42.5 -17t-17.5 -42t17.5 -42t42.5 -17t42.5 17t17.5 42z" />
    <glyph glyph-name="Uhungarumlaut" unicode="&#x170;" horiz-adv-x="775" 
d="M384 -20q-159 0 -243.5 83t-84.5 215v430h238v-404q0 -51 24.5 -79.5t69.5 -28.5t69.5 28.5t24.5 79.5v404h237v-430q0 -131 -87.5 -214.5t-247.5 -83.5zM349 764h-169l111 144h212zM592 764h-169l111 144h212z" />
    <glyph glyph-name="uhungarumlaut" unicode="&#x171;" horiz-adv-x="663" 
d="M610 526v-526h-225v58h-2q-21 -31 -61.5 -51.5t-88.5 -20.5q-53 0 -91.5 19t-58.5 52.5t-29 70t-9 78.5v320h232v-278q0 -72 50 -72q23 0 37.5 19t14.5 53v278h231zM288 584h-169l111 144h212zM531 584h-169l111 144h212z" />
    <glyph glyph-name="Uogonek" unicode="&#x172;" horiz-adv-x="775" 
d="M375 -240q-50 0 -88.5 21.5t-38.5 72.5q0 65 91 128q-139 12 -211 92.5t-72 203.5v430h238v-404q0 -51 24.5 -79.5t69.5 -28.5t69.5 28.5t24.5 79.5v404h237v-430q0 -106 -58.5 -182.5t-167.5 -102.5q-57 -41 -79.5 -64t-22.5 -41q0 -20 23 -20q26 0 56 18l44 -83
q-66 -43 -139 -43z" />
    <glyph glyph-name="uogonek" unicode="&#x173;" horiz-adv-x="663" 
d="M397 -240q-50 0 -88.5 21.5t-38.5 72.5q0 43 32.5 77t86.5 69h-4v58h-2q-21 -31 -61.5 -51.5t-88.5 -20.5q-53 0 -91.5 19t-58.5 52.5t-29 70t-9 78.5v320h232v-278q0 -72 50 -72q23 0 37.5 19t14.5 53v278h231v-526h-84q-64 -45 -88.5 -69.5t-24.5 -42.5q0 -20 23 -20
q26 0 56 18l44 -83q-66 -43 -139 -43z" />
    <glyph glyph-name="Wcircumflex" unicode="&#x174;" horiz-adv-x="1077" 
d="M536 400l-103 -400h-240l-193 708h252l76 -398h4l82 398h249l89 -398h4l77 398h244l-197 -708h-240l-100 400h-4zM604 764l-67 68l-67 -68h-152l137 144h169l134 -144h-154z" />
    <glyph glyph-name="wcircumflex" unicode="&#x175;" horiz-adv-x="973" 
d="M483 270l-79 -270h-229l-180 526h247l66 -272h4l68 272h222l73 -272h3l64 272h236l-182 -526h-230l-81 270h-2zM559 584l-67 68l-67 -68h-152l137 144h169l134 -144h-154z" />
    <glyph glyph-name="Ycircumflex" unicode="&#x176;" horiz-adv-x="738" 
d="M481 290v-290h-238v290l-267 418h287l112 -208l107 208h280zM441 764l-67 68l-67 -68h-152l137 144h169l134 -144h-154z" />
    <glyph glyph-name="ycircumflex" unicode="&#x177;" horiz-adv-x="638" 
d="M201 9l4 11l-213 506h256l78 -277h4l69 277h247l-216 -558q-41 -105 -103.5 -156.5t-172.5 -51.5q-69 0 -131 16l29 190q34 -12 65 -12q63 0 84 55zM394 584l-67 68l-67 -68h-152l137 144h169l134 -144h-154z" />
    <glyph glyph-name="Ydieresis" unicode="&#x178;" horiz-adv-x="738" 
d="M481 290v-290h-238v290l-267 418h287l112 -208l107 208h280zM400 858q0 40 30 69.5t71 29.5q40 0 69.5 -29.5t29.5 -69.5q0 -41 -29.5 -69.5t-69.5 -28.5q-42 0 -71.5 28.5t-29.5 69.5zM151 858q0 40 30 69.5t71 29.5q40 0 69.5 -29.5t29.5 -69.5q0 -41 -29.5 -69.5
t-69.5 -28.5q-42 0 -71.5 28.5t-29.5 69.5z" />
    <glyph glyph-name="Zacute" unicode="&#x179;" horiz-adv-x="672" 
d="M44 0v199l265 312h-254v197h565v-172l-282 -333h290v-203h-584zM411 764h-169l111 144h212z" />
    <glyph glyph-name="zacute" unicode="&#x17a;" horiz-adv-x="557" 
d="M33 0v161l197 194h-192v171h479v-150l-213 -205h219v-171h-490zM344 584h-169l111 144h212z" />
    <glyph glyph-name="Zdotaccent" unicode="&#x17b;" horiz-adv-x="672" 
d="M44 0v199l265 312h-254v197h565v-172l-282 -333h290v-203h-584zM232 858q0 44 32 75t77 31q43 0 74.5 -31.5t31.5 -74.5q0 -44 -31.5 -74.5t-74.5 -30.5q-45 0 -77 30.5t-32 74.5z" />
    <glyph glyph-name="zdotaccent" unicode="&#x17c;" horiz-adv-x="557" 
d="M33 0v161l197 194h-192v171h479v-150l-213 -205h219v-171h-490zM175 678q0 44 32 75t77 31q43 0 74.5 -31.5t31.5 -74.5q0 -44 -31.5 -74.5t-74.5 -30.5q-45 0 -77 30.5t-32 74.5z" />
    <glyph glyph-name="Zcaron" unicode="&#x17d;" horiz-adv-x="672" 
d="M44 0v199l265 312h-254v197h565v-172l-282 -333h290v-203h-584zM410 908h154l-134 -144h-169l-137 144h152l67 -68z" />
    <glyph glyph-name="zcaron" unicode="&#x17e;" horiz-adv-x="557" 
d="M33 0v161l197 194h-192v171h479v-150l-213 -205h219v-171h-490zM350 728h154l-134 -144h-169l-137 144h152l67 -68z" />
    <glyph glyph-name="florin" unicode="&#x192;" horiz-adv-x="700" 
d="M597 526q-34 21 -60 21q-25 0 -39.5 -12.5t-22.5 -47.5l-7 -36h132v-147h-162l-52 -254q-39 -189 -234 -189q-86 0 -150 35l77 162q29 -20 54 -20q42 0 56 67l41 199h-114v147h139q10 52 19.5 85t28.5 73.5t44 63.5t67 39t97 16q105 0 168 -40z" />
    <glyph glyph-name="Scommaaccent" unicode="&#x218;" horiz-adv-x="617" 
d="M298 -20q-84 0 -163.5 29t-134.5 78l145 158q26 -29 68 -49t84 -20q53 0 53 33q0 19 -23 31t-102 38q-85 28 -134 75t-49 132q0 63 26.5 111.5t70.5 76.5t94.5 41.5t105.5 13.5q71 0 143.5 -28t126.5 -77l-148 -151q-23 28 -57.5 44.5t-64.5 16.5q-58 0 -58 -32
q0 -15 14 -22.5t56 -21.5q29 -10 46 -15.5t45.5 -17.5t46 -23t39 -29t33.5 -37t20.5 -45.5t8.5 -56.5q0 -120 -87 -186.5t-205 -66.5zM225 -45h189l-93 -195h-164z" />
    <glyph glyph-name="scommaaccent" unicode="&#x219;" horiz-adv-x="513" 
d="M484 167q0 -50 -22 -88t-58 -58.5t-74.5 -30.5t-78.5 -10q-68 0 -134 19.5t-113 55.5l113 131q54 -49 119 -49q33 0 33 21q0 12 -17.5 20t-65.5 19q-60 14 -104 52.5t-44 107.5q0 64 39 109t89 62.5t103 17.5q128 0 229 -68l-108 -129q-53 34 -102 34q-39 0 -39 -22
q0 -10 13 -15.5t57 -14.5q71 -15 118 -54.5t47 -109.5zM167 -45h189l-93 -195h-164z" />
    <glyph glyph-name="uni021A" unicode="&#x21a;" horiz-adv-x="600" 
d="M419 507v-507h-238v507h-174v201h586v-201h-174zM218 -45h189l-93 -195h-164z" />
    <glyph glyph-name="uni021B" unicode="&#x21b;" horiz-adv-x="421" 
d="M282 -14q-105 0 -156.5 46t-51.5 141v188h-74v165h73v118h224v-118h114v-165h-114v-140q0 -36 15.5 -50.5t46.5 -14.5q24 0 42 6v-158q-43 -18 -119 -18zM163 -45h189l-93 -195h-164z" />
    <glyph glyph-name="dotlessj" unicode="&#x237;" horiz-adv-x="346" 
d="M292 12q0 -252 -237 -252q-55 0 -96 12l12 188q18 -5 37 -5q53 0 53 64v507h231v-514z" />
    <glyph glyph-name="circumflex" unicode="&#x2c6;" 
d="M246 584l-67 68l-67 -68h-152l137 144h169l134 -144h-154z" />
    <glyph glyph-name="caron" unicode="&#x2c7;" 
d="M246 728h154l-134 -144h-169l-137 144h152l67 -68z" />
    <glyph glyph-name="uni02C9" unicode="&#x2c9;" 
d="M0 791v96h360v-96h-360z" />
    <glyph glyph-name="breve" unicode="&#x2d8;" 
d="M180 584q-170 0 -180 144h110q4 -39 70 -39t70 39h110q-10 -144 -180 -144z" />
    <glyph glyph-name="dotaccent" unicode="&#x2d9;" 
d="M72 678q0 44 32 75t77 31q43 0 74.5 -31.5t31.5 -74.5q0 -44 -31.5 -74.5t-74.5 -30.5q-45 0 -77 30.5t-32 74.5z" />
    <glyph glyph-name="ring" unicode="&#x2da;" 
d="M295 677q0 -48 -34 -81t-81 -33t-81 33t-34 81t34 81t81 33t81 -33t34 -81zM240 677q0 25 -17.5 42t-42.5 17t-42.5 -17t-17.5 -42t17.5 -42t42.5 -17t42.5 17t17.5 42z" />
    <glyph glyph-name="ogonek" unicode="&#x2db;" 
d="M159 -240q-50 0 -88.5 21.5t-38.5 72.5q0 43 32.5 77t86.5 69h137q-64 -45 -88.5 -69.5t-24.5 -42.5q0 -20 23 -20q26 0 56 18l44 -83q-66 -43 -139 -43z" />
    <glyph glyph-name="tilde" unicode="&#x2dc;" 
d="M367 720q-3 -61 -33.5 -100t-80.5 -39q-38 0 -81 23q-41 22 -63 22q-30 0 -37 -36h-80q3 59 33 97.5t80 38.5q37 0 83 -24q43 -22 65 -22q28 0 35 40h79z" />
    <glyph glyph-name="hungarumlaut" unicode="&#x2dd;" 
d="M114 584h-169l111 144h212zM357 584h-169l111 144h212z" />
    <glyph glyph-name="uni0394" unicode="&#x394;" horiz-adv-x="782" 
d="M754 132v-132h-727v132l238 576h253zM388 461l-101 -279h199z" />
    <glyph glyph-name="uni03A9" unicode="&#x3a9;" horiz-adv-x="816" 
d="M626 164h125v-164h-314v279q82 23 82 118q0 52 -31 82.5t-81 30.5q-48 0 -79 -31.5t-31 -81.5q0 -96 82 -118v-279h-314v164h125v11q-66 16 -105.5 80.5t-39.5 152.5q0 153 102.5 236.5t259.5 83.5q159 0 261.5 -82.5t102.5 -237.5q0 -91 -41 -155t-104 -78v-11z" />
    <glyph glyph-name="uni03BC" unicode="&#x3bc;" horiz-adv-x="746" 
d="M716 166v-162q-38 -18 -111 -18q-99 0 -135 72h-2q-13 -26 -40 -49t-67 -23q-38 0 -59 18h-2v-228h-236v750h236v-277q0 -73 48 -73q29 0 41.5 22.5t12.5 50.5v277h236v-313q0 -31 11 -42t36 -11q11 0 31 6z" />
    <glyph glyph-name="pi" unicode="&#x3c0;" horiz-adv-x="800" 
d="M737 4q-48 -18 -127 -18q-82 0 -122.5 35.5t-40.5 114.5v217h-105l-36 -353h-209l51 353h-103v173h720v-173h-109v-163q0 -34 36 -34q22 0 45 6v-158z" />
    <glyph glyph-name="uni0400" unicode="&#x400;" horiz-adv-x="603" 
d="M66 0v708h487v-198h-263v-61h247v-185h-247v-66h280v-198h-504zM264 764l-154 144h212l111 -144h-169z" />
    <glyph glyph-name="uni0401" unicode="&#x401;" horiz-adv-x="603" 
d="M66 0v708h487v-198h-263v-61h247v-185h-247v-66h280v-198h-504zM336 858q0 40 30 69.5t71 29.5q40 0 69.5 -29.5t29.5 -69.5q0 -41 -29.5 -69.5t-69.5 -28.5q-42 0 -71.5 28.5t-29.5 69.5zM87 858q0 40 30 69.5t71 29.5q40 0 69.5 -29.5t29.5 -69.5q0 -41 -29.5 -69.5
t-69.5 -28.5q-42 0 -71.5 28.5t-29.5 69.5z" />
    <glyph glyph-name="uni0402" unicode="&#x402;" horiz-adv-x="845" 
d="M580 -10q-77 0 -121 11l18 172q18 -6 42 -6q61 0 61 41q0 46 -87 46q-47 0 -74 -15v-239h-238v514h-174v194h586v-194h-174v-106q81 22 155 22q121 0 184 -60t63 -169q0 -56 -20.5 -98t-55.5 -66t-76.5 -35.5t-88.5 -11.5z" />
    <glyph glyph-name="uni0403" unicode="&#x403;" horiz-adv-x="548" 
d="M66 0v708h475v-201h-237v-507h-238zM339 764h-169l111 144h212z" />
    <glyph glyph-name="uni0404" unicode="&#x404;" horiz-adv-x="696" 
d="M419 -20q-163 0 -274 104.5t-111 269.5q0 167 110.5 270.5t274.5 103.5q81 0 154.5 -26.5t122.5 -71.5l-140 -172q-42 56 -128 56q-43 0 -75 -18.5t-45 -46.5h192v-185h-195q29 -68 128 -68q40 0 73.5 16.5t52.5 40.5l137 -168q-105 -105 -277 -105z" />
    <glyph glyph-name="uni0405" unicode="&#x405;" horiz-adv-x="617" 
d="M298 -20q-84 0 -163.5 29t-134.5 78l145 158q26 -29 68 -49t84 -20q53 0 53 33q0 19 -23 31t-102 38q-85 28 -134 75t-49 132q0 63 26.5 111.5t70.5 76.5t94.5 41.5t105.5 13.5q71 0 143.5 -28t126.5 -77l-148 -151q-23 28 -57.5 44.5t-64.5 16.5q-58 0 -58 -32
q0 -15 14 -22.5t56 -21.5q29 -10 46 -15.5t45.5 -17.5t46 -23t39 -29t33.5 -37t20.5 -45.5t8.5 -56.5q0 -120 -87 -186.5t-205 -66.5z" />
    <glyph glyph-name="uni0406" unicode="&#x406;" horiz-adv-x="372" 
d="M66 0v708h240v-708h-240z" />
    <glyph glyph-name="uni0407" unicode="&#x407;" horiz-adv-x="372" 
d="M66 0v708h240v-708h-240zM213 858q0 40 30 69.5t71 29.5q40 0 69.5 -29.5t29.5 -69.5q0 -41 -29.5 -69.5t-69.5 -28.5q-42 0 -71.5 28.5t-29.5 69.5zM-36 858q0 40 30 69.5t71 29.5q40 0 69.5 -29.5t29.5 -69.5q0 -41 -29.5 -69.5t-69.5 -28.5q-42 0 -71.5 28.5
t-29.5 69.5z" />
    <glyph glyph-name="uni0408" unicode="&#x408;" horiz-adv-x="573" 
d="M248 -20q-94 0 -168 51.5t-95 128.5l204 78q10 -41 43 -41q39 0 39 55v456h239v-446q0 -42 -6.5 -78.5t-24 -75t-45.5 -66t-76 -45t-110 -17.5z" />
    <glyph glyph-name="uni0409" unicode="&#x409;" horiz-adv-x="1145" 
d="M123 -7q-71 0 -119 12l15 193q18 -6 42 -6q20 0 34 6t29 25t22.5 62t7.5 109v314h610v-228h67q59 0 108 -12t91.5 -38t66.5 -74t24 -114q0 -83 -43.5 -139.5t-106.5 -79.5t-140 -23h-305v509h-144v-80q0 -128 -16 -213.5t-50 -134t-80 -68.5t-113 -20zM764 185h50
q30 0 51 14.5t21 44.5q0 55 -72 55h-50v-114z" />
    <glyph glyph-name="uni040A" unicode="&#x40a;" horiz-adv-x="1125" 
d="M66 0v708h238v-240h194v240h238v-240h89q56 0 103 -11.5t87 -37t63 -72.5t23 -111q0 -81 -41.5 -136t-101.5 -77.5t-133 -22.5h-327v277h-194v-277h-238zM736 187h62q27 0 45.5 13.5t18.5 40.5q0 50 -64 50h-62v-104z" />
    <glyph glyph-name="uni040B" unicode="&#x40b;" horiz-adv-x="867" 
d="M181 0v514h-174v194h586v-194h-174v-106q81 22 155 22q124 0 182 -51t58 -166v-213h-238v145q0 58 -18 76t-65 18t-74 -15v-224h-238z" />
    <glyph glyph-name="uni040C" unicode="&#x40c;" horiz-adv-x="763" 
d="M66 0v708h232v-261h1l189 261h280l-266 -324l279 -384h-292l-189 282h-2v-282h-232zM449 764h-169l111 144h212z" />
    <glyph glyph-name="uni040D" unicode="&#x40d;" horiz-adv-x="817" 
d="M66 0v708h226v-379h4l208 379h247v-708h-226v358h-4l-202 -358h-253zM314 764l-154 144h212l111 -144h-169z" />
    <glyph glyph-name="uni040E" unicode="&#x40e;" horiz-adv-x="735" 
d="M186 -15q-69 0 -131 16l29 191q37 -13 73 -13q63 0 89 51l2 4l-268 474h276l121 -264l109 264h269l-271 -531q-51 -99 -122.5 -145.5t-175.5 -46.5zM372 763q-167 0 -195 148l113 22q6 -57 82 -57t82 57l113 -22q-28 -148 -195 -148z" />
    <glyph glyph-name="uni040F" unicode="&#x40f;" horiz-adv-x="802" 
d="M298 -135v135h-232v708h238v-507h194v507h238v-708h-232v-135h-206z" />
    <glyph glyph-name="uni0410" unicode="&#x410;" horiz-adv-x="776" 
d="M-16 0l279 708h253l276 -708h-259l-37 104h-225l-35 -104h-252zM328 286h115l-57 175z" />
    <glyph glyph-name="uni0411" unicode="&#x411;" horiz-adv-x="685" 
d="M66 0v708h541v-189h-311v-62h89q56 0 103 -11.5t87 -36t63 -70.5t23 -109q0 -79 -41.5 -132.5t-101.5 -75.5t-133 -22h-319zM296 183h62q27 0 45.5 12.5t18.5 39.5q0 49 -64 49h-62v-101z" />
    <glyph glyph-name="uni0412" unicode="&#x412;" horiz-adv-x="693" 
d="M66 0v708h291q276 0 276 -188q0 -109 -104 -149v-3q55 -13 94 -56t39 -105q0 -56 -23 -97.5t-63 -64.5t-87 -34t-102 -11h-321zM288 187h71q29 0 46 13t17 36q0 25 -22.5 36t-50.5 11h-61v-96zM288 436h64q57 0 57 47q0 40 -62 40h-59v-87z" />
    <glyph glyph-name="uni0413" unicode="&#x413;" horiz-adv-x="548" 
d="M66 0v708h475v-201h-237v-507h-238z" />
    <glyph glyph-name="uni0414" unicode="&#x414;" horiz-adv-x="843" 
d="M10 -135v336h65q76 111 76 335v172h606v-507h76v-336h-206v135h-411v-135h-206zM323 201h196v308h-138v-9q0 -194 -58 -299z" />
    <glyph glyph-name="uni0415" unicode="&#x415;" horiz-adv-x="603" 
d="M66 0v708h487v-198h-263v-61h247v-185h-247v-66h280v-198h-504z" />
    <glyph glyph-name="uni0416" unicode="&#x416;" horiz-adv-x="1120" 
d="M-18 0l244 384l-231 324h270l174 -281h2v281h237v-281h2l174 281h271l-232 -324l245 -384h-283l-174 302h-2v-302h-238v302h-2l-175 -302h-282z" />
    <glyph glyph-name="uni0417" unicode="&#x417;" horiz-adv-x="633" 
d="M310 -20q-115 0 -185 26.5t-130 80.5l129 155q29 -32 62.5 -49t87.5 -17q36 0 58.5 13t22.5 39q0 30 -26 41t-77 11h-68v164h81q84 0 84 48q0 41 -66 41q-85 0 -141 -55l-124 144q115 106 293 106q127 0 202.5 -51.5t75.5 -140.5q0 -61 -33 -104t-80 -57v-4
q126 -40 126 -170q0 -55 -26.5 -98.5t-69.5 -69.5t-93 -39.5t-103 -13.5z" />
    <glyph glyph-name="uni0418" unicode="&#x418;" horiz-adv-x="817" 
d="M66 0v708h226v-379h4l208 379h247v-708h-226v358h-4l-202 -358h-253z" />
    <glyph glyph-name="uni0419" unicode="&#x419;" horiz-adv-x="817" 
d="M66 0v708h226v-379h4l208 379h247v-708h-226v358h-4l-202 -358h-253zM405 763q-167 0 -195 148l113 22q6 -57 82 -57t82 57l113 -22q-28 -148 -195 -148z" />
    <glyph glyph-name="uni041A" unicode="&#x41a;" horiz-adv-x="763" 
d="M66 0v708h232v-261h1l189 261h280l-266 -324l279 -384h-292l-189 282h-2v-282h-232z" />
    <glyph glyph-name="uni041B" unicode="&#x41b;" horiz-adv-x="830" 
d="M123 -7q-71 0 -119 12l15 193q18 -6 42 -6q20 0 34 6t29 25t22.5 62t7.5 109v314h610v-708h-238v509h-144v-80q0 -128 -16 -213.5t-50 -134t-80 -68.5t-113 -20z" />
    <glyph glyph-name="uni041C" unicode="&#x41c;" horiz-adv-x="1008" 
d="M66 0v708h311l128 -381h5l111 381h321v-708h-231l7 398l-6 1l-132 -399h-168l-130 400h-5l11 -400h-222z" />
    <glyph glyph-name="uni041D" unicode="&#x41d;" horiz-adv-x="802" 
d="M66 0v708h238v-240h194v240h238v-708h-238v269h-194v-269h-238z" />
    <glyph glyph-name="uni041E" unicode="&#x41e;" horiz-adv-x="855" 
d="M427 -20q-170 0 -281.5 105t-111.5 273q0 167 111 268.5t282 101.5t282.5 -101.5t111.5 -268.5q0 -168 -112 -273t-282 -105zM427 200q60 0 100 44.5t40 113.5q0 68 -39.5 110t-100.5 42t-100.5 -42t-39.5 -110q0 -69 39.5 -113.5t100.5 -44.5z" />
    <glyph glyph-name="uni041F" unicode="&#x41f;" horiz-adv-x="802" 
d="M66 0v708h670v-708h-238v509h-194v-509h-238z" />
    <glyph glyph-name="uni0420" unicode="&#x420;" horiz-adv-x="684" 
d="M66 0v708h304q58 0 107 -12t91.5 -38t67 -74t24.5 -114q0 -63 -24.5 -111t-66 -76t-92 -41.5t-107.5 -13.5h-67v-228h-237zM303 409h50q30 0 51 15t21 44q0 55 -72 55h-50v-114z" />
    <glyph glyph-name="uni0421" unicode="&#x421;" horiz-adv-x="696" 
d="M419 -20q-163 0 -274 104.5t-111 269.5q0 167 110.5 270.5t274.5 103.5q81 0 154.5 -26.5t122.5 -71.5l-146 -176q-39 53 -117 53q-61 0 -102 -42t-41 -111q0 -67 41.5 -109t101.5 -42q77 0 117 57l146 -175q-105 -105 -277 -105z" />
    <glyph glyph-name="uni0422" unicode="&#x422;" horiz-adv-x="600" 
d="M181 0v507h-174v201h586v-201h-174v-507h-238z" />
    <glyph glyph-name="uni0423" unicode="&#x423;" horiz-adv-x="735" 
d="M186 -15q-69 0 -131 16l29 191q37 -13 73 -13q63 0 89 51l2 4l-268 474h276l121 -264l109 264h269l-271 -531q-51 -99 -122.5 -145.5t-175.5 -46.5z" />
    <glyph glyph-name="uni0424" unicode="&#x424;" horiz-adv-x="975" 
d="M369 -20v87q-147 2 -234 71q-105 82 -105 227q0 160 110 237q82 56 229 61v65h237v-65q147 -5 229 -61q110 -77 110 -237q0 -145 -105 -227q-87 -69 -234 -71v-87h-237zM374 267v197q-106 -14 -106 -99q0 -84 106 -98zM601 267q106 14 106 98q0 85 -106 99v-197z" />
    <glyph glyph-name="uni0425" unicode="&#x425;" horiz-adv-x="800" 
d="M-12 0l253 369l-240 339h287l112 -186l107 186h280l-236 -336l261 -372h-291l-128 207l-123 -207h-282z" />
    <glyph glyph-name="uni0426" unicode="&#x426;" horiz-adv-x="822" 
d="M606 -135v135h-540v708h238v-507h194v507h238v-507h76v-336h-206z" />
    <glyph glyph-name="uni0427" unicode="&#x427;" horiz-adv-x="749" 
d="M445 0v240q-81 -22 -155 -22q-124 0 -182 51t-58 166v273h234v-205q0 -57 19.5 -75.5t67.5 -18.5q47 0 74 15v284h238v-708h-238z" />
    <glyph glyph-name="uni0428" unicode="&#x428;" horiz-adv-x="1154" 
d="M66 0v708h238v-507h154v507h238v-507h154v507h238v-708h-1022z" />
    <glyph glyph-name="uni0429" unicode="&#x429;" horiz-adv-x="1174" 
d="M958 -135v135h-892v708h238v-507h154v507h238v-507h154v507h238v-507h76v-336h-206z" />
    <glyph glyph-name="uni042A" unicode="&#x42a;" horiz-adv-x="750" 
d="M131 0v513h-124v195h362v-228h67q59 0 108 -12t91.5 -38t66.5 -74t24 -114q0 -83 -43.5 -139.5t-106.5 -79.5t-140 -23h-305zM369 185h50q30 0 51 14.5t21 44.5q0 55 -72 55h-50v-114z" />
    <glyph glyph-name="uni042B" unicode="&#x42b;" horiz-adv-x="1032" 
d="M66 0v708h238v-228h67q59 0 108 -12t91.5 -38t66.5 -74t24 -114q0 -83 -43.5 -139.5t-106.5 -79.5t-140 -23h-305zM304 185h50q30 0 51 14.5t21 44.5q0 55 -72 55h-50v-114zM728 0v708h238v-708h-238z" />
    <glyph glyph-name="uni042C" unicode="&#x42c;" horiz-adv-x="685" 
d="M66 0v708h238v-228h67q59 0 108 -12t91.5 -38t66.5 -74t24 -114q0 -83 -43.5 -139.5t-106.5 -79.5t-140 -23h-305zM304 185h50q30 0 51 14.5t21 44.5q0 55 -72 55h-50v-114z" />
    <glyph glyph-name="uni042D" unicode="&#x42d;" horiz-adv-x="696" 
d="M201 264v185h188q-16 31 -49 48t-77 17q-81 0 -123 -56l-132 179q49 42 120 66.5t149 24.5q164 0 274.5 -103.5t110.5 -270.5q0 -164 -112 -269t-276 -105q-86 0 -159 29t-122 78l137 168q19 -24 54.5 -41.5t75.5 -17.5q46 0 80.5 18t50.5 50h-190z" />
    <glyph glyph-name="uni042E" unicode="&#x42e;" horiz-adv-x="1164" 
d="M752 -20q-147 0 -246 81t-124 212h-78v-273h-238v708h238v-244h83q31 120 127.5 192t237.5 72q171 0 274.5 -104t103.5 -266q0 -163 -104 -270.5t-274 -107.5zM752 197q57 0 91.5 45t34.5 116q0 70 -34.5 112.5t-91.5 42.5q-58 0 -92.5 -42.5t-34.5 -112.5q0 -71 35 -116
t92 -45z" />
    <glyph glyph-name="uni042F" unicode="&#x42f;" horiz-adv-x="722" 
d="M0 0l168 273q-55 28 -85 81.5t-30 123.5q0 65 24.5 111.5t68 71.5t93.5 36t110 11h307v-708h-237v233h-22l-126 -233h-271zM369 409h55v114h-65q-73 0 -73 -55q0 -59 83 -59z" />
    <glyph glyph-name="uni0430" unicode="&#x430;" horiz-adv-x="591" 
d="M209 -14q-72 0 -127.5 41.5t-55.5 127.5q0 52 27 89t74.5 55t97 25.5t107.5 7.5v2q0 47 -60 47q-57 0 -111 -45l-115 114q47 45 113.5 70.5t136.5 25.5q72 0 123 -20.5t78.5 -59t39.5 -84.5t12 -105v-277h-209v42h-2q-18 -28 -54.5 -42t-74.5 -14zM274 125q33 0 53 21
t20 54v18h-13q-113 0 -113 -52q0 -20 17 -30.5t36 -10.5z" />
    <glyph glyph-name="uni0431" unicode="&#x431;" horiz-adv-x="667" 
d="M340 -20q-106 0 -193 59q-59 47 -83.5 108.5t-24.5 158.5q0 76 5 129t20 105.5t42.5 86t73.5 57.5t111 33l92 12q54 7 71.5 16.5t23.5 32.5l153 -42q-17 -87 -58.5 -127.5t-115.5 -49.5l-127 -17q-29 -4 -48 -9.5t-40.5 -18.5t-34.5 -37t-18 -60h3q65 86 188 86
q104 0 179.5 -65.5t75.5 -186.5q0 -126 -84 -198.5t-211 -72.5zM340 172q37 0 61.5 26t24.5 63q0 35 -25 61t-62 26t-61 -26t-24 -61q0 -37 24.5 -63t61.5 -26z" />
    <glyph glyph-name="uni0432" unicode="&#x432;" horiz-adv-x="638" 
d="M53 0v526h326q205 0 205 -140q0 -82 -77 -110v-3q41 -9 70 -41t29 -78q0 -80 -59 -117t-146 -37h-348zM268 132h58q23 0 37 11t14 31q0 40 -60 40h-49v-82zM268 320h52q48 0 48 41q0 35 -51 35h-49v-76z" />
    <glyph glyph-name="uni0433" unicode="&#x433;" horiz-adv-x="479" 
d="M53 0v526h411v-171h-179v-355h-232z" />
    <glyph glyph-name="uni0434" unicode="&#x434;" horiz-adv-x="710" 
d="M10 -108v279h42q27 32 40 79.5t13 138.5v137h529v-355h66v-279h-185v108h-320v-108h-185zM285 171h117v187h-84v-26q0 -111 -33 -161z" />
    <glyph glyph-name="uni0435" unicode="&#x435;" horiz-adv-x="630" 
d="M330 -20q-79 0 -145.5 31t-109.5 97t-43 155q0 127 84 205t209 78q123 0 200 -81.5t77 -206.5q0 -25 -2 -49h-354q3 -27 30 -43.5t60 -16.5q57 0 86 37l164 -83q-35 -57 -102 -90t-154 -33zM244 333h159q0 28 -21 46t-55 18q-35 0 -57.5 -19.5t-25.5 -44.5z" />
    <glyph glyph-name="uni0436" unicode="&#x436;" horiz-adv-x="937" 
d="M-10 0l139 279l-135 247h253l105 -226h3v226h227v-226h3l105 226h253l-135 -247l139 -279h-254l-108 234h-3v-234h-227v234h-3l-108 -234h-254z" />
    <glyph glyph-name="uni0437" unicode="&#x437;" horiz-adv-x="544" 
d="M122 355l-91 120q91 71 238 71q105 0 166.5 -39t61.5 -107q0 -46 -25 -79t-63 -43v-3q103 -28 103 -127q0 -55 -38 -94.5t-91 -56.5t-111 -17q-106 0 -162 19.5t-108 61.5l103 125q55 -47 126 -47q66 0 66 34t-84 34h-50v126h56q69 0 69 31q0 27 -53 27q-67 0 -113 -36z
" />
    <glyph glyph-name="uni0438" unicode="&#x438;" horiz-adv-x="700" 
d="M53 0v526h218v-282h3l130 282h243v-526h-217v266h-3l-126 -266h-248z" />
    <glyph glyph-name="uni0439" unicode="&#x439;" horiz-adv-x="700" 
d="M53 0v526h218v-282h3l130 282h243v-526h-217v266h-3l-126 -266h-248zM350 584q-152 0 -177 134l103 20q5 -52 74 -52t74 52l103 -20q-25 -134 -177 -134z" />
    <glyph glyph-name="uni043A" unicode="&#x43a;" horiz-adv-x="671" 
d="M53 0v526h232v-211h3l125 211h268l-170 -247l169 -279h-269l-123 219h-3v-219h-232z" />
    <glyph glyph-name="uni043B" unicode="&#x43b;" horiz-adv-x="700" 
d="M121 -7q-85 0 -119 9l11 170q12 -4 31 -4q16 0 26.5 4.5t21.5 19t16.5 46.5t5.5 81v207h533v-526h-232v355h-81v-69q0 -90 -14.5 -149.5t-44.5 -90t-66 -42t-88 -11.5z" />
    <glyph glyph-name="uni043C" unicode="&#x43c;" horiz-adv-x="869" 
d="M53 0v526h289l95 -283h3l83 283h293v-526h-211v295l-5 1l-98 -296h-144l-97 297h-3v-297h-205z" />
    <glyph glyph-name="uni043D" unicode="&#x43d;" horiz-adv-x="672" 
d="M53 0v526h232v-166h102v166h232v-526h-232v189h-102v-189h-232z" />
    <glyph glyph-name="uni043E" unicode="&#x43e;" horiz-adv-x="664" 
d="M331 -20q-125 0 -212 77t-87 208q0 130 87 205.5t212 75.5t213 -75.5t88 -205.5q0 -131 -88 -208t-213 -77zM332 176q37 0 61.5 26t24.5 63q0 35 -25 61t-62 26t-61 -26t-24 -61q0 -37 24.5 -63t61.5 -26z" />
    <glyph glyph-name="uni043F" unicode="&#x43f;" horiz-adv-x="672" 
d="M53 0v526h566v-526h-232v355h-102v-355h-232z" />
    <glyph glyph-name="uni0440" unicode="&#x440;" horiz-adv-x="694" 
d="M53 -240v766h217v-53h2q28 32 69 49.5t81 17.5q111 0 175.5 -82.5t64.5 -192.5q0 -112 -64 -195.5t-175 -83.5q-40 0 -77.5 14.5t-61.5 40.5h-2v-281h-229zM362 176q40 0 63 25t23 64q0 36 -23 61.5t-63 25.5q-39 0 -64.5 -25.5t-25.5 -61.5q0 -38 25 -63.5t65 -25.5z
" />
    <glyph glyph-name="uni0441" unicode="&#x441;" horiz-adv-x="526" 
d="M339 -20q-135 0 -221 77.5t-86 205.5q0 126 88 204.5t222 78.5q53 0 106.5 -16.5t84.5 -40.5l-115 -166q-24 29 -69 29q-36 0 -63 -23.5t-27 -65.5t27 -64.5t63 -22.5q44 0 70 28l116 -162q-34 -27 -87 -44.5t-109 -17.5z" />
    <glyph glyph-name="uni0442" unicode="&#x442;" horiz-adv-x="540" 
d="M154 0v355h-139v171h510v-171h-139v-355h-232z" />
    <glyph glyph-name="uni0443" unicode="&#x443;" horiz-adv-x="638" 
d="M154 -240q-69 0 -131 16l29 190q34 -12 65 -12q63 0 84 55l4 11l-213 506h256l78 -277h4l69 277h247l-216 -558q-41 -105 -103.5 -156.5t-172.5 -51.5z" />
    <glyph glyph-name="uni0444" unicode="&#x444;" horiz-adv-x="921" 
d="M32 271q0 123 80.5 191t219.5 80v214h257v-214q139 -12 219.5 -80t80.5 -191q0 -122 -81.5 -196t-218.5 -86v-229h-257v229q-137 12 -218.5 86t-81.5 196zM582 175q39 0 66 25t27 66q0 40 -27 64t-66 25v-180zM339 175v180q-39 -1 -66 -25t-27 -64q0 -41 27 -66t66 -25z
" />
    <glyph glyph-name="uni0445" unicode="&#x445;" horiz-adv-x="675" 
d="M-8 0l203 270l-189 256h262l76 -110l75 110h254l-189 -256l199 -270h-264l-81 119l-86 -119h-260z" />
    <glyph glyph-name="uni0446" unicode="&#x446;" horiz-adv-x="695" 
d="M500 -108v108h-447v526h232v-355h102v355h232v-355h66v-279h-185z" />
    <glyph glyph-name="uni0447" unicode="&#x447;" horiz-adv-x="650" 
d="M365 0v160q-38 -10 -122 -10q-200 0 -200 161v215h226v-142q0 -43 14.5 -56.5t49.5 -13.5q14 0 32 3v209h232v-526h-232z" />
    <glyph glyph-name="uni0448" unicode="&#x448;" horiz-adv-x="976" 
d="M53 0v526h232v-355h87v355h232v-355h87v355h232v-526h-870z" />
    <glyph glyph-name="uni0449" unicode="&#x449;" horiz-adv-x="999" 
d="M804 -108v108h-751v526h232v-355h87v355h232v-355h87v355h232v-355h66v-279h-185z" />
    <glyph glyph-name="uni044A" unicode="&#x44a;" horiz-adv-x="700" 
d="M125 0v355h-110v171h342v-156h99q62 0 109.5 -15.5t81 -58t33.5 -109.5q0 -94 -65.5 -140.5t-158.5 -46.5h-331zM352 143h51q25 0 42.5 12t17.5 37q0 44 -60 44h-51v-93z" />
    <glyph glyph-name="uni044B" unicode="&#x44b;" horiz-adv-x="937" 
d="M53 0v526h232v-156h89q62 0 109.5 -15.5t81 -58t33.5 -109.5q0 -94 -65.5 -140.5t-158.5 -46.5h-321zM280 143h51q25 0 42.5 12t17.5 37q0 44 -60 44h-51v-93zM652 0v526h232v-526h-232z" />
    <glyph glyph-name="uni044C" unicode="&#x44c;" horiz-adv-x="628" 
d="M53 0v526h232v-156h99q62 0 109.5 -15.5t81 -58t33.5 -109.5q0 -94 -65.5 -140.5t-158.5 -46.5h-331zM280 143h51q25 0 42.5 12t17.5 37q0 44 -60 44h-51v-93z" />
    <glyph glyph-name="uni044D" unicode="&#x44d;" horiz-adv-x="545" 
d="M206 -20q-60 0 -116.5 17.5t-93.5 44.5l102 142q30 -34 96 -34q27 0 52.5 13.5t36.5 38.5h-139v136h134q-9 20 -31.5 32.5t-48.5 12.5q-69 0 -99 -36l-101 142q33 24 91 40.5t114 16.5q141 0 225.5 -77.5t84.5 -205.5q0 -130 -82.5 -206.5t-224.5 -76.5z" />
    <glyph glyph-name="uni044E" unicode="&#x44e;" horiz-adv-x="945" 
d="M619 -20q-102 0 -181.5 55.5t-103.5 153.5h-49v-189h-232v526h232v-171h54q28 89 105 139.5t175 50.5q122 0 208 -75.5t86 -205.5t-86 -207t-208 -77zM619 176q35 0 57.5 24.5t22.5 63.5q0 38 -23 62.5t-57 24.5q-35 0 -57 -24t-22 -63q0 -40 22 -64t57 -24z" />
    <glyph glyph-name="uni044F" unicode="&#x44f;" horiz-adv-x="643" 
d="M10 0l112 182q-92 44 -92 157q0 94 65.5 140.5t158.5 46.5h336v-526h-232v156h-21l-66 -156h-261zM311 290h59v99h-59q-27 0 -45.5 -12t-18.5 -37q0 -50 64 -50z" />
    <glyph glyph-name="uni0450" unicode="&#x450;" horiz-adv-x="630" 
d="M330 -20q-79 0 -145.5 31t-109.5 97t-43 155q0 127 84 205t209 78q123 0 200 -81.5t77 -206.5q0 -25 -2 -49h-354q3 -27 30 -43.5t60 -16.5q57 0 86 37l164 -83q-35 -57 -102 -90t-154 -33zM244 333h159q0 28 -21 46t-55 18q-35 0 -57.5 -19.5t-25.5 -44.5zM267 584
l-154 144h212l111 -144h-169z" />
    <glyph glyph-name="uni0451" unicode="&#x451;" horiz-adv-x="630" 
d="M330 -20q-79 0 -145.5 31t-109.5 97t-43 155q0 127 84 205t209 78q123 0 200 -81.5t77 -206.5q0 -25 -2 -49h-354q3 -27 30 -43.5t60 -16.5q57 0 86 37l164 -83q-35 -57 -102 -90t-154 -33zM244 333h159q0 28 -21 46t-55 18q-35 0 -57.5 -19.5t-25.5 -44.5zM355 678
q0 40 30 69.5t71 29.5q40 0 69.5 -29.5t29.5 -69.5q0 -41 -29.5 -69.5t-69.5 -28.5q-42 0 -71.5 28.5t-29.5 69.5zM106 678q0 40 30 69.5t71 29.5q40 0 69.5 -29.5t29.5 -69.5q0 -41 -29.5 -69.5t-69.5 -28.5q-42 0 -71.5 28.5t-29.5 69.5z" />
    <glyph glyph-name="uni0452" unicode="&#x452;" horiz-adv-x="666" 
d="M372 -240q-50 0 -89 10l15 173q18 -4 29 -4q59 0 59 74v253q0 72 -50 72q-22 0 -37 -18.5t-15 -54.5v-265h-231v560h-53v120h53v76h231v-76h117v-120h-117v-106h2q21 31 59 51.5t85 20.5q53 0 91.5 -19t58.5 -52.5t29 -70t9 -78.5v-298q0 -248 -246 -248z" />
    <glyph glyph-name="uni0453" unicode="&#x453;" horiz-adv-x="479" 
d="M53 0v526h411v-171h-179v-355h-232zM289 584h-169l111 144h212z" />
    <glyph glyph-name="uni0454" unicode="&#x454;" horiz-adv-x="545" 
d="M339 -20q-142 0 -224.5 76.5t-82.5 206.5q0 128 84.5 205.5t225.5 77.5q56 0 114 -16.5t91 -40.5l-101 -142q-30 36 -95 36q-24 0 -49 -12t-35 -33h134v-136h-139q21 -52 93 -52q58 0 92 34l102 -142q-37 -27 -93.5 -44.5t-116.5 -17.5z" />
    <glyph glyph-name="uni0455" unicode="&#x455;" horiz-adv-x="513" 
d="M251 -20q-68 0 -134 19.5t-113 55.5l113 131q54 -49 119 -49q33 0 33 21q0 12 -17.5 20t-65.5 19q-60 14 -104 52.5t-44 107.5q0 64 39 109t89 62.5t103 17.5q128 0 229 -68l-108 -129q-53 34 -102 34q-39 0 -39 -22q0 -10 13 -15.5t57 -14.5q71 -15 118 -54.5t47 -109.5
q0 -50 -22 -88t-58 -58.5t-74.5 -30.5t-78.5 -10z" />
    <glyph glyph-name="uni0456" unicode="&#x456;" horiz-adv-x="339" 
d="M54 0v526h231v-526h-231zM171 561q-50 0 -85.5 34t-35.5 83q0 48 36 83t85 35q47 0 82.5 -35t35.5 -83q0 -49 -35 -83t-83 -34z" />
    <glyph glyph-name="uni0457" unicode="&#x457;" horiz-adv-x="339" 
d="M194 678q0 40 30 69.5t71 29.5q40 0 69.5 -29.5t29.5 -69.5q0 -41 -29.5 -69.5t-69.5 -28.5q-42 0 -71.5 28.5t-29.5 69.5zM-55 678q0 40 30 69.5t71 29.5q40 0 69.5 -29.5t29.5 -69.5q0 -41 -29.5 -69.5t-69.5 -28.5q-42 0 -71.5 28.5t-29.5 69.5zM54 0v526h231v-526
h-231z" />
    <glyph glyph-name="uni0458" unicode="&#x458;" horiz-adv-x="346" 
d="M55 -240q-55 0 -96 12l12 188q18 -5 37 -5q53 0 53 64v507h231v-514q0 -252 -237 -252zM177 561q-49 0 -84.5 34t-35.5 83q0 48 35.5 83t84.5 35q48 0 83.5 -35t35.5 -83q0 -49 -35 -83t-84 -34z" />
    <glyph glyph-name="uni0459" unicode="&#x459;" horiz-adv-x="990" 
d="M121 -7q-85 0 -119 9l11 170q12 -4 31 -4q16 0 26.5 4.5t21.5 19t16.5 46.5t5.5 81v207h533v-156h99q62 0 109.5 -15.5t81 -58t33.5 -109.5q0 -94 -65.5 -140.5t-158.5 -46.5h-331v355h-81v-69q0 -90 -14.5 -149.5t-44.5 -90t-66 -42t-88 -11.5zM647 143h46q25 0 42.5 12
t17.5 37q0 44 -60 44h-46v-93z" />
    <glyph glyph-name="uni045A" unicode="&#x45a;" horiz-adv-x="962" 
d="M53 0v526h232v-166h102v166h232v-166h99q62 0 109.5 -15t81 -56.5t33.5 -106.5q0 -91 -65.5 -136.5t-158.5 -45.5h-331v201h-102v-201h-232zM619 139h46q25 0 42.5 12t17.5 36q0 43 -60 43h-46v-91z" />
    <glyph glyph-name="uni045B" unicode="&#x45b;" horiz-adv-x="666" 
d="M53 0v560h-53v120h53v76h231v-76h117v-120h-117v-106h2q21 31 59 51.5t85 20.5q53 0 91.5 -19t58.5 -52.5t29 -70t9 -78.5v-306h-232v266q0 72 -50 72q-22 0 -37 -18.5t-15 -54.5v-265h-231z" />
    <glyph glyph-name="uni045C" unicode="&#x45c;" horiz-adv-x="671" 
d="M53 0v526h232v-211h3l125 211h268l-170 -247l169 -279h-269l-123 219h-3v-219h-232zM403 584h-169l111 144h212z" />
    <glyph glyph-name="uni045D" unicode="&#x45d;" horiz-adv-x="700" 
d="M53 0v526h218v-282h3l130 282h243v-526h-217v266h-3l-126 -266h-248zM282 584l-154 144h212l111 -144h-169z" />
    <glyph glyph-name="uni045E" unicode="&#x45e;" horiz-adv-x="638" 
d="M154 -240q-69 0 -131 16l29 190q34 -12 65 -12q63 0 84 55l4 11l-213 506h256l78 -277h4l69 277h247l-216 -558q-41 -105 -103.5 -156.5t-172.5 -51.5zM326 584q-152 0 -177 134l103 20q5 -52 74 -52t74 52l103 -20q-25 -134 -177 -134z" />
    <glyph glyph-name="uni045F" unicode="&#x45f;" horiz-adv-x="672" 
d="M243 -108v108h-190v526h232v-355h102v355h232v-526h-191v-108h-185z" />
    <glyph glyph-name="uni0490" unicode="&#x490;" horiz-adv-x="548" 
d="M66 0v708h289v125h186v-326h-237v-507h-238z" />
    <glyph glyph-name="uni0491" unicode="&#x491;" horiz-adv-x="479" 
d="M53 0v526h241v108h170v-279h-179v-355h-232z" />
    <glyph glyph-name="Wgrave" unicode="&#x1e80;" horiz-adv-x="1077" 
d="M536 400l-103 -400h-240l-193 708h252l76 -398h4l82 398h249l89 -398h4l77 398h244l-197 -708h-240l-100 400h-4zM476 764l-154 144h212l111 -144h-169z" />
    <glyph glyph-name="wgrave" unicode="&#x1e81;" horiz-adv-x="973" 
d="M483 270l-79 -270h-229l-180 526h247l66 -272h4l68 272h222l73 -272h3l64 272h236l-182 -526h-230l-81 270h-2zM415 584l-154 144h212l111 -144h-169z" />
    <glyph glyph-name="Wacute" unicode="&#x1e82;" horiz-adv-x="1077" 
d="M536 400l-103 -400h-240l-193 708h252l76 -398h4l82 398h249l89 -398h4l77 398h244l-197 -708h-240l-100 400h-4zM601 764h-169l111 144h212z" />
    <glyph glyph-name="wacute" unicode="&#x1e83;" horiz-adv-x="973" 
d="M483 270l-79 -270h-229l-180 526h247l66 -272h4l68 272h222l73 -272h3l64 272h236l-182 -526h-230l-81 270h-2zM567 584h-169l111 144h212z" />
    <glyph glyph-name="Wdieresis" unicode="&#x1e84;" horiz-adv-x="1077" 
d="M536 400l-103 -400h-240l-193 708h252l76 -398h4l82 398h249l89 -398h4l77 398h244l-197 -708h-240l-100 400h-4zM563 858q0 40 30 69.5t71 29.5q40 0 69.5 -29.5t29.5 -69.5q0 -41 -29.5 -69.5t-69.5 -28.5q-42 0 -71.5 28.5t-29.5 69.5zM314 858q0 40 30 69.5t71 29.5
q40 0 69.5 -29.5t29.5 -69.5q0 -41 -29.5 -69.5t-69.5 -28.5q-42 0 -71.5 28.5t-29.5 69.5z" />
    <glyph glyph-name="wdieresis" unicode="&#x1e85;" horiz-adv-x="973" 
d="M483 270l-79 -270h-229l-180 526h247l66 -272h4l68 272h222l73 -272h3l64 272h236l-182 -526h-230l-81 270h-2zM509 678q0 40 30 69.5t71 29.5q40 0 69.5 -29.5t29.5 -69.5q0 -41 -29.5 -69.5t-69.5 -28.5q-42 0 -71.5 28.5t-29.5 69.5zM260 678q0 40 30 69.5t71 29.5
q40 0 69.5 -29.5t29.5 -69.5q0 -41 -29.5 -69.5t-69.5 -28.5q-42 0 -71.5 28.5t-29.5 69.5z" />
    <glyph glyph-name="Ygrave" unicode="&#x1ef2;" horiz-adv-x="738" 
d="M481 290v-290h-238v290l-267 418h287l112 -208l107 208h280zM296 764l-154 144h212l111 -144h-169z" />
    <glyph glyph-name="ygrave" unicode="&#x1ef3;" horiz-adv-x="638" 
d="M201 9l4 11l-213 506h256l78 -277h4l69 277h247l-216 -558q-41 -105 -103.5 -156.5t-172.5 -51.5q-69 0 -131 16l29 190q34 -12 65 -12q63 0 84 55zM240 584l-154 144h212l111 -144h-169z" />
    <glyph glyph-name="uni2010" unicode="&#x2010;" horiz-adv-x="336" 
d="M30 199v172h276v-172h-276z" />
    <glyph glyph-name="endash" unicode="&#x2013;" horiz-adv-x="400" 
d="M30 225v120h340v-120h-340z" />
    <glyph glyph-name="emdash" unicode="&#x2014;" horiz-adv-x="600" 
d="M30 225v120h540v-120h-540z" />
    <glyph glyph-name="quoteleft" unicode="&#x2018;" horiz-adv-x="342" 
d="M231 426h-189l99 282h164z" />
    <glyph glyph-name="quoteright" unicode="&#x2019;" horiz-adv-x="342" 
d="M111 708h189l-99 -282h-164z" />
    <glyph glyph-name="quotesinglbase" unicode="&#x201a;" horiz-adv-x="342" 
d="M111 156h189l-99 -282h-164z" />
    <glyph glyph-name="quotedblleft" unicode="&#x201c;" horiz-adv-x="568" 
d="M457 426h-184l94 282h164zM226 426h-184l99 282h164z" />
    <glyph glyph-name="quotedblright" unicode="&#x201d;" horiz-adv-x="568" 
d="M111 708h184l-94 -282h-164zM342 708h184l-99 -282h-164z" />
    <glyph glyph-name="quotedblbase" unicode="&#x201e;" horiz-adv-x="568" 
d="M111 156h184l-94 -282h-164zM342 156h184l-99 -282h-164z" />
    <glyph glyph-name="dagger" unicode="&#x2020;" horiz-adv-x="619" 
d="M399 341v-474h-184v474h-181v170h180v197h184v-197h187v-170h-186z" />
    <glyph glyph-name="daggerdbl" unicode="&#x2021;" horiz-adv-x="619" 
d="M401 36v-169h-183v169h-184v164h184v175h-184v164h183v169h183v-169h185v-164h-185v-175h185v-164h-184z" />
    <glyph glyph-name="bullet" unicode="&#x2022;" horiz-adv-x="500" 
d="M73 354q0 74 51.5 125.5t125.5 51.5t125.5 -51.5t51.5 -125.5t-51.5 -125.5t-125.5 -51.5t-125.5 51.5t-51.5 125.5z" />
    <glyph glyph-name="ellipsis" unicode="&#x2026;" horiz-adv-x="1000" 
d="M34 113q0 53 39.5 91.5t94.5 38.5q53 0 91.5 -38.5t38.5 -91.5q0 -54 -38.5 -91.5t-91.5 -37.5q-55 0 -94.5 37.5t-39.5 91.5zM366 113q0 53 39.5 91.5t94.5 38.5q53 0 91.5 -38.5t38.5 -91.5q0 -54 -38.5 -91.5t-91.5 -37.5q-55 0 -94.5 37.5t-39.5 91.5zM699 113
q0 53 39.5 91.5t94.5 38.5q53 0 91.5 -38.5t38.5 -91.5q0 -54 -38.5 -91.5t-91.5 -37.5q-55 0 -94.5 37.5t-39.5 91.5z" />
    <glyph glyph-name="perthousand" unicode="&#x2030;" horiz-adv-x="1264" 
d="M212 357q-76 0 -130.5 53t-54.5 128q0 76 54.5 129t130.5 53t130 -53t54 -129q0 -75 -54 -128t-130 -53zM212 594q-23 0 -39.5 -16.5t-16.5 -39.5q0 -22 16.5 -38t39.5 -16q22 0 38.5 16t16.5 38q0 23 -16.5 39.5t-38.5 16.5zM651 -12q-76 0 -130.5 53t-54.5 128
q0 76 54.5 129t130.5 53t130 -53t54 -129q0 -75 -54 -128t-130 -53zM651 225q-23 0 -39.5 -16.5t-16.5 -39.5q0 -22 16.5 -38t39.5 -16q22 0 38.5 16t16.5 38q0 23 -16.5 39.5t-38.5 16.5zM1053 -12q-76 0 -130.5 53t-54.5 128q0 76 54.5 129t130.5 53t130 -53t54 -129
q0 -75 -54 -128t-130 -53zM1053 225q-23 0 -39.5 -16.5t-16.5 -39.5q0 -22 16.5 -38t39.5 -16q22 0 38.5 16t16.5 38q0 23 -16.5 39.5t-38.5 16.5zM307 -27l-99 40l346 726l99 -45z" />
    <glyph glyph-name="guilsinglleft" unicode="&#x2039;" horiz-adv-x="350" 
d="M193 26l-176 248l176 248l129 -83l-115 -165l115 -165z" />
    <glyph glyph-name="guilsinglright" unicode="&#x203a;" horiz-adv-x="350" 
d="M158 26l-130 83l115 165l-115 165l130 83l175 -248z" />
    <glyph glyph-name="interrobang" unicode="&#x203d;" horiz-adv-x="587" 
d="M385 252h-210l-3 243h171l-5 -104l1 -1q45 50 45 98q0 34 -21 53.5t-61 19.5q-63 0 -84 -42l-199 28q16 84 92.5 132.5t189.5 48.5q125 0 200.5 -54.5t75.5 -161.5q0 -65 -34.5 -114t-111.5 -96q-29 -18 -37.5 -27t-8.5 -19v-4zM405 105q0 -51 -36 -86t-88 -35t-88 35
t-36 86q0 50 36 85.5t88 35.5t88 -35.5t36 -85.5z" />
    <glyph glyph-name="fraction" unicode="&#x2044;" horiz-adv-x="100" 
d="M-64 -27l-99 40l346 726l99 -45z" />
    <glyph glyph-name="zero.superior" unicode="&#x2070;" horiz-adv-x="450" 
d="M425 665q0 -33 -5 -63.5t-18.5 -63t-35 -56t-58 -39t-83.5 -15.5t-83.5 15.5t-58 39t-35 56t-18.5 63t-5 63.5q0 42 8.5 79.5t29.5 73.5t62.5 57.5t99.5 21.5t99.5 -21.5t62.5 -57.5t29.5 -73.5t8.5 -79.5zM271 665q0 104 -46 104t-46 -104q0 -108 46 -108t46 108z" />
    <glyph glyph-name="four.superior" unicode="&#x2074;" horiz-adv-x="450" 
d="M376 439h-136v79h-215v122l169 245h182v-250h60v-117h-60v-79zM242 635v113h-2l-75 -113h77z" />
    <glyph glyph-name="five.superior" unicode="&#x2075;" horiz-adv-x="450" 
d="M415 589q0 -85 -54 -123t-130 -38q-71 0 -125.5 36t-68.5 99l135 34q4 -19 18 -32t34 -13q41 0 41 34q0 41 -72 41q-57 0 -123 -14l15 272h304v-126h-176l-3 -30q18 3 35 3q73 0 121.5 -37t48.5 -106z" />
    <glyph glyph-name="six.superior" unicode="&#x2076;" horiz-adv-x="450" 
d="M420 598q0 -80 -56 -125t-139 -45t-139 43.5t-56 125.5q0 72 55 147l102 141h183l-111 -137l2 -1h7q61 0 106.5 -40.5t45.5 -108.5zM272 598q0 19 -13 31.5t-34 12.5q-20 0 -32.5 -12.5t-12.5 -31.5q0 -20 12.5 -33t32.5 -13q21 0 34 13t13 33z" />
    <glyph glyph-name="seven.superior" unicode="&#x2077;" horiz-adv-x="450" 
d="M252 439h-175l169 320h-191v126h356v-107z" />
    <glyph glyph-name="eight.superior" unicode="&#x2078;" horiz-adv-x="450" 
d="M410 568q0 -71 -54 -105.5t-131 -34.5q-78 0 -131.5 34.5t-53.5 105.5q0 35 20 62t54 41v1q-29 11 -48 36t-19 58q0 66 51.5 98.5t126.5 32.5q74 0 126 -32.5t52 -98.5q0 -34 -18 -58.5t-49 -34.5v-1q33 -12 53.5 -40t20.5 -64zM225 787q-16 0 -26.5 -10t-10.5 -23
q0 -14 10 -24.5t27 -10.5t27 10.5t10 24.5q0 13 -10.5 23t-26.5 10zM225 615q-19 0 -29.5 -11.5t-10.5 -26.5t10.5 -26t29.5 -11t29.5 11t10.5 26t-10.5 26.5t-29.5 11.5z" />
    <glyph glyph-name="nine.superior" unicode="&#x2079;" horiz-adv-x="450" 
d="M420 728q0 -70 -55 -148l-102 -141h-183l109 135l-1 3h-6q-61 0 -106.5 41t-45.5 109q0 80 56 125t139 45t139 -43.5t56 -125.5zM270 729q0 19 -12.5 32t-32.5 13q-21 0 -34 -13t-13 -32t13 -32.5t34 -13.5q20 0 32.5 13.5t12.5 32.5z" />
    <glyph glyph-name="zero.inferior" unicode="&#x2080;" horiz-adv-x="450" 
d="M425 76q0 -33 -5 -63.5t-18.5 -63t-35 -56t-58 -39t-83.5 -15.5t-83.5 15.5t-58 39t-35 56t-18.5 63t-5 63.5q0 42 8.5 79.5t29.5 73.5t62.5 57.5t99.5 21.5t99.5 -21.5t62.5 -57.5t29.5 -73.5t8.5 -79.5zM271 76q0 104 -46 104t-46 -104q0 -108 46 -108t46 108z" />
    <glyph glyph-name="one.inferior" unicode="&#x2081;" horiz-adv-x="450" 
d="M198 -150v288l-75 -52l-71 110l158 100h139v-446h-151z" />
    <glyph glyph-name="two.inferior" unicode="&#x2082;" horiz-adv-x="450" 
d="M415 -150h-362v117l182 147q19 17 19 33q0 30 -32 30q-18 0 -30.5 -14.5t-13.5 -38.5l-143 16q8 83 64.5 125.5t134.5 42.5q74 0 127 -36t53 -109q0 -49 -22.5 -80t-64.5 -61l-66 -46h154v-126z" />
    <glyph glyph-name="three.inferior" unicode="&#x2083;" horiz-adv-x="450" 
d="M349 85v-1q33 -11 50 -38t17 -61q0 -72 -53.5 -109t-126.5 -37q-72 0 -127.5 34t-71.5 103l136 33q4 -19 18 -32t35 -13q40 0 40 30q0 33 -63 33h-42v103h47q51 0 51 31q0 11 -9 19t-26 8q-15 0 -28 -11t-16 -29l-134 31q19 67 73 98t120 31t117.5 -31.5t51.5 -93.5
q0 -69 -59 -98z" />
    <glyph glyph-name="four.inferior" unicode="&#x2084;" horiz-adv-x="450" 
d="M376 -150h-136v79h-215v122l169 245h182v-250h60v-117h-60v-79zM242 46v113h-2l-75 -113h77z" />
    <glyph glyph-name="five.inferior" unicode="&#x2085;" horiz-adv-x="450" 
d="M415 0q0 -85 -54 -123t-130 -38q-71 0 -125.5 36t-68.5 99l135 34q4 -19 18 -32t34 -13q41 0 41 34q0 41 -72 41q-57 0 -123 -14l15 272h304v-126h-176l-3 -30q18 3 35 3q73 0 121.5 -37t48.5 -106z" />
    <glyph glyph-name="six.inferior" unicode="&#x2086;" horiz-adv-x="450" 
d="M420 9q0 -80 -56 -125t-139 -45t-139 43.5t-56 125.5q0 72 55 147l102 141h183l-111 -137l2 -1h7q61 0 106.5 -40.5t45.5 -108.5zM272 9q0 19 -13 31.5t-34 12.5q-20 0 -32.5 -12.5t-12.5 -31.5q0 -20 12.5 -33t32.5 -13q21 0 34 13t13 33z" />
    <glyph glyph-name="seven.inferior" unicode="&#x2087;" horiz-adv-x="450" 
d="M252 -150h-175l169 320h-191v126h356v-107z" />
    <glyph glyph-name="eight.inferior" unicode="&#x2088;" horiz-adv-x="450" 
d="M410 -21q0 -71 -54 -105.5t-131 -34.5q-78 0 -131.5 34.5t-53.5 105.5q0 35 20 62t54 41v1q-29 11 -48 36t-19 58q0 66 51.5 98.5t126.5 32.5q74 0 126 -32.5t52 -98.5q0 -34 -18 -58.5t-49 -34.5v-1q33 -12 53.5 -40t20.5 -64zM225 198q-16 0 -26.5 -10t-10.5 -23
q0 -14 10 -24.5t27 -10.5t27 10.5t10 24.5q0 13 -10.5 23t-26.5 10zM225 26q-19 0 -29.5 -11.5t-10.5 -26.5t10.5 -26t29.5 -11t29.5 11t10.5 26t-10.5 26.5t-29.5 11.5z" />
    <glyph glyph-name="nine.inferior" unicode="&#x2089;" horiz-adv-x="450" 
d="M420 139q0 -70 -55 -148l-102 -141h-183l109 135l-1 3h-6q-61 0 -106.5 41t-45.5 109q0 80 56 125t139 45t139 -43.5t56 -125.5zM270 140q0 19 -12.5 32t-32.5 13q-21 0 -34 -13t-13 -32t13 -32.5t34 -13.5q20 0 32.5 13.5t12.5 32.5z" />
    <glyph glyph-name="Euro" unicode="&#x20ac;" horiz-adv-x="700" 
d="M119 335q-1 9 -1 22q0 10 1 19h-87l47 131h58q37 107 133 164t226 57q100 0 167 -24l-66 -167q-51 17 -106 17q-38 0 -72 -12.5t-48 -34.5h232l-46 -131h-227q-1 -9 -1 -19q0 -13 1 -22h217l-43 -129h-145q12 -21 47.5 -34t74.5 -13q76 0 122 27l30 -173
q-64 -33 -175 -33q-122 0 -208 60.5t-115 165.5h-105l42 129h47z" />
    <glyph glyph-name="afii61248" unicode="&#x2105;" horiz-adv-x="955" 
d="M245 339q-92 0 -151 53t-59 140q0 86 60.5 140t151.5 54q36 0 72.5 -11.5t57.5 -27.5l-78 -113q-17 19 -47 19q-26 0 -44 -16t-18 -45q0 -28 18.5 -43t43.5 -15q29 0 48 19l79 -112q-53 -42 -134 -42zM300 -37l-98 53l420 723l97 -55zM920 184q0 -90 -60 -142.5
t-145 -52.5q-86 0 -145.5 52.5t-59.5 142.5q0 89 59.5 140.5t145.5 51.5q85 0 145 -51.5t60 -140.5zM774 184q0 24 -16 41.5t-43 17.5t-43 -17.5t-16 -41.5q0 -26 16 -43.5t43 -17.5q26 0 42.5 17.5t16.5 43.5z" />
    <glyph glyph-name="afii61289" unicode="&#x2113;" horiz-adv-x="500" 
d="M465 56q-85 -70 -181 -70q-82 0 -127.5 42.5t-45.5 108.5v25l-54 -45h-2l-54 84l109 86v233q0 85 54 143t138 58q73 0 116.5 -42.5t43.5 -112.5q0 -77 -47 -149t-149 -154v-101q0 -33 16.5 -48t40.5 -15q36 0 88 37h2zM336 557q0 26 -9.5 44t-25.5 18q-15 0 -25 -19.5
t-10 -49.5v-157q70 71 70 164z" />
    <glyph glyph-name="uni2116" unicode="&#x2116;" horiz-adv-x="1095" 
d="M66 0v708h237l152 -319h4v319h226v-708h-243l-146 298h-4v-298h-226zM763 276v104h292v-104h-292zM903 416q-66 0 -113 41.5t-47 112.5q0 69 47 109.5t113 40.5q68 0 115 -40.5t47 -109.5q0 -71 -47 -112.5t-115 -41.5zM904 522q20 0 33 14t13 34q0 18 -13.5 32t-33.5 14
t-32.5 -13.5t-12.5 -32.5q0 -20 13 -34t33 -14z" />
    <glyph glyph-name="published" unicode="&#x2117;" horiz-adv-x="800" 
d="M20 353q0 157 111.5 267t269.5 110q157 0 268 -110t111 -267q0 -156 -111 -265.5t-268 -109.5q-158 0 -269.5 109.5t-111.5 265.5zM80 353q0 -132 92.5 -225.5t224.5 -93.5t227.5 93.5t95.5 225.5q0 133 -93.5 227t-225.5 94q-133 0 -227 -94t-94 -227zM249 123v448h191
q80 0 132.5 -36t52.5 -117q0 -78 -53 -116.5t-132 -38.5h-45v-140h-146zM395 372h34q52 0 52 44q0 43 -52 43h-34v-87z" />
    <glyph glyph-name="trademark" unicode="&#x2122;" horiz-adv-x="1000" 
d="M152 296v309h-112v103h346v-103h-112v-309h-122zM446 296v412h164l89 -248l83 248h163v-412h-112v245h-2l-92 -245h-91l-89 245h-2v-245h-111z" />
    <glyph glyph-name="Omega" unicode="&#x2126;" horiz-adv-x="796" 
d="M626 164h125v-164h-314v279q82 23 82 118q0 52 -31 82.5t-81 30.5q-48 0 -79 -31.5t-31 -81.5q0 -96 82 -118v-279h-314v164h125v11q-66 16 -105.5 80.5t-39.5 152.5q0 153 102.5 236.5t259.5 83.5q159 0 261.5 -82.5t102.5 -237.5q0 -91 -41 -155t-104 -78v-11z" />
    <glyph glyph-name="estimated" unicode="&#x212e;" horiz-adv-x="500" 
d="M561 259h-404v-181q59 -59 145 -59q122 0 193 120l35 -21q-46 -72 -98 -103.5t-130 -31.5q-115 0 -186.5 79t-71.5 197q0 119 71 197.5t187 78.5q115 0 186.5 -77t72.5 -199zM157 295h291v145q-63 60 -147 60t-144 -60v-145z" />
    <glyph glyph-name="partialdiff" unicode="&#x2202;" horiz-adv-x="776" 
d="M664 360q0 -50 -6 -95.5t-25 -98t-50 -90.5t-85 -63.5t-125 -25.5q-121 0 -198 67.5t-77 181.5q0 103 68 169t193 66q48 0 87 -17q-9 79 -103 79q-79 0 -155 -63l-95 154q110 97 263 97q69 0 123.5 -22.5t88.5 -58t56 -84t31 -97t9 -99.5zM456 303v2q-27 16 -67 16
q-35 0 -55 -19.5t-20 -55.5q0 -38 20.5 -57.5t42.5 -19.5q43 0 60 32.5t19 101.5z" />
    <glyph glyph-name="Delta" unicode="&#x2206;" horiz-adv-x="799" 
d="M754 132v-132h-727v132l238 576h253zM388 461l-101 -279h199z" />
    <glyph glyph-name="product" unicode="&#x220f;" horiz-adv-x="765" 
d="M711 -214h-190v837h-277v-837h-188v1000h655v-1000z" />
    <glyph glyph-name="summation" unicode="&#x2211;" horiz-adv-x="684" 
d="M664 -214h-637v133q47 63 140.5 187t140.5 186q-44 60 -134.5 180.5t-135.5 180.5v133h615v-163h-382q39 -55 118.5 -165t118.5 -165l-253 -344h409v-163z" />
    <glyph glyph-name="minus" unicode="&#x2212;" horiz-adv-x="666" 
d="M74 376h518v-144h-518v144z" />
    <glyph glyph-name="uni2215" unicode="&#x2215;" horiz-adv-x="100" 
d="M-64 -27l-99 40l346 726l99 -45z" />
    <glyph glyph-name="uni2219" unicode="&#x2219;" 
d="M48 289q0 53 39.5 91.5t94.5 38.5q53 0 91.5 -38.5t38.5 -91.5q0 -54 -38.5 -91.5t-91.5 -37.5q-55 0 -94.5 37.5t-39.5 91.5z" />
    <glyph glyph-name="radical" unicode="&#x221a;" horiz-adv-x="601" 
d="M609 786l-217 -1000h-146q-23 47 -69 141.5t-69 141.5l-51 -23l-67 138q34 15 101.5 45.5t100.5 44.5q15 -34 47.5 -102.5t47.5 -102.5l148 717h174z" />
    <glyph glyph-name="infinity" unicode="&#x221e;" horiz-adv-x="859" 
d="M814 269q0 -85 -53 -142.5t-144 -57.5q-101 0 -187 94q-42 -44 -84 -68.5t-100 -24.5q-91 0 -146 56t-55 142q0 84 53.5 139.5t143.5 55.5q59 0 103 -26.5t85 -72.5q85 100 188 100q90 0 143 -55.5t53 -139.5zM668 266q0 26 -14.5 41t-39.5 15q-38 0 -93 -57
q50 -54 96 -54q23 0 37 15.5t14 39.5zM338 265q-60 56 -96 56q-22 0 -36.5 -16t-14.5 -39q0 -25 14.5 -39.5t39.5 -14.5q40 0 93 53z" />
    <glyph glyph-name="integral" unicode="&#x222b;" horiz-adv-x="655" 
d="M552 683q0 -34 -22.5 -58t-57.5 -24q-14 0 -26.5 5.5t-18 11.5t-14.5 16.5t-11 13.5q-7 -17 -7 -46v-12q0 -11 0.5 -33t0.5 -33v-409q0 -73 -4 -108q-16 -220 -188 -220q-49 0 -93 27.5t-44 80.5q0 19 10 36q23 39 71 39q18 0 29.5 -6.5t23.5 -21t13 -15.5q8 22 8 48
q1 0 0 10v10q0 7 -0.5 19.5t-0.5 18.5v486q0 265 195 265q46 0 91 -25t45 -76z" />
    <glyph glyph-name="approxequal" unicode="&#x2248;" horiz-adv-x="666" 
d="M619 485q-9 -110 -57 -161t-116 -51q-42 0 -124 29.5t-115 29.5q-28 0 -38 -41h-121q7 83 50 138t128 55q40 0 117 -26t115 -26q33 0 38 53h123zM619 251q-5 -36 -15 -67t-28.5 -62t-51 -49t-75.5 -18q-44 0 -128 30.5t-114 30.5q-32 0 -40 -56h-121q7 87 49 148.5
t121 61.5q42 0 122 -28t122 -28q24 0 36 37h123z" />
    <glyph glyph-name="notequal" unicode="&#x2260;" horiz-adv-x="666" 
d="M597 58h-282l-74 -148q-23 11 -70.5 33t-71.5 34l44 81h-74v152h153l24 45l24 45h-201v152h280l78 147q23 -10 70 -32.5t70 -33.5q-8 -13 -22 -40.5t-21 -40.5h73v-152h-152q-7 -15 -23.5 -45t-24.5 -45h200v-152z" />
    <glyph glyph-name="lessequal" unicode="&#x2264;" horiz-adv-x="666" 
d="M588 7h-510v139h510v-139zM588 163l-510 203v134l510 203v-162q-45 -19 -136.5 -55.5t-137.5 -55.5l274 -103v-164z" />
    <glyph glyph-name="greaterequal" unicode="&#x2265;" horiz-adv-x="666" 
d="M588 7h-510v139h510v-139zM588 366l-510 -203v164l274 103q-45 19 -137 55.5t-137 55.5v162l510 -203v-134z" />
    <glyph glyph-name="lozenge" unicode="&#x25ca;" horiz-adv-x="619" 
d="M568 356l-190 -391h-140l-185 391q31 65 93 195.5t94 195.5h138zM395 356q-14 33 -43.5 98.5t-43.5 98.5q-15 -32 -42.5 -98t-41.5 -99q14 -32 42 -98t42 -98q14 32 43.5 98t43.5 98z" />
    <glyph glyph-name="f_i" unicode="&#xf001;" horiz-adv-x="756" 
d="M426 598q-22 9 -45 9q-61 0 -61 -74v-7h111v-165h-111v-361h-230v361h-90v165h90v12q0 248 246 248q67 0 105 -15zM471 0v526h231v-526h-231zM467 678q0 48 36 83t85 35q47 0 82.5 -35t35.5 -83q0 -49 -35 -83t-83 -34q-50 0 -85.5 34t-35.5 83z" />
    <glyph glyph-name="f_l" unicode="&#xf002;" horiz-adv-x="759" 
d="M426 598q-22 9 -45 9q-61 0 -61 -74v-7h111v-165h-111v-361h-230v361h-90v165h90v12q0 248 246 248q67 0 105 -15zM470 0v756h236v-756h-236z" />
    <glyph glyph-name="uniF8FF" unicode="&#xf8ff;" horiz-adv-x="512" 
d="M278 117h-56v67h56v-67zM271 234h-46l-2 17q0 56 13 81q15 28 46 59q31 29 40.5 46t9.5 37q0 36 -22.5 60.5t-53.5 24.5q-71 0 -82 -95l-50 8q7 69 43 103t92 34q54 0 89 -36t35 -95q0 -34 -13 -60t-50 -60q-37 -33 -43 -52q-6 -20 -6 -72zM50 50h412v617h-412v-617z
M0 718h512v-718h-512v718z" />
    <glyph glyph-name="grave.cap" 
d="M118 764l-154 144h212l111 -144h-169z" />
    <glyph glyph-name="acute.cap" 
d="M242 764h-169l111 144h212z" />
    <glyph glyph-name="circumflex.cap" 
d="M246 764l-67 68l-67 -68h-152l137 144h169l134 -144h-154z" />
    <glyph glyph-name="caron.cap" 
d="M246 908h154l-134 -144h-169l-137 144h152l67 -68z" />
    <glyph glyph-name="caron.alt" 
d="M121 708h189l-87 -177h-164z" />
    <glyph glyph-name="tilde.cap" 
d="M367 900q-3 -61 -33.5 -100t-80.5 -39q-38 0 -81 23q-41 22 -63 22q-30 0 -37 -36h-80q3 59 33 97.5t80 38.5q37 0 83 -24q43 -22 65 -22q28 0 35 40h79z" />
    <glyph glyph-name="dieresis.cap" 
d="M205 858q0 40 30 69.5t71 29.5q40 0 69.5 -29.5t29.5 -69.5q0 -41 -29.5 -69.5t-69.5 -28.5q-42 0 -71.5 28.5t-29.5 69.5zM-44 858q0 40 30 69.5t71 29.5q40 0 69.5 -29.5t29.5 -69.5q0 -41 -29.5 -69.5t-69.5 -28.5q-42 0 -71.5 28.5t-29.5 69.5z" />
    <glyph glyph-name="macron.cap" 
d="M0 791v96h360v-96h-360z" />
    <glyph glyph-name="breve.cap" 
d="M180 764q-170 0 -180 144h110q4 -39 70 -39t70 39h110q-10 -144 -180 -144z" />
    <glyph glyph-name="ring.cap" 
d="M295 857q0 -48 -34 -81t-81 -33t-81 33t-34 81t34 81t81 33t81 -33t34 -81zM240 857q0 25 -17.5 42t-42.5 17t-42.5 -17t-17.5 -42t17.5 -42t42.5 -17t42.5 17t17.5 42z" />
    <glyph glyph-name="hungarumlaut.cap" 
d="M114 764h-169l111 144h212zM357 764h-169l111 144h212z" />
    <glyph glyph-name="dotaccent.cap" 
d="M72 858q0 44 32 75t77 31q43 0 74.5 -31.5t31.5 -74.5q0 -44 -31.5 -74.5t-74.5 -30.5q-45 0 -77 30.5t-32 74.5z" />
    <glyph glyph-name="commaaccent" 
d="M101 -45h189l-93 -195h-164z" />
    <glyph glyph-name="commaaccent.alt" 
d="M231 584h-189l93 195h164z" />
    <glyph glyph-name="zero.denominator" horiz-adv-x="450" 
d="M425 226q0 -33 -5 -63.5t-18.5 -63t-35 -56t-58 -39t-83.5 -15.5t-83.5 15.5t-58 39t-35 56t-18.5 63t-5 63.5q0 42 8.5 79.5t29.5 73.5t62.5 57.5t99.5 21.5t99.5 -21.5t62.5 -57.5t29.5 -73.5t8.5 -79.5zM271 226q0 104 -46 104t-46 -104q0 -108 46 -108t46 108z" />
    <glyph glyph-name="one.denominator" horiz-adv-x="450" 
d="M198 0v288l-75 -52l-71 110l158 100h139v-446h-151z" />
    <glyph glyph-name="two.denominator" horiz-adv-x="450" 
d="M415 0h-362v117l182 147q19 17 19 33q0 30 -32 30q-18 0 -30.5 -14.5t-13.5 -38.5l-143 16q8 83 64.5 125.5t134.5 42.5q74 0 127 -36t53 -109q0 -49 -22.5 -80t-64.5 -61l-66 -46h154v-126z" />
    <glyph glyph-name="three.denominator" horiz-adv-x="450" 
d="M349 235v-1q33 -11 50 -38t17 -61q0 -72 -53.5 -109t-126.5 -37q-72 0 -127.5 34t-71.5 103l136 33q4 -19 18 -32t35 -13q40 0 40 30q0 33 -63 33h-42v103h47q51 0 51 31q0 11 -9 19t-26 8q-15 0 -28 -11t-16 -29l-134 31q19 67 73 98t120 31t117.5 -31.5t51.5 -93.5
q0 -69 -59 -98z" />
    <glyph glyph-name="four.denominator" horiz-adv-x="450" 
d="M376 0h-136v79h-215v122l169 245h182v-250h60v-117h-60v-79zM242 196v113h-2l-75 -113h77z" />
    <glyph glyph-name="five.denominator" horiz-adv-x="450" 
d="M415 150q0 -85 -54 -123t-130 -38q-71 0 -125.5 36t-68.5 99l135 34q4 -19 18 -32t34 -13q41 0 41 34q0 41 -72 41q-57 0 -123 -14l15 272h304v-126h-176l-3 -30q18 3 35 3q73 0 121.5 -37t48.5 -106z" />
    <glyph glyph-name="six.denominator" horiz-adv-x="450" 
d="M420 159q0 -80 -56 -125t-139 -45t-139 43.5t-56 125.5q0 72 55 147l102 141h183l-111 -137l2 -1h7q61 0 106.5 -40.5t45.5 -108.5zM272 159q0 19 -13 31.5t-34 12.5q-20 0 -32.5 -12.5t-12.5 -31.5q0 -20 12.5 -33t32.5 -13q21 0 34 13t13 33z" />
    <glyph glyph-name="seven.denominator" horiz-adv-x="450" 
d="M252 0h-175l169 320h-191v126h356v-107z" />
    <glyph glyph-name="eight.denominator" horiz-adv-x="450" 
d="M410 129q0 -71 -54 -105.5t-131 -34.5q-78 0 -131.5 34.5t-53.5 105.5q0 35 20 62t54 41v1q-29 11 -48 36t-19 58q0 66 51.5 98.5t126.5 32.5q74 0 126 -32.5t52 -98.5q0 -34 -18 -58.5t-49 -34.5v-1q33 -12 53.5 -40t20.5 -64zM225 348q-16 0 -26.5 -10t-10.5 -23
q0 -14 10 -24.5t27 -10.5t27 10.5t10 24.5q0 13 -10.5 23t-26.5 10zM225 176q-19 0 -29.5 -11.5t-10.5 -26.5t10.5 -26t29.5 -11t29.5 11t10.5 26t-10.5 26.5t-29.5 11.5z" />
    <glyph glyph-name="nine.denominator" horiz-adv-x="450" 
d="M420 289q0 -70 -55 -148l-102 -141h-183l109 135l-1 3h-6q-61 0 -106.5 41t-45.5 109q0 80 56 125t139 45t139 -43.5t56 -125.5zM270 290q0 19 -12.5 32t-32.5 13q-21 0 -34 -13t-13 -32t13 -32.5t34 -13.5q20 0 32.5 13.5t12.5 32.5z" />
    <glyph glyph-name="zero.numerator" horiz-adv-x="450" 
d="M425 488q0 -33 -5 -63.5t-18.5 -63t-35 -56t-58 -39t-83.5 -15.5t-83.5 15.5t-58 39t-35 56t-18.5 63t-5 63.5q0 42 8.5 79.5t29.5 73.5t62.5 57.5t99.5 21.5t99.5 -21.5t62.5 -57.5t29.5 -73.5t8.5 -79.5zM271 488q0 104 -46 104t-46 -104q0 -108 46 -108t46 108z" />
    <glyph glyph-name="one.numerator" horiz-adv-x="450" 
d="M198 262v288l-75 -52l-71 110l158 100h139v-446h-151z" />
    <glyph glyph-name="two.numerator" horiz-adv-x="450" 
d="M415 262h-362v117l182 147q19 17 19 33q0 30 -32 30q-18 0 -30.5 -14.5t-13.5 -38.5l-143 16q8 83 64.5 125.5t134.5 42.5q74 0 127 -36t53 -109q0 -49 -22.5 -80t-64.5 -61l-66 -46h154v-126z" />
    <glyph glyph-name="three.numerator" horiz-adv-x="450" 
d="M349 479v-1q33 -11 50 -38t17 -61q0 -72 -53.5 -109t-126.5 -37q-72 0 -127.5 34t-71.5 103l136 33q4 -19 18 -32t35 -13q40 0 40 30q0 33 -63 33h-42v103h47q51 0 51 31q0 11 -9 19t-26 8q-15 0 -28 -11t-16 -29l-134 31q19 67 73 98t120 31t117.5 -31.5t51.5 -93.5
q0 -69 -59 -98z" />
    <glyph glyph-name="four.numerator" horiz-adv-x="450" 
d="M376 262h-136v79h-215v122l169 245h182v-250h60v-117h-60v-79zM242 458v113h-2l-75 -113h77z" />
    <glyph glyph-name="five.numerator" horiz-adv-x="450" 
d="M415 412q0 -85 -54 -123t-130 -38q-71 0 -125.5 36t-68.5 99l135 34q4 -19 18 -32t34 -13q41 0 41 34q0 41 -72 41q-57 0 -123 -14l15 272h304v-126h-176l-3 -30q18 3 35 3q73 0 121.5 -37t48.5 -106z" />
    <glyph glyph-name="six.numerator" horiz-adv-x="450" 
d="M420 421q0 -80 -56 -125t-139 -45t-139 43.5t-56 125.5q0 72 55 147l102 141h183l-111 -137l2 -1h7q61 0 106.5 -40.5t45.5 -108.5zM272 421q0 19 -13 31.5t-34 12.5q-20 0 -32.5 -12.5t-12.5 -31.5q0 -20 12.5 -33t32.5 -13q21 0 34 13t13 33z" />
    <glyph glyph-name="seven.numerator" horiz-adv-x="450" 
d="M252 262h-175l169 320h-191v126h356v-107z" />
    <glyph glyph-name="eight.numerator" horiz-adv-x="450" 
d="M410 391q0 -71 -54 -105.5t-131 -34.5q-78 0 -131.5 34.5t-53.5 105.5q0 35 20 62t54 41v1q-29 11 -48 36t-19 58q0 66 51.5 98.5t126.5 32.5q74 0 126 -32.5t52 -98.5q0 -34 -18 -58.5t-49 -34.5v-1q33 -12 53.5 -40t20.5 -64zM225 610q-16 0 -26.5 -10t-10.5 -23
q0 -14 10 -24.5t27 -10.5t27 10.5t10 24.5q0 13 -10.5 23t-26.5 10zM225 438q-19 0 -29.5 -11.5t-10.5 -26.5t10.5 -26t29.5 -11t29.5 11t10.5 26t-10.5 26.5t-29.5 11.5z" />
    <glyph glyph-name="nine.numerator" horiz-adv-x="450" 
d="M420 551q0 -70 -55 -148l-102 -141h-183l109 135l-1 3h-6q-61 0 -106.5 41t-45.5 109q0 80 56 125t139 45t139 -43.5t56 -125.5zM270 552q0 19 -12.5 32t-32.5 13q-21 0 -34 -13t-13 -32t13 -32.5t34 -13.5q20 0 32.5 13.5t12.5 32.5z" />
    <glyph glyph-name="cyrbreve" 
d="M180 584q-152 0 -177 134l103 20q5 -52 74 -52t74 52l103 -20q-25 -134 -177 -134z" />
    <glyph glyph-name="cyrbreve.cap" 
d="M180 763q-167 0 -195 148l113 22q6 -57 82 -57t82 57l113 -22q-28 -148 -195 -148z" />
    <glyph glyph-name="exclam.sc" horiz-adv-x="420" 
d="M210 -17q-52 0 -86 32.5t-34 82.5q0 48 34.5 81t85.5 33t85.5 -33t34.5 -81q0 -50 -34 -82.5t-86 -32.5zM93 251v343h234v-343h-234z" />
    <glyph glyph-name="dollar.sc" horiz-adv-x="640" 
d="M279 590v56h97v-53q114 -13 198 -70l-115 -136q-57 36 -107 36q-42 0 -42 -24q0 -10 14 -17t59 -17q76 -15 126 -56t50 -115q0 -85 -56 -132t-137 -60v-64h-98v62q-130 13 -215 78l118 138q57 -52 127 -52q35 0 35 22q0 13 -19 22t-68 21q-64 15 -110.5 54.5t-46.5 111.5
q0 84 56 132.5t134 62.5z" />
    <glyph glyph-name="percent.sc" horiz-adv-x="850" 
d="M203 283q-69 0 -118.5 46.5t-49.5 118.5t49.5 118t118.5 46q70 0 119.5 -46t49.5 -118q0 -73 -49.5 -119t-119.5 -46zM203 399q21 0 36 14t15 36t-15 36t-36 14t-36 -14t-15 -36t15 -36t36 -14zM648 -17q-69 0 -118.5 46.5t-49.5 118.5t49.5 118t118.5 46q70 0 119.5 -46
t49.5 -118q0 -73 -49.5 -119t-119.5 -46zM648 99q21 0 36 14t15 36t-15 36t-36 14t-36 -14t-15 -36t15 -36t36 -14zM291 -37l-92 54l344 592l93 -54z" />
    <glyph glyph-name="ampersand.sc" horiz-adv-x="800" 
d="M507 0l-28 28q-70 -48 -173 -48q-121 0 -192.5 50t-71.5 142q0 58 33 99.5t90 60.5q-53 42 -53 109q0 75 64 124t169 49q104 0 163.5 -46t59.5 -120q0 -102 -123 -153l40 -35l45 52h256l-165 -169l160 -143h-274zM344 478q-17 0 -28 -12t-11 -27q0 -25 31 -47
q47 12 47 45q0 17 -11 29t-28 12zM348 159l-69 67q-13 -4 -22.5 -15t-9.5 -25q0 -22 17 -32.5t35 -10.5q31 0 49 16z" />
    <glyph glyph-name="parenleft.sc" horiz-adv-x="327" 
d="M183 295q0 -190 107 -342l-147 -54q-126 174 -126 396q0 221 126 395l147 -54q-107 -152 -107 -341z" />
    <glyph glyph-name="parenright.sc" horiz-adv-x="327" 
d="M310 294q0 -221 -126 -395l-147 54q107 152 107 341q0 190 -107 342l147 54q126 -174 126 -396z" />
    <glyph glyph-name="bracketleft.sc" horiz-adv-x="327" 
d="M272 -76h-236v741h236v-129h-74v-483h74v-129z" />
    <glyph glyph-name="backslash.sc" horiz-adv-x="402" 
d="M405 -4l-155 -48l-253 651l156 48z" />
    <glyph glyph-name="bracketright.sc" horiz-adv-x="327" 
d="M291 -76h-236v129h74v483h-74v129h236v-741z" />
    <glyph glyph-name="braceleft.sc" horiz-adv-x="327" 
d="M285 -76h-88q-138 0 -138 161v81q0 62 -57 62v133q57 0 57 62v81q0 161 138 161h88v-129h-24q-44 0 -44 -50v-79q0 -47 -24.5 -77t-63.5 -35v-1q39 -5 63.5 -35t24.5 -77v-79q0 -50 44 -50h24v-129z" />
    <glyph glyph-name="slash.sc" horiz-adv-x="402" 
d="M152 -52l-155 48l252 651l156 -48z" />
    <glyph glyph-name="braceright.sc" horiz-adv-x="327" 
d="M130 -76h-88v129h24q44 0 44 50v79q0 47 24.5 77t63.5 35v1q-39 5 -63.5 35t-24.5 77v79q0 50 -44 50h-24v129h88q138 0 138 -161v-81q0 -62 57 -62v-133q-57 0 -57 -62v-81q0 -161 -138 -161z" />
    <glyph glyph-name="zero.sc" horiz-adv-x="640" 
d="M320 -20q-67 0 -119.5 21t-84 53t-52 76t-28 85.5t-7.5 84.5q0 44 7.5 84.5t28 83.5t52 74.5t84 51.5t119.5 20q84 0 144 -29.5t90.5 -78.5t43.5 -99.5t13 -106.5t-13 -107t-43.5 -101.5t-91 -81t-143.5 -30.5zM320 440q-36 0 -52 -41.5t-16 -98.5q0 -59 16 -101.5
t52 -42.5q19 0 33 13t21.5 35t10.5 45.5t3 50.5q0 36 -5.5 65.5t-21.5 52t-41 22.5z" />
    <glyph glyph-name="one.sc" horiz-adv-x="640" 
d="M252 0v367l-103 -66l-105 160l214 133h232v-594h-238z" />
    <glyph glyph-name="two.sc" horiz-adv-x="640" 
d="M70 159l252 187q28 22 28 48q0 13 -9 23.5t-25 10.5q-20 0 -34.5 -16t-15.5 -48l-220 27q7 74 52 126t104 74.5t126 22.5q46 0 91 -11t85 -33.5t65 -63.5t25 -95q0 -57 -26.5 -97t-88.5 -81l-89 -60h204v-173h-524v159z" />
    <glyph glyph-name="three.sc" horiz-adv-x="640" 
d="M489 315v-3q51 -12 78.5 -48t27.5 -82q0 -69 -41 -116.5t-100.5 -66.5t-132.5 -19q-105 0 -182.5 44.5t-99.5 132.5l211 53q4 -24 22 -38t42 -14q19 0 33.5 9.5t14.5 27.5q0 24 -20.5 33.5t-61.5 9.5h-60v132h67q68 0 68 42q0 32 -41 32q-18 0 -33.5 -12t-19.5 -33
l-210 48q55 167 275 167q69 0 125.5 -17.5t95 -59.5t38.5 -103q0 -94 -96 -119z" />
    <glyph glyph-name="four.sc" horiz-adv-x="640" 
d="M538 105v-105h-210v105h-297v178l215 311h292v-333h75v-156h-75zM328 393h-3l-88 -132h91v132z" />
    <glyph glyph-name="five.sc" horiz-adv-x="640" 
d="M584 200q0 -59 -23.5 -103.5t-63 -69t-85.5 -36t-97 -11.5q-102 0 -176 44t-99 134l211 55q6 -26 22.5 -39t35.5 -13q24 0 36 10.5t12 26.5q0 32 -27 43.5t-75 11.5q-64 0 -166 -22l25 363h439v-166h-239l-4 -42q32 4 45 4q99 0 164 -48t65 -142z" />
    <glyph glyph-name="six.sc" horiz-adv-x="640" 
d="M376 408q11 0 16 -1q95 -5 152 -56t57 -141q0 -105 -76 -167.5t-202 -62.5t-203 60t-77 168q0 106 76 207l133 179h273l-141 -176zM323 276q-25 0 -42.5 -17t-17.5 -44q0 -26 17.5 -43.5t42.5 -17.5t42.5 17.5t17.5 43.5q0 27 -17.5 44t-42.5 17z" />
    <glyph glyph-name="seven.sc" horiz-adv-x="640" 
d="M364 0h-260l225 418h-251v176h489v-178z" />
    <glyph glyph-name="eight.sc" horiz-adv-x="640" 
d="M320 468q-23 0 -37.5 -14.5t-14.5 -32.5q0 -20 14.5 -34.5t37.5 -14.5q24 0 38.5 14.5t14.5 34.5q0 18 -14.5 32.5t-38.5 14.5zM320 244q-26 0 -41 -16t-15 -39t15 -37.5t41 -14.5q27 0 40.5 14.5t13.5 37.5q0 24 -13.5 39.5t-40.5 15.5zM495 312v-3q47 -16 77.5 -53.5
t30.5 -85.5q0 -65 -43 -109t-105 -62.5t-135 -18.5q-74 0 -136 18t-105 62t-43 109q0 47 30 83.5t80 55.5v3q-41 14 -69.5 47t-28.5 77q0 59 41 101t100.5 60t130.5 18q110 0 191 -46t81 -133q0 -45 -26.5 -78t-70.5 -45z" />
    <glyph glyph-name="nine.sc" horiz-adv-x="640" 
d="M262 186q-10 0 -15 1q-95 5 -152 56t-57 141q0 105 76 167.5t201 62.5t202.5 -60t77.5 -168q0 -104 -77 -207l-131 -179h-273l141 176zM315 324q25 0 42.5 17t17.5 44q0 26 -17.5 43.5t-42.5 17.5t-42 -17.5t-17 -43.5q0 -27 17 -44t42 -17z" />
    <glyph glyph-name="question.sc" horiz-adv-x="550" 
d="M422 295q-36 -16 -36 -41v-9h-197v20q0 43 22.5 71t66.5 52l11 6q32 18 32 34q0 14 -10 22.5t-25 8.5q-27 0 -39 -16t-12 -37l-196 22q11 96 82 141t181 45q60 0 108.5 -14.5t84 -55t35.5 -101.5q0 -57 -27 -90t-81 -58zM291 -17q-52 0 -86 32.5t-34 82.5q0 48 34.5 81
t85.5 33t85.5 -33t34.5 -81q0 -50 -34 -82.5t-86 -32.5z" />
    <glyph glyph-name="a.sc" horiz-adv-x="686" 
d="M-10 0l232 594h246l228 -594h-245l-27 85h-166l-27 -85h-241zM390 230l-48 154l-49 -154h97z" />
    <glyph glyph-name="b.sc" horiz-adv-x="636" 
d="M61 594h279q38 0 68.5 -3t63.5 -13t55 -26.5t36.5 -46t14.5 -69.5q0 -94 -89 -121v-4q54 -8 84.5 -44t30.5 -95q0 -91 -68.5 -131.5t-180.5 -40.5h-294v594zM276 241v-86h59q21 0 34 11.5t13 32.5q0 42 -50 42h-56zM276 440v-81h52q18 0 32 11t14 30q0 40 -46 40h-52z
" />
    <glyph glyph-name="c.sc" horiz-adv-x="579" 
d="M370 -20q-151 0 -245.5 87t-94.5 231q0 142 96.5 229t246.5 87q60 0 119.5 -18t94.5 -45l-122 -176q-30 36 -84 36q-46 0 -79.5 -30t-33.5 -83q0 -54 33.5 -83.5t79.5 -29.5q52 0 85 37l123 -173q-38 -30 -97 -49.5t-122 -19.5z" />
    <glyph glyph-name="d.sc" horiz-adv-x="689" 
d="M312 0h-251v594h234q77 0 139 -14.5t114.5 -47t81.5 -91.5t29 -141q0 -148 -99 -224t-248 -76zM283 409v-222h15q63 0 95.5 26.5t32.5 87.5q0 52 -32 80t-89 28h-22z" />
    <glyph glyph-name="e.sc" horiz-adv-x="543" 
d="M61 0v594h428v-166h-212v-52h199v-153h-199v-56h227v-167h-443z" />
    <glyph glyph-name="f.sc" horiz-adv-x="513" 
d="M287 428v-66h174v-162h-173v-200h-227v594h424v-166h-198z" />
    <glyph glyph-name="g.sc" horiz-adv-x="650" 
d="M364 -20q-146 0 -240 87.5t-94 229.5q0 141 95 229t236 88q147 0 240 -76l-129 -157q-40 37 -99 37q-46 0 -80.5 -32.5t-34.5 -91.5q0 -62 29.5 -96.5t84.5 -34.5q18 0 48 8v43h-95v142h286v-307q-45 -29 -112 -49t-135 -20z" />
    <glyph glyph-name="h.sc" horiz-adv-x="716" 
d="M422 0v219h-128v-219h-233v594h232v-199h128v199h234v-594h-233z" />
    <glyph glyph-name="i.sc" horiz-adv-x="358" 
d="M61 0v594h236v-594h-236z" />
    <glyph glyph-name="j.sc" horiz-adv-x="541" 
d="M245 -20q-98 0 -163.5 43.5t-89.5 123.5l182 79q8 -39 41 -39q35 0 35 44v363h236v-377q0 -100 -59.5 -168.5t-181.5 -68.5z" />
    <glyph glyph-name="k.sc" horiz-adv-x="671" 
d="M401 0l-115 234h-1v-234h-224v594h223v-216h2l115 216h269l-186 -271l197 -323h-280z" />
    <glyph glyph-name="l.sc" horiz-adv-x="499" 
d="M61 0v594h234v-410h184v-184h-418z" />
    <glyph glyph-name="m.sc" horiz-adv-x="883" 
d="M354 0l-82 310h-4l4 -310h-211v594h290l88 -300h5l79 300h299v-594h-224l3 310h-4l-82 -310h-161z" />
    <glyph glyph-name="n.sc" horiz-adv-x="710" 
d="M61 0v594h231l140 -271h4l-7 271h220v-594h-235l-135 256h-4l7 -256h-221z" />
    <glyph glyph-name="o.sc" horiz-adv-x="726" 
d="M696 299q0 -147 -96.5 -233t-236.5 -86q-139 0 -236 86t-97 233q0 145 97 230t236 85q140 0 236.5 -85t96.5 -230zM363 412q-47 0 -77 -33t-30 -79q0 -48 30 -81.5t77 -33.5t77 33.5t30 81.5q0 45 -30.5 78.5t-76.5 33.5z" />
    <glyph glyph-name="p.sc" horiz-adv-x="614" 
d="M291 182v-182h-230v594h282q114 0 186.5 -48t72.5 -155q0 -104 -73 -156.5t-186 -52.5h-52zM291 438v-104h39q21 0 38 12t17 40q0 52 -58 52h-36z" />
    <glyph glyph-name="q.sc" horiz-adv-x="734" 
d="M696 312q0 -47 -17 -87.5t-44 -61.5v-3l98 7v-167h-376q-143 0 -235 76.5t-92 221.5t98 230.5t237 85.5q140 0 235.5 -81t95.5 -221zM363 412q-47 0 -77 -33.5t-30 -79.5q0 -48 30 -82t77 -34t76.5 33.5t29.5 82.5q0 46 -30 79.5t-76 33.5z" />
    <glyph glyph-name="r.sc" horiz-adv-x="642" 
d="M61 0v594h288q115 0 182 -46t67 -147q0 -129 -98 -167l148 -234h-264l-95 202h-7v-202h-221zM282 438v-95h39q25 0 40.5 13t15.5 38q0 44 -50 44h-45z" />
    <glyph glyph-name="s.sc" horiz-adv-x="571" 
d="M542 189q0 -56 -25 -98.5t-65 -65.5t-83.5 -34t-87.5 -11q-77 0 -151 22.5t-126 62.5l126 147q60 -55 134 -55q37 0 37 23q0 14 -20 24t-71 22q-69 16 -118.5 58t-49.5 118q0 55 25 97.5t64.5 66.5t83 36t86.5 12q144 0 256 -76l-121 -145q-59 38 -114 38q-44 0 -44 -24
q0 -12 14.5 -19t62.5 -17q81 -17 134 -60.5t53 -121.5z" />
    <glyph glyph-name="t.sc" horiz-adv-x="529" 
d="M380 413v-413h-231v413h-142v181h515v-181h-142z" />
    <glyph glyph-name="u.sc" horiz-adv-x="694" 
d="M345 -20q-139 0 -215 73t-76 188v353h236v-332q0 -77 58 -77t58 77v332h234v-353q0 -116 -75.5 -188.5t-219.5 -72.5z" />
    <glyph glyph-name="v.sc" horiz-adv-x="630" 
d="M179 0l-197 594h258l79 -334h4l76 334h249l-200 -594h-269z" />
    <glyph glyph-name="w.sc" horiz-adv-x="987" 
d="M490 305l-80 -305h-233l-183 594h251l67 -307h4l69 307h226l74 -307h3l65 307h240l-185 -594h-233l-83 305h-2z" />
    <glyph glyph-name="x.sc" horiz-adv-x="690" 
d="M427 0l-81 138l-87 -138h-263l205 304l-191 289h265l77 -128l75 128h257l-191 -289l201 -304h-267z" />
    <glyph glyph-name="y.sc" horiz-adv-x="632" 
d="M426 208v-208h-231v208l-215 386h262l77 -198l77 198h256z" />
    <glyph glyph-name="z.sc" horiz-adv-x="590" 
d="M38 0v181l216 229h-207v184h507v-169l-232 -241h242v-184h-526z" />
    <glyph glyph-name="agrave.sc" horiz-adv-x="686" 
d="M-10 0l232 594h246l228 -594h-245l-27 85h-166l-27 -85h-241zM390 230l-48 154l-49 -154h97zM283 654l-154 144h212l111 -144h-169z" />
    <glyph glyph-name="aacute.sc" horiz-adv-x="686" 
d="M-10 0l232 594h246l228 -594h-245l-27 85h-166l-27 -85h-241zM390 230l-48 154l-49 -154h97zM406 654h-169l111 144h212z" />
    <glyph glyph-name="acircumflex.sc" horiz-adv-x="686" 
d="M-10 0l232 594h246l228 -594h-245l-27 85h-166l-27 -85h-241zM390 230l-48 154l-49 -154h97zM410 654l-67 68l-67 -68h-152l137 144h169l134 -144h-154z" />
    <glyph glyph-name="atilde.sc" horiz-adv-x="686" 
d="M-10 0l232 594h246l228 -594h-245l-27 85h-166l-27 -85h-241zM390 230l-48 154l-49 -154h97zM530 790q-3 -61 -33.5 -100t-80.5 -39q-38 0 -81 23q-41 22 -63 22q-30 0 -37 -36h-80q3 59 33 97.5t80 38.5q37 0 83 -24q43 -22 65 -22q28 0 35 40h79z" />
    <glyph glyph-name="adieresis.sc" horiz-adv-x="686" 
d="M-10 0l232 594h246l228 -594h-245l-27 85h-166l-27 -85h-241zM390 230l-48 154l-49 -154h97zM368 748q0 40 30 69.5t71 29.5q40 0 69.5 -29.5t29.5 -69.5q0 -41 -29.5 -69.5t-69.5 -28.5q-42 0 -71.5 28.5t-29.5 69.5zM119 748q0 40 30 69.5t71 29.5q40 0 69.5 -29.5
t29.5 -69.5q0 -41 -29.5 -69.5t-69.5 -28.5q-42 0 -71.5 28.5t-29.5 69.5z" />
    <glyph glyph-name="amacron.sc" horiz-adv-x="686" 
d="M-10 0l232 594h246l228 -594h-245l-27 85h-166l-27 -85h-241zM390 230l-48 154l-49 -154h97zM163 681v96h360v-96h-360z" />
    <glyph glyph-name="abreve.sc" horiz-adv-x="686" 
d="M-10 0l232 594h246l228 -594h-245l-27 85h-166l-27 -85h-241zM390 230l-48 154l-49 -154h97zM343 654q-170 0 -180 144h110q4 -39 70 -39t70 39h110q-10 -144 -180 -144z" />
    <glyph glyph-name="aring.sc" horiz-adv-x="686" 
d="M-10 0l232 594h246l228 -594h-245l-27 85h-166l-27 -85h-241zM390 230l-48 154l-49 -154h97zM458 747q0 -48 -34 -81t-81 -33t-81 33t-34 81t34 81t81 33t81 -33t34 -81zM403 747q0 25 -17.5 42t-42.5 17t-42.5 -17t-17.5 -42t17.5 -42t42.5 -17t42.5 17t17.5 42z" />
    <glyph glyph-name="aogonek.sc" horiz-adv-x="686" 
d="M459 -240q-50 0 -88.5 21.5t-38.5 72.5q0 43 32.5 77t86.5 69l-27 85h-166l-27 -85h-241l232 594h246l228 -594h-108q-64 -45 -88.5 -69.5t-24.5 -42.5q0 -20 23 -20q26 0 56 18l44 -83q-66 -43 -139 -43zM390 230l-48 154l-49 -154h97z" />
    <glyph glyph-name="ae.sc" horiz-adv-x="888" 
d="M834 594v-166h-212v-52h199v-153h-199v-56h227v-167h-441v95h-149l-44 -95h-253l297 594h575zM401 428l-82 -178h89v178h-7z" />
    <glyph glyph-name="cacute.sc" horiz-adv-x="579" 
d="M370 -20q-151 0 -245.5 87t-94.5 231q0 142 96.5 229t246.5 87q60 0 119.5 -18t94.5 -45l-122 -176q-30 36 -84 36q-46 0 -79.5 -30t-33.5 -83q0 -54 33.5 -83.5t79.5 -29.5q52 0 85 37l123 -173q-38 -30 -97 -49.5t-122 -19.5zM413 654h-169l111 144h212z" />
    <glyph glyph-name="ccircumflex.sc" horiz-adv-x="579" 
d="M370 -20q-151 0 -245.5 87t-94.5 231q0 142 96.5 229t246.5 87q60 0 119.5 -18t94.5 -45l-122 -176q-30 36 -84 36q-46 0 -79.5 -30t-33.5 -83q0 -54 33.5 -83.5t79.5 -29.5q52 0 85 37l123 -173q-38 -30 -97 -49.5t-122 -19.5zM442 654l-67 68l-67 -68h-152l137 144h169
l134 -144h-154z" />
    <glyph glyph-name="ccaron.sc" horiz-adv-x="579" 
d="M370 -20q-151 0 -245.5 87t-94.5 231q0 142 96.5 229t246.5 87q60 0 119.5 -18t94.5 -45l-122 -176q-30 36 -84 36q-46 0 -79.5 -30t-33.5 -83q0 -54 33.5 -83.5t79.5 -29.5q52 0 85 37l123 -173q-38 -30 -97 -49.5t-122 -19.5zM442 798h154l-134 -144h-169l-137 144h152
l67 -68z" />
    <glyph glyph-name="cdotaccent.sc" horiz-adv-x="579" 
d="M370 -20q-151 0 -245.5 87t-94.5 231q0 142 96.5 229t246.5 87q60 0 119.5 -18t94.5 -45l-122 -176q-30 36 -84 36q-46 0 -79.5 -30t-33.5 -83q0 -54 33.5 -83.5t79.5 -29.5q52 0 85 37l123 -173q-38 -30 -97 -49.5t-122 -19.5zM267 748q0 44 32 75t77 31
q43 0 74.5 -31.5t31.5 -74.5q0 -44 -31.5 -74.5t-74.5 -30.5q-45 0 -77 30.5t-32 74.5z" />
    <glyph glyph-name="ccedilla.sc" horiz-adv-x="579" 
d="M327 -240q-75 0 -133 23l34 78q37 -16 85 -16q40 0 40 21q0 18 -37 18q-23 0 -41 -6l-44 34l63 75q-120 21 -192 104t-72 207q0 142 96.5 229t246.5 87q60 0 119.5 -18t94.5 -45l-122 -176q-30 36 -84 36q-46 0 -79.5 -30t-33.5 -83q0 -54 33.5 -83.5t79.5 -29.5
q52 0 85 37l123 -173q-69 -56 -183 -67l-33 -35q5 1 16 1q41 0 71.5 -19.5t30.5 -65.5q0 -38 -28.5 -62.5t-63 -32.5t-72.5 -8z" />
    <glyph glyph-name="dcaron.sc" horiz-adv-x="689" 
d="M312 0h-251v594h234q77 0 139 -14.5t114.5 -47t81.5 -91.5t29 -141q0 -148 -99 -224t-248 -76zM283 409v-222h15q63 0 95.5 26.5t32.5 87.5q0 52 -32 80t-89 28h-22zM394 798h154l-134 -144h-169l-137 144h152l67 -68z" />
    <glyph glyph-name="dcroat.sc" horiz-adv-x="689" 
d="M312 0h-251v231h-54v138h54v225h234q77 0 139 -14.5t114.5 -47t81.5 -91.5t29 -141q0 -148 -99 -224t-248 -76zM350 231h-73v-52h15q139 0 139 122q0 56 -34.5 86t-97.5 30h-22v-48h73v-138z" />
    <glyph glyph-name="eth.sc" horiz-adv-x="689" 
d="M312 0h-251v231h-54v138h54v225h234q77 0 139 -14.5t114.5 -47t81.5 -91.5t29 -141q0 -148 -99 -224t-248 -76zM350 231h-73v-52h15q139 0 139 122q0 56 -34.5 86t-97.5 30h-22v-48h73v-138z" />
    <glyph glyph-name="egrave.sc" horiz-adv-x="543" 
d="M61 0v594h428v-166h-212v-52h199v-153h-199v-56h227v-167h-443zM247 654l-154 144h212l111 -144h-169z" />
    <glyph glyph-name="eacute.sc" horiz-adv-x="543" 
d="M61 0v594h428v-166h-212v-52h199v-153h-199v-56h227v-167h-443zM330 654h-169l111 144h212z" />
    <glyph glyph-name="ecircumflex.sc" horiz-adv-x="543" 
d="M61 0v594h428v-166h-212v-52h199v-153h-199v-56h227v-167h-443zM342 654l-67 68l-67 -68h-152l137 144h169l134 -144h-154z" />
    <glyph glyph-name="ecaron.sc" horiz-adv-x="543" 
d="M61 0v594h428v-166h-212v-52h199v-153h-199v-56h227v-167h-443zM339 798h154l-134 -144h-169l-137 144h152l67 -68z" />
    <glyph glyph-name="edieresis.sc" horiz-adv-x="543" 
d="M61 0v594h428v-166h-212v-52h199v-153h-199v-56h227v-167h-443zM299 748q0 40 30 69.5t71 29.5q40 0 69.5 -29.5t29.5 -69.5q0 -41 -29.5 -69.5t-69.5 -28.5q-42 0 -71.5 28.5t-29.5 69.5zM50 748q0 40 30 69.5t71 29.5q40 0 69.5 -29.5t29.5 -69.5q0 -41 -29.5 -69.5
t-69.5 -28.5q-42 0 -71.5 28.5t-29.5 69.5z" />
    <glyph glyph-name="emacron.sc" horiz-adv-x="543" 
d="M61 0v594h428v-166h-212v-52h199v-153h-199v-56h227v-167h-443zM94 681v96h360v-96h-360z" />
    <glyph glyph-name="ebreve.sc" horiz-adv-x="543" 
d="M61 0v594h428v-166h-212v-52h199v-153h-199v-56h227v-167h-443zM274 654q-170 0 -180 144h110q4 -39 70 -39t70 39h110q-10 -144 -180 -144z" />
    <glyph glyph-name="edotaccent.sc" horiz-adv-x="543" 
d="M61 0v594h428v-166h-212v-52h199v-153h-199v-56h227v-167h-443zM168 748q0 44 32 75t77 31q43 0 74.5 -31.5t31.5 -74.5q0 -44 -31.5 -74.5t-74.5 -30.5q-45 0 -77 30.5t-32 74.5z" />
    <glyph glyph-name="eogonek.sc" horiz-adv-x="543" 
d="M61 0v594h428v-166h-212v-52h199v-153h-199v-56h227v-167h-26q-64 -45 -88.5 -69.5t-24.5 -42.5q0 -20 23 -20q26 0 56 18l44 -83q-66 -43 -139 -43q-50 0 -88.5 21.5t-38.5 72.5q0 43 32.5 77t86.5 69h-280z" />
    <glyph glyph-name="gcircumflex.sc" horiz-adv-x="650" 
d="M364 -20q-146 0 -240 87.5t-94 229.5q0 141 95 229t236 88q147 0 240 -76l-129 -157q-40 37 -99 37q-46 0 -80.5 -32.5t-34.5 -91.5q0 -62 29.5 -96.5t84.5 -34.5q18 0 48 8v43h-95v142h286v-307q-45 -29 -112 -49t-135 -20zM432 654l-67 68l-67 -68h-152l137 144h169
l134 -144h-154z" />
    <glyph glyph-name="gbreve.sc" horiz-adv-x="650" 
d="M364 -20q-146 0 -240 87.5t-94 229.5q0 141 95 229t236 88q147 0 240 -76l-129 -157q-40 37 -99 37q-46 0 -80.5 -32.5t-34.5 -91.5q0 -62 29.5 -96.5t84.5 -34.5q18 0 48 8v43h-95v142h286v-307q-45 -29 -112 -49t-135 -20zM365 654q-170 0 -180 144h110q4 -39 70 -39
t70 39h110q-10 -144 -180 -144z" />
    <glyph glyph-name="gdotaccent.sc" horiz-adv-x="650" 
d="M364 -20q-146 0 -240 87.5t-94 229.5q0 141 95 229t236 88q147 0 240 -76l-129 -157q-40 37 -99 37q-46 0 -80.5 -32.5t-34.5 -91.5q0 -62 29.5 -96.5t84.5 -34.5q18 0 48 8v43h-95v142h286v-307q-45 -29 -112 -49t-135 -20zM258 748q0 44 32 75t77 31q43 0 74.5 -31.5
t31.5 -74.5q0 -44 -31.5 -74.5t-74.5 -30.5q-45 0 -77 30.5t-32 74.5z" />
    <glyph glyph-name="gcommaaccent.sc" horiz-adv-x="650" 
d="M364 -20q-146 0 -240 87.5t-94 229.5q0 141 95 229t236 88q147 0 240 -76l-129 -157q-40 37 -99 37q-46 0 -80.5 -32.5t-34.5 -91.5q0 -62 29.5 -96.5t84.5 -34.5q18 0 48 8v43h-95v142h286v-307q-45 -29 -112 -49t-135 -20zM268 -45h189l-93 -195h-164z" />
    <glyph glyph-name="kgreenlandic.sc" horiz-adv-x="671" 
d="M401 0l-115 234h-1v-234h-224v594h223v-216h2l115 216h269l-186 -271l197 -323h-280z" />
    <glyph glyph-name="hcircumflex.sc" horiz-adv-x="716" 
d="M422 0v219h-128v-219h-233v594h232v-199h128v199h234v-594h-233zM424 654l-67 68l-67 -68h-152l137 144h169l134 -144h-154z" />
    <glyph glyph-name="hbar.sc" horiz-adv-x="716" 
d="M422 0v202h-128v-202h-233v594h232v-69h128v69h234v-594h-233zM293 372h128v63h-128v-63z" />
    <glyph glyph-name="igrave.sc" horiz-adv-x="358" 
d="M61 0v594h236v-594h-236zM111 654l-154 144h212l111 -144h-169z" />
    <glyph glyph-name="iacute.sc" horiz-adv-x="358" 
d="M61 0v594h236v-594h-236zM245 654h-169l111 144h212z" />
    <glyph glyph-name="ibreve.sc" horiz-adv-x="358" 
d="M61 0v594h236v-594h-236zM179 654q-170 0 -180 144h110q4 -39 70 -39t70 39h110q-10 -144 -180 -144z" />
    <glyph glyph-name="icircumflex.sc" horiz-adv-x="358" 
d="M61 0v594h236v-594h-236zM247 654l-67 68l-67 -68h-152l137 144h169l134 -144h-154z" />
    <glyph glyph-name="itilde.sc" horiz-adv-x="358" 
d="M61 0v594h236v-594h-236zM366 790q-3 -61 -33.5 -100t-80.5 -39q-38 0 -81 23q-41 22 -63 22q-30 0 -37 -36h-80q3 59 33 97.5t80 38.5q37 0 83 -24q43 -22 65 -22q28 0 35 40h79z" />
    <glyph glyph-name="idieresis.sc" horiz-adv-x="358" 
d="M61 0v594h236v-594h-236zM204 748q0 40 30 69.5t71 29.5q40 0 69.5 -29.5t29.5 -69.5q0 -41 -29.5 -69.5t-69.5 -28.5q-42 0 -71.5 28.5t-29.5 69.5zM-45 748q0 40 30 69.5t71 29.5q40 0 69.5 -29.5t29.5 -69.5q0 -41 -29.5 -69.5t-69.5 -28.5q-42 0 -71.5 28.5
t-29.5 69.5z" />
    <glyph glyph-name="imacron.sc" horiz-adv-x="358" 
d="M61 0v594h236v-594h-236zM-1 681v96h360v-96h-360z" />
    <glyph glyph-name="idotaccent.sc" horiz-adv-x="358" 
d="M61 0v594h236v-594h-236zM68 748q0 44 32 75t77 31q43 0 74.5 -31.5t31.5 -74.5q0 -44 -31.5 -74.5t-74.5 -30.5q-45 0 -77 30.5t-32 74.5z" />
    <glyph glyph-name="iogonek.sc" horiz-adv-x="358" 
d="M61 0v594h236v-594q-64 -45 -88.5 -69.5t-24.5 -42.5q0 -20 23 -20q26 0 56 18l44 -83q-66 -43 -139 -43q-50 0 -88.5 21.5t-38.5 72.5q0 43 32.5 77t86.5 69h-99z" />
    <glyph glyph-name="jcircumflex.sc" horiz-adv-x="541" 
d="M245 -20q-98 0 -163.5 43.5t-89.5 123.5l182 79q8 -39 41 -39q35 0 35 44v363h236v-377q0 -100 -59.5 -168.5t-181.5 -68.5zM435 654l-67 68l-67 -68h-152l137 144h169l134 -144h-154z" />
    <glyph glyph-name="kcommaaccent.sc" horiz-adv-x="671" 
d="M401 0l-115 234h-1v-234h-224v594h223v-216h2l115 216h269l-186 -271l197 -323h-280zM262 -45h189l-93 -195h-164z" />
    <glyph glyph-name="lacute.sc" horiz-adv-x="499" 
d="M61 0v594h234v-410h184v-184h-418zM260 654h-169l111 144h212z" />
    <glyph glyph-name="lcaron.sc" horiz-adv-x="539" 
d="M61 0v594h234v-410h184v-184h-418zM384 594h189l-93 -195h-164z" />
    <glyph glyph-name="lcommaaccent.sc" horiz-adv-x="499" 
d="M61 0v594h234v-410h184v-184h-418zM186 -45h189l-93 -195h-164z" />
    <glyph glyph-name="lslash.sc" horiz-adv-x="499" 
d="M61 0v147l-55 -42v190l55 42v257h228v-101l96 73v-189l-96 -73v-120h190v-184h-418z" />
    <glyph glyph-name="ldot.sc" horiz-adv-x="519" 
d="M61 0v594h234v-410h184v-184h-418zM325 388q0 44 32 75t77 31q43 0 74.5 -31.5t31.5 -74.5q0 -44 -31.5 -74.5t-74.5 -30.5q-45 0 -77 30.5t-32 74.5z" />
    <glyph glyph-name="nacute.sc" horiz-adv-x="710" 
d="M61 0v594h231l140 -271h4l-7 271h220v-594h-235l-135 256h-4l7 -256h-221zM418 654h-169l111 144h212z" />
    <glyph glyph-name="ncaron.sc" horiz-adv-x="710" 
d="M61 0v594h231l140 -271h4l-7 271h220v-594h-235l-135 256h-4l7 -256h-221zM422 798h154l-134 -144h-169l-137 144h152l67 -68z" />
    <glyph glyph-name="ntilde.sc" horiz-adv-x="710" 
d="M61 0v594h231l140 -271h4l-7 271h220v-594h-235l-135 256h-4l7 -256h-221zM544 790q-3 -61 -33.5 -100t-80.5 -39q-38 0 -81 23q-41 22 -63 22q-30 0 -37 -36h-80q3 59 33 97.5t80 38.5q37 0 83 -24q43 -22 65 -22q28 0 35 40h79z" />
    <glyph glyph-name="ncommaaccent.sc" horiz-adv-x="710" 
d="M61 0v594h231l140 -271h4l-7 271h220v-594h-235l-135 256h-4l7 -256h-221zM269 -45h189l-93 -195h-164z" />
    <glyph glyph-name="ograve.sc" horiz-adv-x="726" 
d="M696 299q0 -147 -96.5 -233t-236.5 -86q-139 0 -236 86t-97 233q0 145 97 230t236 85q140 0 236.5 -85t96.5 -230zM363 412q-47 0 -77 -33t-30 -79q0 -48 30 -81.5t77 -33.5t77 33.5t30 81.5q0 45 -30.5 78.5t-76.5 33.5zM302 654l-154 144h212l111 -144h-169z" />
    <glyph glyph-name="oacute.sc" horiz-adv-x="726" 
d="M696 299q0 -147 -96.5 -233t-236.5 -86q-139 0 -236 86t-97 233q0 145 97 230t236 85q140 0 236.5 -85t96.5 -230zM363 412q-47 0 -77 -33t-30 -79q0 -48 30 -81.5t77 -33.5t77 33.5t30 81.5q0 45 -30.5 78.5t-76.5 33.5zM409 654h-169l111 144h212z" />
    <glyph glyph-name="ocircumflex.sc" horiz-adv-x="726" 
d="M696 299q0 -147 -96.5 -233t-236.5 -86q-139 0 -236 86t-97 233q0 145 97 230t236 85q140 0 236.5 -85t96.5 -230zM363 412q-47 0 -77 -33t-30 -79q0 -48 30 -81.5t77 -33.5t77 33.5t30 81.5q0 45 -30.5 78.5t-76.5 33.5zM429 654l-67 68l-67 -68h-152l137 144h169
l134 -144h-154z" />
    <glyph glyph-name="otilde.sc" horiz-adv-x="726" 
d="M696 299q0 -147 -96.5 -233t-236.5 -86q-139 0 -236 86t-97 233q0 145 97 230t236 85q140 0 236.5 -85t96.5 -230zM363 412q-47 0 -77 -33t-30 -79q0 -48 30 -81.5t77 -33.5t77 33.5t30 81.5q0 45 -30.5 78.5t-76.5 33.5zM551 790q-3 -61 -33.5 -100t-80.5 -39
q-38 0 -81 23q-41 22 -63 22q-30 0 -37 -36h-80q3 59 33 97.5t80 38.5q37 0 83 -24q43 -22 65 -22q28 0 35 40h79z" />
    <glyph glyph-name="odieresis.sc" horiz-adv-x="726" 
d="M696 299q0 -147 -96.5 -233t-236.5 -86q-139 0 -236 86t-97 233q0 145 97 230t236 85q140 0 236.5 -85t96.5 -230zM363 412q-47 0 -77 -33t-30 -79q0 -48 30 -81.5t77 -33.5t77 33.5t30 81.5q0 45 -30.5 78.5t-76.5 33.5zM387 748q0 40 30 69.5t71 29.5q40 0 69.5 -29.5
t29.5 -69.5q0 -41 -29.5 -69.5t-69.5 -28.5q-42 0 -71.5 28.5t-29.5 69.5zM138 748q0 40 30 69.5t71 29.5q40 0 69.5 -29.5t29.5 -69.5q0 -41 -29.5 -69.5t-69.5 -28.5q-42 0 -71.5 28.5t-29.5 69.5z" />
    <glyph glyph-name="omacron.sc" horiz-adv-x="726" 
d="M696 299q0 -147 -96.5 -233t-236.5 -86q-139 0 -236 86t-97 233q0 145 97 230t236 85q140 0 236.5 -85t96.5 -230zM363 412q-47 0 -77 -33t-30 -79q0 -48 30 -81.5t77 -33.5t77 33.5t30 81.5q0 45 -30.5 78.5t-76.5 33.5zM182 681v96h360v-96h-360z" />
    <glyph glyph-name="obreve.sc" horiz-adv-x="726" 
d="M696 299q0 -147 -96.5 -233t-236.5 -86q-139 0 -236 86t-97 233q0 145 97 230t236 85q140 0 236.5 -85t96.5 -230zM363 412q-47 0 -77 -33t-30 -79q0 -48 30 -81.5t77 -33.5t77 33.5t30 81.5q0 45 -30.5 78.5t-76.5 33.5zM362 654q-170 0 -180 144h110q4 -39 70 -39
t70 39h110q-10 -144 -180 -144z" />
    <glyph glyph-name="ohungarumlaut.sc" horiz-adv-x="726" 
d="M696 299q0 -147 -96.5 -233t-236.5 -86q-139 0 -236 86t-97 233q0 145 97 230t236 85q140 0 236.5 -85t96.5 -230zM363 412q-47 0 -77 -33t-30 -79q0 -48 30 -81.5t77 -33.5t77 33.5t30 81.5q0 45 -30.5 78.5t-76.5 33.5zM325 654h-169l111 144h212zM568 654h-169
l111 144h212z" />
    <glyph glyph-name="oslash.sc" horiz-adv-x="726" 
d="M696 299q0 -147 -96.5 -233t-236.5 -86q-102 0 -184 47l-70 -73l-85 78l68 71q-62 81 -62 196q0 145 97 230t236 85q99 0 179 -44l80 83l85 -78l-77 -80q66 -80 66 -196zM470 300q0 15 -5 32l-136 -142q17 -5 34 -5q47 0 77 33.5t30 81.5zM363 412q-47 0 -77 -33t-30 -79
q0 -16 3 -31l134 139q-13 4 -30 4z" />
    <glyph glyph-name="oe.sc" horiz-adv-x="901" 
d="M847 594v-166h-212v-52h199v-153h-199v-56h227v-167h-447q-77 0 -139.5 15t-114.5 47t-81 91t-29 140q0 96 49 165.5t126 102.5t172 33h449zM284 297q0 -58 34 -88.5t82 -30.5h26v238h-26q-47 0 -81.5 -32t-34.5 -87z" />
    <glyph glyph-name="racute.sc" horiz-adv-x="642" 
d="M61 0v594h288q115 0 182 -46t67 -147q0 -129 -98 -167l148 -234h-264l-95 202h-7v-202h-221zM282 438v-95h39q25 0 40.5 13t15.5 38q0 44 -50 44h-45zM368 654h-169l111 144h212z" />
    <glyph glyph-name="rcaron.sc" horiz-adv-x="642" 
d="M61 0v594h288q115 0 182 -46t67 -147q0 -129 -98 -167l148 -234h-264l-95 202h-7v-202h-221zM282 438v-95h39q25 0 40.5 13t15.5 38q0 44 -50 44h-45zM385 798h154l-134 -144h-169l-137 144h152l67 -68z" />
    <glyph glyph-name="rcommaaccent.sc" horiz-adv-x="642" 
d="M61 0v594h288q115 0 182 -46t67 -147q0 -129 -98 -167l148 -234h-264l-95 202h-7v-202h-221zM282 438v-95h39q25 0 40.5 13t15.5 38q0 44 -50 44h-45zM249 -45h189l-93 -195h-164z" />
    <glyph glyph-name="sacute.sc" horiz-adv-x="571" 
d="M542 189q0 -56 -25 -98.5t-65 -65.5t-83.5 -34t-87.5 -11q-77 0 -151 22.5t-126 62.5l126 147q60 -55 134 -55q37 0 37 23q0 14 -20 24t-71 22q-69 16 -118.5 58t-49.5 118q0 55 25 97.5t64.5 66.5t83 36t86.5 12q144 0 256 -76l-121 -145q-59 38 -114 38q-44 0 -44 -24
q0 -12 14.5 -19t62.5 -17q81 -17 134 -60.5t53 -121.5zM355 654h-169l111 144h212z" />
    <glyph glyph-name="scircumflex.sc" horiz-adv-x="571" 
d="M542 189q0 -56 -25 -98.5t-65 -65.5t-83.5 -34t-87.5 -11q-77 0 -151 22.5t-126 62.5l126 147q60 -55 134 -55q37 0 37 23q0 14 -20 24t-71 22q-69 16 -118.5 58t-49.5 118q0 55 25 97.5t64.5 66.5t83 36t86.5 12q144 0 256 -76l-121 -145q-59 38 -114 38q-44 0 -44 -24
q0 -12 14.5 -19t62.5 -17q81 -17 134 -60.5t53 -121.5zM367 654l-67 68l-67 -68h-152l137 144h169l134 -144h-154z" />
    <glyph glyph-name="scaron.sc" horiz-adv-x="571" 
d="M542 189q0 -56 -25 -98.5t-65 -65.5t-83.5 -34t-87.5 -11q-77 0 -151 22.5t-126 62.5l126 147q60 -55 134 -55q37 0 37 23q0 14 -20 24t-71 22q-69 16 -118.5 58t-49.5 118q0 55 25 97.5t64.5 66.5t83 36t86.5 12q144 0 256 -76l-121 -145q-59 38 -114 38q-44 0 -44 -24
q0 -12 14.5 -19t62.5 -17q81 -17 134 -60.5t53 -121.5zM368 798h154l-134 -144h-169l-137 144h152l67 -68z" />
    <glyph glyph-name="scedilla.sc" horiz-adv-x="571" 
d="M248 -240q-76 0 -133 23l34 78q37 -16 85 -16q40 0 40 21q0 18 -37 18q-23 0 -41 -6l-44 34l61 73q-127 16 -209 80l126 147q60 -55 134 -55q37 0 37 23q0 14 -20 24t-71 22q-69 16 -118.5 58t-49.5 118q0 55 25 97.5t64.5 66.5t83 36t86.5 12q144 0 256 -76l-121 -145
q-59 38 -114 38q-44 0 -44 -24q0 -12 14.5 -19t62.5 -17q81 -17 134 -60.5t53 -121.5q0 -49 -19 -87.5t-51 -62t-68 -37.5t-76 -19l-34 -36q5 1 16 1q41 0 71.5 -19.5t30.5 -65.5q0 -38 -28.5 -62.5t-63 -32.5t-72.5 -8z" />
    <glyph glyph-name="scommaaccent.sc" horiz-adv-x="571" 
d="M542 189q0 -56 -25 -98.5t-65 -65.5t-83.5 -34t-87.5 -11q-77 0 -151 22.5t-126 62.5l126 147q60 -55 134 -55q37 0 37 23q0 14 -20 24t-71 22q-69 16 -118.5 58t-49.5 118q0 55 25 97.5t64.5 66.5t83 36t86.5 12q144 0 256 -76l-121 -145q-59 38 -114 38q-44 0 -44 -24
q0 -12 14.5 -19t62.5 -17q81 -17 134 -60.5t53 -121.5zM197 -45h189l-93 -195h-164z" />
    <glyph glyph-name="tcaron.sc" horiz-adv-x="529" 
d="M380 413v-413h-231v413h-142v181h515v-181h-142zM332 798h154l-134 -144h-169l-137 144h152l67 -68z" />
    <glyph glyph-name="tcommaaccent.sc" horiz-adv-x="529" 
d="M380 413v-413h-231v413h-142v181h515v-181h-142zM181 -45h189l-93 -195h-164z" />
    <glyph glyph-name="tbar.sc" horiz-adv-x="529" 
d="M57 235v100h92v78h-142v181h515v-181h-142v-78h92v-100h-92v-235h-231v235h-92z" />
    <glyph glyph-name="thorn.sc" horiz-adv-x="614" 
d="M356 112h-70v-112h-225v594h225v-67h76q122 0 181 -53t59 -146q0 -100 -66 -158t-180 -58zM286 371v-95h40q62 0 62 49q0 20 -15.5 33t-44.5 13h-42z" />
    <glyph glyph-name="ugrave.sc" horiz-adv-x="694" 
d="M345 -20q-139 0 -215 73t-76 188v353h236v-332q0 -77 58 -77t58 77v332h234v-353q0 -116 -75.5 -188.5t-219.5 -72.5zM293 654l-154 144h212l111 -144h-169z" />
    <glyph glyph-name="uacute.sc" horiz-adv-x="694" 
d="M345 -20q-139 0 -215 73t-76 188v353h236v-332q0 -77 58 -77t58 77v332h234v-353q0 -116 -75.5 -188.5t-219.5 -72.5zM419 654h-169l111 144h212z" />
    <glyph glyph-name="ucircumflex.sc" horiz-adv-x="694" 
d="M345 -20q-139 0 -215 73t-76 188v353h236v-332q0 -77 58 -77t58 77v332h234v-353q0 -116 -75.5 -188.5t-219.5 -72.5zM413 654l-67 68l-67 -68h-152l137 144h169l134 -144h-154z" />
    <glyph glyph-name="utilde.sc" horiz-adv-x="694" 
d="M345 -20q-139 0 -215 73t-76 188v353h236v-332q0 -77 58 -77t58 77v332h234v-353q0 -116 -75.5 -188.5t-219.5 -72.5zM537 790q-3 -61 -33.5 -100t-80.5 -39q-38 0 -81 23q-41 22 -63 22q-30 0 -37 -36h-80q3 59 33 97.5t80 38.5q37 0 83 -24q43 -22 65 -22q28 0 35 40
h79z" />
    <glyph glyph-name="udieresis.sc" horiz-adv-x="694" 
d="M345 -20q-139 0 -215 73t-76 188v353h236v-332q0 -77 58 -77t58 77v332h234v-353q0 -116 -75.5 -188.5t-219.5 -72.5zM373 748q0 40 30 69.5t71 29.5q40 0 69.5 -29.5t29.5 -69.5q0 -41 -29.5 -69.5t-69.5 -28.5q-42 0 -71.5 28.5t-29.5 69.5zM124 748q0 40 30 69.5
t71 29.5q40 0 69.5 -29.5t29.5 -69.5q0 -41 -29.5 -69.5t-69.5 -28.5q-42 0 -71.5 28.5t-29.5 69.5z" />
    <glyph glyph-name="umacron.sc" horiz-adv-x="694" 
d="M345 -20q-139 0 -215 73t-76 188v353h236v-332q0 -77 58 -77t58 77v332h234v-353q0 -116 -75.5 -188.5t-219.5 -72.5zM167 681v96h360v-96h-360z" />
    <glyph glyph-name="ubreve.sc" horiz-adv-x="694" 
d="M345 -20q-139 0 -215 73t-76 188v353h236v-332q0 -77 58 -77t58 77v332h234v-353q0 -116 -75.5 -188.5t-219.5 -72.5zM348 654q-170 0 -180 144h110q4 -39 70 -39t70 39h110q-10 -144 -180 -144z" />
    <glyph glyph-name="uring.sc" horiz-adv-x="694" 
d="M345 -20q-139 0 -215 73t-76 188v353h236v-332q0 -77 58 -77t58 77v332h234v-353q0 -116 -75.5 -188.5t-219.5 -72.5zM463 747q0 -48 -34 -81t-81 -33t-81 33t-34 81t34 81t81 33t81 -33t34 -81zM408 747q0 25 -17.5 42t-42.5 17t-42.5 -17t-17.5 -42t17.5 -42t42.5 -17
t42.5 17t17.5 42z" />
    <glyph glyph-name="uhungarumlaut.sc" horiz-adv-x="694" 
d="M345 -20q-139 0 -215 73t-76 188v353h236v-332q0 -77 58 -77t58 77v332h234v-353q0 -116 -75.5 -188.5t-219.5 -72.5zM311 654h-169l111 144h212zM554 654h-169l111 144h212z" />
    <glyph glyph-name="uogonek.sc" horiz-adv-x="694" 
d="M344 -240q-50 0 -88.5 21.5t-38.5 72.5q0 63 91 128q-122 9 -188 80.5t-66 178.5v353h236v-332q0 -77 58 -77t58 77v332h234v-353q0 -86 -43 -150t-126 -92q-62 -44 -86.5 -68.5t-24.5 -42.5q0 -20 23 -20q26 0 56 18l44 -83q-66 -43 -139 -43z" />
    <glyph glyph-name="wacute.sc" horiz-adv-x="987" 
d="M490 305l-80 -305h-233l-183 594h251l67 -307h4l69 307h226l74 -307h3l65 307h240l-185 -594h-233l-83 305h-2zM572 654h-169l111 144h212z" />
    <glyph glyph-name="wcircumflex.sc" horiz-adv-x="987" 
d="M490 305l-80 -305h-233l-183 594h251l67 -307h4l69 307h226l74 -307h3l65 307h240l-185 -594h-233l-83 305h-2zM562 654l-67 68l-67 -68h-152l137 144h169l134 -144h-154z" />
    <glyph glyph-name="wdieresis.sc" horiz-adv-x="987" 
d="M490 305l-80 -305h-233l-183 594h251l67 -307h4l69 307h226l74 -307h3l65 307h240l-185 -594h-233l-83 305h-2zM516 748q0 40 30 69.5t71 29.5q40 0 69.5 -29.5t29.5 -69.5q0 -41 -29.5 -69.5t-69.5 -28.5q-42 0 -71.5 28.5t-29.5 69.5zM267 748q0 40 30 69.5t71 29.5
q40 0 69.5 -29.5t29.5 -69.5q0 -41 -29.5 -69.5t-69.5 -28.5q-42 0 -71.5 28.5t-29.5 69.5z" />
    <glyph glyph-name="wgrave.sc" horiz-adv-x="987" 
d="M490 305l-80 -305h-233l-183 594h251l67 -307h4l69 307h226l74 -307h3l65 307h240l-185 -594h-233l-83 305h-2zM424 654l-154 144h212l111 -144h-169z" />
    <glyph glyph-name="yacute.sc" horiz-adv-x="632" 
d="M426 208v-208h-231v208l-215 386h262l77 -198l77 198h256zM378 654h-169l111 144h212z" />
    <glyph glyph-name="ycircumflex.sc" horiz-adv-x="632" 
d="M426 208v-208h-231v208l-215 386h262l77 -198l77 198h256zM385 654l-67 68l-67 -68h-152l137 144h169l134 -144h-154z" />
    <glyph glyph-name="ydieresis.sc" horiz-adv-x="632" 
d="M426 208v-208h-231v208l-215 386h262l77 -198l77 198h256zM345 748q0 40 30 69.5t71 29.5q40 0 69.5 -29.5t29.5 -69.5q0 -41 -29.5 -69.5t-69.5 -28.5q-42 0 -71.5 28.5t-29.5 69.5zM96 748q0 40 30 69.5t71 29.5q40 0 69.5 -29.5t29.5 -69.5q0 -41 -29.5 -69.5
t-69.5 -28.5q-42 0 -71.5 28.5t-29.5 69.5z" />
    <glyph glyph-name="ygrave.sc" horiz-adv-x="632" 
d="M426 208v-208h-231v208l-215 386h262l77 -198l77 198h256zM255 654l-154 144h212l111 -144h-169z" />
    <glyph glyph-name="zacute.sc" horiz-adv-x="590" 
d="M38 0v181l216 229h-207v184h507v-169l-232 -241h242v-184h-526zM352 654h-169l111 144h212z" />
    <glyph glyph-name="zcaron.sc" horiz-adv-x="590" 
d="M38 0v181l216 229h-207v184h507v-169l-232 -241h242v-184h-526zM373 798h154l-134 -144h-169l-137 144h152l67 -68z" />
    <glyph glyph-name="zdotaccent.sc" horiz-adv-x="590" 
d="M38 0v181l216 229h-207v184h507v-169l-232 -241h242v-184h-526zM194 748q0 44 32 75t77 31q43 0 74.5 -31.5t31.5 -74.5q0 -44 -31.5 -74.5t-74.5 -30.5q-45 0 -77 30.5t-32 74.5z" />
    <glyph glyph-name="ij.sc" horiz-adv-x="900" 
d="M61 0v594h236v-594h-236zM604 -20q-98 0 -163.5 43.5t-89.5 123.5l182 79q8 -39 41 -39q35 0 35 44v363h236v-377q0 -100 -59.5 -168.5t-181.5 -68.5z" />
    <glyph glyph-name="germandbls.sc" horiz-adv-x="1142" 
d="M542 189q0 -56 -25 -98.5t-65 -65.5t-83.5 -34t-87.5 -11q-77 0 -151 22.5t-126 62.5l126 147q60 -55 134 -55q37 0 37 23q0 14 -20 24t-71 22q-69 16 -118.5 58t-49.5 118q0 55 25 97.5t64.5 66.5t83 36t86.5 12q144 0 256 -76l-121 -145q-59 38 -114 38q-44 0 -44 -24
q0 -12 14.5 -19t62.5 -17q81 -17 134 -60.5t53 -121.5zM1113 189q0 -56 -25 -98.5t-65 -65.5t-83.5 -34t-87.5 -11q-77 0 -151 22.5t-126 62.5l126 147q60 -55 134 -55q37 0 37 23q0 14 -20 24t-71 22q-69 16 -118.5 58t-49.5 118q0 55 25 97.5t64.5 66.5t83 36t86.5 12
q144 0 256 -76l-121 -145q-59 38 -114 38q-44 0 -44 -24q0 -12 14.5 -19t62.5 -17q81 -17 134 -60.5t53 -121.5z" />
    <glyph glyph-name="eng.sc" horiz-adv-x="666" 
d="M61 0v594h231l140 -270h4l-7 270h220v-582q0 -252 -237 -252q-56 0 -96 12l12 188q18 -5 37 -5q45 0 52 45l-138 256h-4l7 -256h-221z" />
    <glyph glyph-name="grave.sc" 
d="M118 654l-154 144h212l111 -144h-169z" />
    <glyph glyph-name="acute.sc" 
d="M242 654h-169l111 144h212z" />
    <glyph glyph-name="circumflex.sc" 
d="M246 654l-67 68l-67 -68h-152l137 144h169l134 -144h-154z" />
    <glyph glyph-name="caron.sc" 
d="M246 798h154l-134 -144h-169l-137 144h152l67 -68z" />
    <glyph glyph-name="tilde.sc" 
d="M367 790q-3 -61 -33.5 -100t-80.5 -39q-38 0 -81 23q-41 22 -63 22q-30 0 -37 -36h-80q3 59 33 97.5t80 38.5q37 0 83 -24q43 -22 65 -22q28 0 35 40h79z" />
    <glyph glyph-name="dieresis.sc" 
d="M205 748q0 40 30 69.5t71 29.5q40 0 69.5 -29.5t29.5 -69.5q0 -41 -29.5 -69.5t-69.5 -28.5q-42 0 -71.5 28.5t-29.5 69.5zM-44 748q0 40 30 69.5t71 29.5q40 0 69.5 -29.5t29.5 -69.5q0 -41 -29.5 -69.5t-69.5 -28.5q-42 0 -71.5 28.5t-29.5 69.5z" />
    <glyph glyph-name="macron.sc" 
d="M0 681v96h360v-96h-360z" />
    <glyph glyph-name="breve.sc" 
d="M180 654q-170 0 -180 144h110q4 -39 70 -39t70 39h110q-10 -144 -180 -144z" />
    <glyph glyph-name="ring.sc" 
d="M295 747q0 -48 -34 -81t-81 -33t-81 33t-34 81t34 81t81 33t81 -33t34 -81zM240 747q0 25 -17.5 42t-42.5 17t-42.5 -17t-17.5 -42t17.5 -42t42.5 -17t42.5 17t17.5 42z" />
    <glyph glyph-name="hungarumlaut.sc" 
d="M114 654h-169l111 144h212zM357 654h-169l111 144h212z" />
    <glyph glyph-name="dotaccent.sc" 
d="M72 748q0 44 32 75t77 31q43 0 74.5 -31.5t31.5 -74.5q0 -44 -31.5 -74.5t-74.5 -30.5q-45 0 -77 30.5t-32 74.5z" />
    <glyph glyph-name="exclamdown.sc" horiz-adv-x="420" 
d="M210 611q52 0 86 -32.5t34 -82.5q0 -48 -34.5 -81t-85.5 -33t-85.5 33t-34.5 81q0 50 34 82.5t86 32.5zM93 343h234v-343h-234v343z" />
    <glyph glyph-name="questiondown.sc" horiz-adv-x="550" 
d="M148 299q36 16 36 41v9h197v-20q0 -43 -22.5 -71t-66.5 -52l-11 -6q-32 -18 -32 -34q0 -14 10 -22.5t25 -8.5q27 0 39 16t12 37l196 -22q-11 -96 -82 -141t-181 -45q-60 0 -108.5 14.5t-84 55t-35.5 101.5q0 57 27 90t81 58zM279 611q52 0 86 -32.5t34 -82.5
q0 -48 -34.5 -81t-85.5 -33t-85.5 33t-34.5 81q0 50 34 82.5t86 32.5z" />
    <glyph glyph-name="Euro.sc" horiz-adv-x="640" 
d="M124 279q-1 9 -1 19q0 7 1 16h-80l37 100h54q28 98 112.5 149t200.5 51q77 0 145 -22l-58 -148q-36 17 -88 17q-67 0 -91 -47h173l-35 -100h-162q-1 -6 -1 -16q0 -12 1 -19h152l-34 -98h-95q21 -39 86 -39q56 0 101 24l27 -156q-60 -30 -155 -30q-109 0 -182.5 54
t-97.5 147h-87l33 98h44z" />
    <glyph glyph-name="cent.sc" horiz-adv-x="640" 
d="M321 -13q-110 16 -176.5 90t-66.5 186q0 109 67 183t176 92v64h109v-61q92 -8 149 -52l-115 -166q-24 29 -69 29q-36 0 -63 -23.5t-27 -65.5t27 -64.5t63 -22.5q44 0 70 28l116 -162q-60 -48 -151 -57v-57h-109v59z" />
    <glyph glyph-name="sterling.sc" horiz-adv-x="640" 
d="M464 425q-23 26 -53 26q-23 0 -37 -12t-14 -34v-23h122v-138h-122v-77h211v-167h-481v167h77v77h-77v138h77v28q0 91 61 147.5t164 56.5q109 0 178 -65z" />
    <glyph glyph-name="florin.sc" horiz-adv-x="640" 
d="M511 424q-17 16 -43 16q-31 0 -38 -41l-7 -40h103v-138h-128l-27 -140q-15 -78 -62.5 -122.5t-145.5 -44.5q-83 0 -131 33l60 155q18 -15 43 -15q33 0 42 46l17 88h-67v138h92l17 84q34 169 212 169q83 0 140 -35z" />
    <glyph glyph-name="yen.sc" horiz-adv-x="640" 
d="M494 367h86v-100h-154v-57h154v-100h-154v-110h-214v110h-151v100h151v57h-151v100h86l-145 227h229l91 -182l92 182h224z" />
    <glyph glyph-name="perthousand.sc" horiz-adv-x="1200" 
d="M203 283q-69 0 -118.5 46.5t-49.5 118.5t49.5 118t118.5 46q70 0 119.5 -46t49.5 -118q0 -73 -49.5 -119t-119.5 -46zM203 399q21 0 36 14t15 36t-15 36t-36 14t-36 -14t-15 -36t15 -36t36 -14zM648 -17q-69 0 -118.5 46.5t-49.5 118.5t49.5 118t118.5 46q70 0 119.5 -46
t49.5 -118q0 -73 -49.5 -119t-119.5 -46zM648 99q21 0 36 14t15 36t-15 36t-36 14t-36 -14t-15 -36t15 -36t36 -14zM1009 -17q-69 0 -118.5 46.5t-49.5 118.5t49.5 118t118.5 46q70 0 119.5 -46t49.5 -118q0 -73 -49.5 -119t-119.5 -46zM1009 99q21 0 36 14t15 36t-15 36
t-36 14t-36 -14t-15 -36t15 -36t36 -14zM291 -37l-92 54l344 592l93 -54z" />
    <glyph glyph-name="zero.onum" horiz-adv-x="746" 
d="M706 299q0 -147 -96.5 -233t-236.5 -86q-139 0 -236 86t-97 233q0 145 97 230t236 85q140 0 236.5 -85t96.5 -230zM373 412q-47 0 -77 -33t-30 -79q0 -48 30 -81.5t77 -33.5t77 33.5t30 81.5q0 45 -30.5 78.5t-76.5 33.5z" />
    <glyph glyph-name="one.onum" horiz-adv-x="550" 
d="M212 0v367l-103 -66l-105 160l214 133h232v-594h-238z" />
    <glyph glyph-name="two.onum" horiz-adv-x="660" 
d="M53 169l49 23q142 67 199 105.5t57 76.5q0 25 -15.5 38.5t-38.5 13.5q-26 0 -46 -17.5t-29 -43.5l-196 59q31 87 103 138.5t186 51.5q49 0 94 -9.5t88.5 -31t70 -65.5t26.5 -105q0 -134 -170 -213l-17 -8v-2h199v-180h-560v169z" />
    <glyph glyph-name="three.onum" horiz-adv-x="600" 
d="M535 400q-119 -71 -192 -106v-3q14 2 23 2q82 0 141 -53.5t59 -150.5q0 -60 -22 -106.5t-56.5 -74.5t-82 -46t-93 -25t-94.5 -7q-74 0 -167 16l34 199q61 -11 112 -11q128 0 128 61q0 54 -119 54q-55 0 -118 -14l-39 158q100 46 222 109v4h-219v188h483v-194z" />
    <glyph glyph-name="four.onum" horiz-adv-x="700" 
d="M505 614l-249 -428h120v179h219v-179h88v-186h-87v-170h-223v170h-342v194l232 420h242z" />
    <glyph glyph-name="five.onum" horiz-adv-x="600" 
d="M549 100q0 -63 -22 -112t-56.5 -78t-81.5 -48t-91.5 -25.5t-92.5 -6.5q-77 0 -164 15l33 198q61 -8 104 -8q130 0 130 66q0 63 -110 63q-57 0 -144 -17l30 447h450v-198h-243l-9 -75q12 3 32 3q106 0 170.5 -57t64.5 -167z" />
    <glyph glyph-name="six.onum" horiz-adv-x="700" 
d="M350 320q-32 0 -52.5 -20.5t-20.5 -50.5q0 -31 20.5 -52t52.5 -21q33 0 54 21t21 52q0 30 -21 50.5t-54 20.5zM588 669q-139 -109 -204 -185l1 -2q12 4 34 4q97 0 169 -64t72 -172q0 -128 -89.5 -199t-220.5 -71q-135 0 -222.5 67t-87.5 212q0 59 22.5 121t53 110.5
t79.5 103.5t83.5 87t82.5 75z" />
    <glyph glyph-name="seven.onum" horiz-adv-x="620" 
d="M587 425q-167 -341 -275 -603l-245 48q130 273 260 526h-287v198h547v-169z" />
    <glyph glyph-name="eight.onum" horiz-adv-x="700" 
d="M350 551q-26 0 -42 -16t-16 -36q0 -21 16 -37.5t42 -16.5t42 16.5t16 37.5q0 20 -16 36t-42 16zM350 277q-29 0 -45.5 -17t-16.5 -42t16.5 -41.5t45.5 -16.5t45.5 16.5t16.5 41.5t-16.5 42t-45.5 17zM526 371v-3q52 -19 85 -63t33 -101q0 -112 -86 -168t-208 -56
q-78 0 -142 21t-108 73t-44 129q0 56 32 99t86 65v3q-46 17 -76 57t-30 92q0 53 24 94.5t64.5 66t89.5 36.5t104 12q54 0 103 -12t90 -36.5t65 -66t24 -94.5q0 -54 -29 -93t-77 -55z" />
    <glyph glyph-name="nine.onum" horiz-adv-x="700" 
d="M350 274q32 0 52.5 20.5t20.5 50.5q0 31 -20.5 52t-52.5 21q-33 0 -54 -21t-21 -52q0 -30 21 -50.5t54 -20.5zM105 -97q147 127 211 207l-1 2q-12 -4 -34 -4q-97 0 -169 64t-72 172q0 128 89.5 199t220.5 71q64 0 118.5 -16.5t98 -49t68.5 -88t25 -128.5
q0 -70 -31.5 -146t-84.5 -145t-103.5 -122t-108.5 -103z" />
    <glyph glyph-name="napostrophe.sc" horiz-adv-x="914" 
d="M265 0v594h231l140 -271h4l-7 271h220v-594h-235l-135 256h-4l7 -256h-221zM55 594h189l-93 -195h-164z" />
    <glyph glyph-name="ordfeminine.sc" horiz-adv-x="390" 
d="M15 431l113 291h138l111 -291h-128l-13 42h-81l-14 -42h-126zM220 544l-24 75l-25 -75h49z" />
    <glyph glyph-name="fi.sc" horiz-adv-x="871" 
d="M287 428v-66h174v-162h-173v-200h-227v594h424v-166h-198zM574 0v594h236v-594h-236z" />
    <glyph glyph-name="fl.sc" horiz-adv-x="1022" 
d="M297 428v-66h174v-162h-173v-200h-227v594h424v-166h-198zM584 0v594h234v-410h184v-184h-418z" />
    </font>
</defs>
</svg>
